M48
; DRILL file {KiCad 7.0.10} date Sat Apr 20 09:04:43 2024
; FORMAT={-:-/ absolute / metric / decimal}
; #@! TF.CreationDate,2024-04-20T09:04:43+09:00
; #@! TF.GenerationSoftware,Kicad,Pcbnew,7.0.10
; #@! TF.FileFunction,MixedPlating,1,2
FMAT,2
METRIC
; #@! TA.AperFunction,Plated,PTH,ViaDrill
T1C0.400
; #@! TA.AperFunction,Plated,PTH,ComponentDrill
T2C0.700
; #@! TA.AperFunction,Plated,PTH,ComponentDrill
T3C0.762
; #@! TA.AperFunction,Plated,PTH,ComponentDrill
T4C0.798
; #@! TA.AperFunction,Plated,PTH,ComponentDrill
T5C0.800
; #@! TA.AperFunction,Plated,PTH,ComponentDrill
T6C0.900
; #@! TA.AperFunction,Plated,PTH,ComponentDrill
T7C1.000
; #@! TA.AperFunction,Plated,PTH,ComponentDrill
T8C1.020
; #@! TA.AperFunction,Plated,PTH,ComponentDrill
T9C1.100
; #@! TA.AperFunction,NonPlated,NPTH,ComponentDrill
T10C1.500
; #@! TA.AperFunction,NonPlated,NPTH,ComponentDrill
T11C1.800
; #@! TA.AperFunction,NonPlated,NPTH,ComponentDrill
T12C3.200
%
G90
G05
T1
X3.0Y-10.5
X3.0Y-45.0
X3.0Y-56.0
X3.0Y-120.5
X14.778Y-54.851
X15.068Y-13.043
X20.264Y-4.966
X45.0Y-10.5
X46.528Y-44.285
X50.744Y-44.336
X54.554Y-44.336
X55.367Y-28.283
X55.418Y-32.652
X55.469Y-37.782
X63.0Y-22.0
X63.25Y-52.029
X65.5Y-2.5
X66.442Y-118.453
X66.442Y-121.145
X78.0Y-47.5
X78.5Y-6.5
X80.5Y-44.5
X89.09Y-17.994
X89.253Y-26.77
X91.0Y-114.274
X96.0Y-34.0
X104.0Y-110.0
X105.0Y-63.5
X110.0Y-2.0
X110.993Y-22.898
X112.974Y-48.349
X116.5Y-51.5
X117.381Y-25.71
X119.5Y-7.0
X121.5Y-56.5
X123.5Y-2.5
X126.856Y-66.078
X131.5Y-11.5
X131.5Y-120.5
T2
X115.006Y-12.789
X115.006Y-20.409
X118.156Y-12.84
X118.156Y-20.46
T4
X11.07Y-8.115
X13.071Y-8.115
X15.068Y-8.115
X17.069Y-8.115
T5
X122.5Y-12.69
X122.5Y-20.31
X122.5Y-23.5
X122.5Y-25.5
T6
X114.0Y-31.5
X114.0Y-42.0
X116.54Y-31.5
X116.54Y-42.0
T7
X6.0Y-16.0
X6.0Y-18.54
X6.0Y-21.08
X6.0Y-23.62
X6.0Y-26.16
X6.0Y-28.7
X6.0Y-31.24
X6.0Y-33.78
X6.0Y-36.32
X12.0Y-16.0
X12.0Y-18.54
X12.0Y-21.08
X12.0Y-23.62
X12.0Y-26.16
X12.0Y-28.7
X12.0Y-31.24
X12.0Y-33.78
X12.0Y-36.32
X57.96Y-6.94
X57.96Y-9.48
X57.96Y-12.02
X57.96Y-14.56
X57.96Y-17.1
X57.96Y-19.64
X57.96Y-22.18
X57.96Y-24.72
X57.96Y-27.26
X57.96Y-29.8
X57.96Y-32.34
X57.96Y-34.88
X57.96Y-37.42
X57.96Y-39.96
X57.96Y-42.5
X60.5Y-6.94
X60.5Y-9.48
X60.5Y-12.02
X60.5Y-14.56
X60.5Y-17.1
X60.5Y-19.64
X60.5Y-22.18
X60.5Y-24.72
X60.5Y-27.26
X60.5Y-29.8
X60.5Y-32.34
X60.5Y-34.88
X60.5Y-37.42
X60.5Y-39.96
X60.5Y-42.5
T8
X86.885Y-1.37
X86.885Y-3.91
X86.885Y-6.45
X86.885Y-8.99
X86.885Y-11.53
X86.885Y-14.07
X86.885Y-16.61
X86.885Y-19.15
X86.885Y-21.69
X86.885Y-24.23
X86.885Y-26.77
X86.885Y-29.31
X86.885Y-31.85
X86.885Y-34.39
X86.885Y-36.93
X86.885Y-39.47
X86.885Y-42.01
X86.885Y-44.55
X86.885Y-47.09
X86.885Y-49.63
X93.235Y-49.4
X95.775Y-49.4
X98.315Y-49.4
X104.665Y-1.37
X104.665Y-3.91
X104.665Y-6.45
X104.665Y-8.99
X104.665Y-11.53
X104.665Y-14.07
X104.665Y-16.61
X104.665Y-19.15
X104.665Y-21.69
X104.665Y-24.23
X104.665Y-26.77
X104.665Y-29.31
X104.665Y-31.85
X104.665Y-34.39
X104.665Y-36.93
X104.665Y-39.47
X104.665Y-42.01
X104.665Y-44.55
X104.665Y-47.09
X104.665Y-49.63
T9
X4.0Y-102.0
X4.0Y-108.5
X8.5Y-102.0
X8.5Y-108.5
X10.0Y-92.5
X10.0Y-99.0
X10.0Y-111.5
X10.0Y-118.0
X14.5Y-92.5
X14.5Y-99.0
X14.5Y-111.5
X14.5Y-118.0
X16.0Y-102.0
X16.0Y-108.5
X19.25Y-56.75
X19.25Y-63.25
X19.25Y-68.0
X19.25Y-74.5
X19.25Y-79.0
X19.25Y-85.5
X20.5Y-102.0
X20.5Y-108.5
X22.75Y-90.0
X22.75Y-96.5
X23.75Y-56.75
X23.75Y-63.25
X23.75Y-68.0
X23.75Y-74.5
X23.75Y-79.0
X23.75Y-85.5
X26.75Y-68.0
X26.75Y-74.5
X26.75Y-100.75
X26.75Y-107.25
X27.25Y-90.0
X27.25Y-96.5
X30.25Y-56.75
X30.25Y-63.25
X30.25Y-79.0
X30.25Y-85.5
X31.25Y-68.0
X31.25Y-74.5
X31.25Y-100.75
X31.25Y-107.25
X34.0Y-90.0
X34.0Y-96.5
X34.25Y-68.0
X34.25Y-74.5
X34.75Y-56.75
X34.75Y-63.25
X34.75Y-79.0
X34.75Y-85.5
X37.75Y-79.0
X37.75Y-85.5
X38.0Y-100.75
X38.0Y-107.25
X38.0Y-111.5
X38.0Y-118.0
X38.5Y-90.0
X38.5Y-96.5
X38.75Y-68.0
X38.75Y-74.5
X41.25Y-56.75
X41.25Y-63.25
X41.5Y-90.0
X41.5Y-96.5
X41.75Y-68.0
X41.75Y-74.5
X42.25Y-79.0
X42.25Y-85.5
X42.5Y-100.75
X42.5Y-107.25
X42.5Y-111.5
X42.5Y-118.0
X45.25Y-79.0
X45.25Y-85.5
X45.5Y-100.75
X45.5Y-107.25
X45.5Y-111.5
X45.5Y-118.0
X45.75Y-56.75
X45.75Y-63.25
X46.0Y-90.0
X46.0Y-96.5
X46.25Y-68.0
X46.25Y-74.5
X49.0Y-90.0
X49.0Y-96.5
X49.25Y-68.0
X49.25Y-74.5
X49.75Y-79.0
X49.75Y-85.5
X50.0Y-100.75
X50.0Y-107.25
X50.0Y-111.5
X50.0Y-118.0
X52.25Y-56.75
X52.25Y-63.25
X52.75Y-79.0
X52.75Y-85.5
X53.0Y-100.75
X53.0Y-107.25
X53.5Y-90.0
X53.5Y-96.5
X53.75Y-68.0
X53.75Y-74.5
X56.5Y-90.0
X56.5Y-96.5
X56.75Y-56.75
X56.75Y-63.25
X56.75Y-68.0
X56.75Y-74.5
X57.25Y-79.0
X57.25Y-85.5
X57.5Y-100.75
X57.5Y-107.25
X60.25Y-79.0
X60.25Y-85.5
X60.5Y-100.75
X60.5Y-107.25
X61.0Y-90.0
X61.0Y-96.5
X61.25Y-68.0
X61.25Y-74.5
X63.25Y-56.75
X63.25Y-63.25
X64.0Y-90.0
X64.0Y-96.5
X64.25Y-68.0
X64.25Y-74.5
X64.75Y-79.0
X64.75Y-85.5
X65.0Y-100.75
X65.0Y-107.25
X67.75Y-56.75
X67.75Y-63.25
X67.75Y-79.0
X67.75Y-85.5
X68.0Y-100.75
X68.0Y-107.25
X68.5Y-90.0
X68.5Y-96.5
X68.75Y-68.0
X68.75Y-74.5
X71.5Y-90.0
X71.5Y-96.5
X71.75Y-68.0
X71.75Y-74.5
X72.25Y-79.0
X72.25Y-85.5
X72.5Y-100.75
X72.5Y-107.25
X75.25Y-79.0
X75.25Y-85.5
X75.5Y-100.75
X75.5Y-107.25
X76.0Y-90.0
X76.0Y-96.5
X76.25Y-68.0
X76.25Y-74.5
X77.75Y-56.75
X77.75Y-63.25
X79.0Y-90.0
X79.0Y-96.5
X79.25Y-68.0
X79.25Y-74.5
X79.75Y-79.0
X79.75Y-85.5
X80.0Y-100.75
X80.0Y-107.25
X82.25Y-56.75
X82.25Y-63.25
X82.75Y-79.0
X82.75Y-85.5
X83.0Y-100.75
X83.0Y-107.25
X83.5Y-90.0
X83.5Y-96.5
X83.75Y-68.0
X83.75Y-74.5
X86.5Y-90.0
X86.5Y-96.5
X86.75Y-68.0
X86.75Y-74.5
X87.25Y-79.0
X87.25Y-85.5
X87.5Y-100.75
X87.5Y-107.25
X87.75Y-56.75
X87.75Y-63.25
X90.25Y-79.0
X90.25Y-85.5
X90.5Y-100.75
X90.5Y-107.25
X91.0Y-90.0
X91.0Y-96.5
X91.25Y-68.0
X91.25Y-74.5
X92.25Y-56.75
X92.25Y-63.25
X94.0Y-90.0
X94.0Y-96.5
X94.25Y-68.0
X94.25Y-74.5
X94.75Y-79.0
X94.75Y-85.5
X95.0Y-100.75
X95.0Y-107.25
X95.0Y-111.5
X95.0Y-118.0
X97.5Y-56.75
X97.5Y-63.25
X97.75Y-79.0
X97.75Y-85.5
X98.0Y-100.75
X98.0Y-107.25
X98.5Y-90.0
X98.5Y-96.5
X98.75Y-68.0
X98.75Y-74.5
X99.5Y-111.5
X99.5Y-118.0
X101.5Y-90.0
X101.5Y-96.5
X101.75Y-68.0
X101.75Y-74.5
X102.0Y-56.75
X102.0Y-63.25
X102.25Y-79.0
X102.25Y-85.5
X102.5Y-100.75
X102.5Y-107.25
X105.25Y-79.0
X105.25Y-85.5
X105.5Y-100.75
X105.5Y-107.25
X106.0Y-90.0
X106.0Y-96.5
X106.25Y-68.0
X106.25Y-74.5
X109.0Y-90.0
X109.0Y-96.5
X109.25Y-68.0
X109.25Y-74.5
X109.75Y-79.0
X109.75Y-85.5
X110.0Y-100.75
X110.0Y-107.25
X112.75Y-79.0
X112.75Y-85.5
X113.0Y-100.75
X113.0Y-107.25
X113.5Y-90.0
X113.5Y-96.5
X113.75Y-68.0
X113.75Y-74.5
X114.25Y-56.75
X114.25Y-63.25
X116.5Y-90.0
X116.5Y-96.5
X116.75Y-68.0
X116.75Y-74.5
X117.25Y-79.0
X117.25Y-85.5
X117.5Y-100.75
X117.5Y-107.25
X118.75Y-56.75
X118.75Y-63.25
X121.0Y-90.0
X121.0Y-96.5
X121.25Y-68.0
X121.25Y-74.5
X124.25Y-56.75
X124.25Y-63.25
X124.25Y-68.0
X124.25Y-74.5
X124.25Y-83.75
X124.25Y-90.25
X124.25Y-100.75
X124.25Y-107.25
X124.25Y-111.5
X124.25Y-118.0
X126.5Y-34.5
X126.5Y-41.0
X128.75Y-56.75
X128.75Y-63.25
X128.75Y-68.0
X128.75Y-74.5
X128.75Y-83.75
X128.75Y-90.25
X128.75Y-100.75
X128.75Y-107.25
X128.75Y-111.5
X128.75Y-118.0
X131.0Y-34.5
X131.0Y-41.0
T10
X93.35Y-4.53
X98.2Y-4.53
T11
X93.05Y-1.5
X98.5Y-1.5
T12
X5.0Y-5.0
X5.0Y-50.5
X26.5Y-118.5
X111.5Y-118.5
X129.5Y-4.88
X129.5Y-50.5
T3
G00X129.5Y-18.119
M15
G01X129.5Y-16.881
M16
G05
G00X129.5Y-21.119
M15
G01X129.5Y-19.881
M16
G05
G00X129.5Y-24.119
M15
G01X129.5Y-22.881
M16
G05
M30
