M48
; DRILL file {KiCad 7.0.10} date Wed Mar 20 06:37:12 2024
; FORMAT={-:-/ absolute / metric / decimal}
; #@! TF.CreationDate,2024-03-20T06:37:12+09:00
; #@! TF.GenerationSoftware,Kicad,Pcbnew,7.0.10
; #@! TF.FileFunction,MixedPlating,1,2
FMAT,2
METRIC
; #@! TA.AperFunction,Plated,PTH,ViaDrill
T1C0.400
; #@! TA.AperFunction,Plated,PTH,ComponentDrill
T2C1.000
%
G90
G05
T1
X102.0Y-55.5
X102.0Y-73.0
X102.0Y-94.5
X105.5Y-52.5
X106.0Y-92.5
X106.934Y-98.933
X108.5Y-74.5
X109.0Y-92.5
X109.5Y-56.5
X109.5Y-60.5
X115.824Y-54.864
X117.475Y-57.277
X118.364Y-58.928
X118.364Y-90.218
X119.253Y-87.678
X119.38Y-60.693
X120.015Y-93.345
X120.142Y-66.167
X120.142Y-86.36
X121.031Y-63.119
X121.031Y-85.138
X121.92Y-69.723
X121.92Y-83.82
X122.555Y-66.675
X122.936Y-82.598
X123.444Y-71.628
X123.444Y-81.407
X124.333Y-80.058
X124.46Y-70.231
X125.222Y-73.787
X125.222Y-78.74
X126.0Y-52.5
X126.365Y-72.39
X126.365Y-77.47
X126.5Y-80.0
X127.254Y-68.326
X127.495Y-77.424
X127.508Y-73.025
X128.143Y-78.74
X128.188Y-74.676
X128.397Y-65.024
X128.414Y-70.954
X128.638Y-80.01
X129.273Y-81.28
X129.794Y-93.345
X129.908Y-67.564
X129.957Y-82.533
X130.601Y-83.82
X131.051Y-64.77
X131.051Y-85.065
X131.572Y-62.357
X131.826Y-86.36
X132.588Y-61.468
X132.588Y-87.63
X133.223Y-96.393
X138.811Y-98.806
X139.827Y-54.991
X139.827Y-57.15
X139.827Y-59.69
X139.827Y-62.23
X144.0Y-63.5
X144.018Y-94.742
X144.5Y-52.5
X148.5Y-55.5
X149.0Y-76.5
T2
X112.5Y-57.198
X112.5Y-59.738
X112.5Y-62.278
X112.5Y-64.818
X112.5Y-67.358
X112.5Y-69.898
X112.5Y-72.438
X112.5Y-74.978
X112.5Y-77.518
X112.5Y-80.058
X112.5Y-82.598
X112.5Y-85.138
X112.5Y-87.678
X112.5Y-90.218
X112.5Y-92.758
X115.04Y-57.198
X115.04Y-59.738
X115.04Y-62.278
X115.04Y-64.818
X115.04Y-67.358
X115.04Y-69.898
X115.04Y-72.438
X115.04Y-74.978
X115.04Y-77.518
X115.04Y-80.058
X115.04Y-82.598
X115.04Y-85.138
X115.04Y-87.678
X115.04Y-90.218
X115.04Y-92.758
X134.96Y-57.218
X134.96Y-59.758
X134.96Y-62.298
X134.96Y-64.838
X134.96Y-67.378
X134.96Y-69.918
X134.96Y-72.458
X134.96Y-74.998
X134.96Y-77.538
X134.96Y-80.078
X134.96Y-82.618
X134.96Y-85.158
X134.96Y-87.698
X134.96Y-90.238
X134.96Y-92.778
X137.5Y-57.218
X137.5Y-59.758
X137.5Y-62.298
X137.5Y-64.838
X137.5Y-67.378
X137.5Y-69.918
X137.5Y-72.458
X137.5Y-74.998
X137.5Y-77.538
X137.5Y-80.078
X137.5Y-82.618
X137.5Y-85.158
X137.5Y-87.698
X137.5Y-90.238
X137.5Y-92.778
M30
