G04 #@! TF.GenerationSoftware,KiCad,Pcbnew,7.0.10*
G04 #@! TF.CreationDate,2024-03-20T06:36:53+09:00*
G04 #@! TF.ProjectId,m5stack_base,6d357374-6163-46b5-9f62-6173652e6b69,rev?*
G04 #@! TF.SameCoordinates,Original*
G04 #@! TF.FileFunction,Legend,Top*
G04 #@! TF.FilePolarity,Positive*
%FSLAX46Y46*%
G04 Gerber Fmt 4.6, Leading zero omitted, Abs format (unit mm)*
G04 Created by KiCad (PCBNEW 7.0.10) date 2024-03-20 06:36:53*
%MOMM*%
%LPD*%
G01*
G04 APERTURE LIST*
%ADD10C,0.150000*%
%ADD11C,0.100000*%
%ADD12C,0.120000*%
G04 APERTURE END LIST*
D10*
X132130969Y-89869819D02*
X131654779Y-89869819D01*
X131654779Y-89869819D02*
X131607160Y-90346009D01*
X131607160Y-90346009D02*
X131654779Y-90298390D01*
X131654779Y-90298390D02*
X131750017Y-90250771D01*
X131750017Y-90250771D02*
X131988112Y-90250771D01*
X131988112Y-90250771D02*
X132083350Y-90298390D01*
X132083350Y-90298390D02*
X132130969Y-90346009D01*
X132130969Y-90346009D02*
X132178588Y-90441247D01*
X132178588Y-90441247D02*
X132178588Y-90679342D01*
X132178588Y-90679342D02*
X132130969Y-90774580D01*
X132130969Y-90774580D02*
X132083350Y-90822200D01*
X132083350Y-90822200D02*
X131988112Y-90869819D01*
X131988112Y-90869819D02*
X131750017Y-90869819D01*
X131750017Y-90869819D02*
X131654779Y-90822200D01*
X131654779Y-90822200D02*
X131607160Y-90774580D01*
X132464303Y-89869819D02*
X132797636Y-90869819D01*
X132797636Y-90869819D02*
X133130969Y-89869819D01*
X130741541Y-69369819D02*
X131360588Y-69369819D01*
X131360588Y-69369819D02*
X131027255Y-69750771D01*
X131027255Y-69750771D02*
X131170112Y-69750771D01*
X131170112Y-69750771D02*
X131265350Y-69798390D01*
X131265350Y-69798390D02*
X131312969Y-69846009D01*
X131312969Y-69846009D02*
X131360588Y-69941247D01*
X131360588Y-69941247D02*
X131360588Y-70179342D01*
X131360588Y-70179342D02*
X131312969Y-70274580D01*
X131312969Y-70274580D02*
X131265350Y-70322200D01*
X131265350Y-70322200D02*
X131170112Y-70369819D01*
X131170112Y-70369819D02*
X130884398Y-70369819D01*
X130884398Y-70369819D02*
X130789160Y-70322200D01*
X130789160Y-70322200D02*
X130741541Y-70274580D01*
X131646303Y-69369819D02*
X131979636Y-70369819D01*
X131979636Y-70369819D02*
X132312969Y-69369819D01*
X132551065Y-69369819D02*
X133170112Y-69369819D01*
X133170112Y-69369819D02*
X132836779Y-69750771D01*
X132836779Y-69750771D02*
X132979636Y-69750771D01*
X132979636Y-69750771D02*
X133074874Y-69798390D01*
X133074874Y-69798390D02*
X133122493Y-69846009D01*
X133122493Y-69846009D02*
X133170112Y-69941247D01*
X133170112Y-69941247D02*
X133170112Y-70179342D01*
X133170112Y-70179342D02*
X133122493Y-70274580D01*
X133122493Y-70274580D02*
X133074874Y-70322200D01*
X133074874Y-70322200D02*
X132979636Y-70369819D01*
X132979636Y-70369819D02*
X132693922Y-70369819D01*
X132693922Y-70369819D02*
X132598684Y-70322200D01*
X132598684Y-70322200D02*
X132551065Y-70274580D01*
X120329887Y-57153990D02*
X120187030Y-57106371D01*
X120187030Y-57106371D02*
X120139411Y-57058752D01*
X120139411Y-57058752D02*
X120091792Y-56963514D01*
X120091792Y-56963514D02*
X120091792Y-56820657D01*
X120091792Y-56820657D02*
X120139411Y-56725419D01*
X120139411Y-56725419D02*
X120187030Y-56677800D01*
X120187030Y-56677800D02*
X120282268Y-56630180D01*
X120282268Y-56630180D02*
X120663220Y-56630180D01*
X120663220Y-56630180D02*
X120663220Y-57630180D01*
X120663220Y-57630180D02*
X120329887Y-57630180D01*
X120329887Y-57630180D02*
X120234649Y-57582561D01*
X120234649Y-57582561D02*
X120187030Y-57534942D01*
X120187030Y-57534942D02*
X120139411Y-57439704D01*
X120139411Y-57439704D02*
X120139411Y-57344466D01*
X120139411Y-57344466D02*
X120187030Y-57249228D01*
X120187030Y-57249228D02*
X120234649Y-57201609D01*
X120234649Y-57201609D02*
X120329887Y-57153990D01*
X120329887Y-57153990D02*
X120663220Y-57153990D01*
X119710839Y-56915895D02*
X119234649Y-56915895D01*
X119806077Y-56630180D02*
X119472744Y-57630180D01*
X119472744Y-57630180D02*
X119139411Y-56630180D01*
X118948934Y-57630180D02*
X118377506Y-57630180D01*
X118663220Y-56630180D02*
X118663220Y-57630180D01*
X131360588Y-56917438D02*
X131265350Y-56869819D01*
X131265350Y-56869819D02*
X131122493Y-56869819D01*
X131122493Y-56869819D02*
X130979636Y-56917438D01*
X130979636Y-56917438D02*
X130884398Y-57012676D01*
X130884398Y-57012676D02*
X130836779Y-57107914D01*
X130836779Y-57107914D02*
X130789160Y-57298390D01*
X130789160Y-57298390D02*
X130789160Y-57441247D01*
X130789160Y-57441247D02*
X130836779Y-57631723D01*
X130836779Y-57631723D02*
X130884398Y-57726961D01*
X130884398Y-57726961D02*
X130979636Y-57822200D01*
X130979636Y-57822200D02*
X131122493Y-57869819D01*
X131122493Y-57869819D02*
X131217731Y-57869819D01*
X131217731Y-57869819D02*
X131360588Y-57822200D01*
X131360588Y-57822200D02*
X131408207Y-57774580D01*
X131408207Y-57774580D02*
X131408207Y-57441247D01*
X131408207Y-57441247D02*
X131217731Y-57441247D01*
X131741541Y-56869819D02*
X132360588Y-56869819D01*
X132360588Y-56869819D02*
X132027255Y-57250771D01*
X132027255Y-57250771D02*
X132170112Y-57250771D01*
X132170112Y-57250771D02*
X132265350Y-57298390D01*
X132265350Y-57298390D02*
X132312969Y-57346009D01*
X132312969Y-57346009D02*
X132360588Y-57441247D01*
X132360588Y-57441247D02*
X132360588Y-57679342D01*
X132360588Y-57679342D02*
X132312969Y-57774580D01*
X132312969Y-57774580D02*
X132265350Y-57822200D01*
X132265350Y-57822200D02*
X132170112Y-57869819D01*
X132170112Y-57869819D02*
X131884398Y-57869819D01*
X131884398Y-57869819D02*
X131789160Y-57822200D01*
X131789160Y-57822200D02*
X131741541Y-57774580D01*
X133265350Y-56869819D02*
X132789160Y-56869819D01*
X132789160Y-56869819D02*
X132741541Y-57346009D01*
X132741541Y-57346009D02*
X132789160Y-57298390D01*
X132789160Y-57298390D02*
X132884398Y-57250771D01*
X132884398Y-57250771D02*
X133122493Y-57250771D01*
X133122493Y-57250771D02*
X133217731Y-57298390D01*
X133217731Y-57298390D02*
X133265350Y-57346009D01*
X133265350Y-57346009D02*
X133312969Y-57441247D01*
X133312969Y-57441247D02*
X133312969Y-57679342D01*
X133312969Y-57679342D02*
X133265350Y-57774580D01*
X133265350Y-57774580D02*
X133217731Y-57822200D01*
X133217731Y-57822200D02*
X133122493Y-57869819D01*
X133122493Y-57869819D02*
X132884398Y-57869819D01*
X132884398Y-57869819D02*
X132789160Y-57822200D01*
X132789160Y-57822200D02*
X132741541Y-57774580D01*
X117551030Y-60693180D02*
X118027220Y-60693180D01*
X118027220Y-60693180D02*
X118074839Y-60216990D01*
X118074839Y-60216990D02*
X118027220Y-60264609D01*
X118027220Y-60264609D02*
X117931982Y-60312228D01*
X117931982Y-60312228D02*
X117693887Y-60312228D01*
X117693887Y-60312228D02*
X117598649Y-60264609D01*
X117598649Y-60264609D02*
X117551030Y-60216990D01*
X117551030Y-60216990D02*
X117503411Y-60121752D01*
X117503411Y-60121752D02*
X117503411Y-59883657D01*
X117503411Y-59883657D02*
X117551030Y-59788419D01*
X117551030Y-59788419D02*
X117598649Y-59740800D01*
X117598649Y-59740800D02*
X117693887Y-59693180D01*
X117693887Y-59693180D02*
X117931982Y-59693180D01*
X117931982Y-59693180D02*
X118027220Y-59740800D01*
X118027220Y-59740800D02*
X118074839Y-59788419D01*
X117217696Y-60693180D02*
X116884363Y-59693180D01*
X116884363Y-59693180D02*
X116551030Y-60693180D01*
X131170112Y-92846009D02*
X131312969Y-92893628D01*
X131312969Y-92893628D02*
X131360588Y-92941247D01*
X131360588Y-92941247D02*
X131408207Y-93036485D01*
X131408207Y-93036485D02*
X131408207Y-93179342D01*
X131408207Y-93179342D02*
X131360588Y-93274580D01*
X131360588Y-93274580D02*
X131312969Y-93322200D01*
X131312969Y-93322200D02*
X131217731Y-93369819D01*
X131217731Y-93369819D02*
X130836779Y-93369819D01*
X130836779Y-93369819D02*
X130836779Y-92369819D01*
X130836779Y-92369819D02*
X131170112Y-92369819D01*
X131170112Y-92369819D02*
X131265350Y-92417438D01*
X131265350Y-92417438D02*
X131312969Y-92465057D01*
X131312969Y-92465057D02*
X131360588Y-92560295D01*
X131360588Y-92560295D02*
X131360588Y-92655533D01*
X131360588Y-92655533D02*
X131312969Y-92750771D01*
X131312969Y-92750771D02*
X131265350Y-92798390D01*
X131265350Y-92798390D02*
X131170112Y-92846009D01*
X131170112Y-92846009D02*
X130836779Y-92846009D01*
X131789160Y-93084104D02*
X132265350Y-93084104D01*
X131693922Y-93369819D02*
X132027255Y-92369819D01*
X132027255Y-92369819D02*
X132360588Y-93369819D01*
X132551065Y-92369819D02*
X133122493Y-92369819D01*
X132836779Y-93369819D02*
X132836779Y-92369819D01*
X119258458Y-80630180D02*
X118639411Y-80630180D01*
X118639411Y-80630180D02*
X118972744Y-80249228D01*
X118972744Y-80249228D02*
X118829887Y-80249228D01*
X118829887Y-80249228D02*
X118734649Y-80201609D01*
X118734649Y-80201609D02*
X118687030Y-80153990D01*
X118687030Y-80153990D02*
X118639411Y-80058752D01*
X118639411Y-80058752D02*
X118639411Y-79820657D01*
X118639411Y-79820657D02*
X118687030Y-79725419D01*
X118687030Y-79725419D02*
X118734649Y-79677800D01*
X118734649Y-79677800D02*
X118829887Y-79630180D01*
X118829887Y-79630180D02*
X119115601Y-79630180D01*
X119115601Y-79630180D02*
X119210839Y-79677800D01*
X119210839Y-79677800D02*
X119258458Y-79725419D01*
X118353696Y-80630180D02*
X118020363Y-79630180D01*
X118020363Y-79630180D02*
X117687030Y-80630180D01*
X117448934Y-80630180D02*
X116829887Y-80630180D01*
X116829887Y-80630180D02*
X117163220Y-80249228D01*
X117163220Y-80249228D02*
X117020363Y-80249228D01*
X117020363Y-80249228D02*
X116925125Y-80201609D01*
X116925125Y-80201609D02*
X116877506Y-80153990D01*
X116877506Y-80153990D02*
X116829887Y-80058752D01*
X116829887Y-80058752D02*
X116829887Y-79820657D01*
X116829887Y-79820657D02*
X116877506Y-79725419D01*
X116877506Y-79725419D02*
X116925125Y-79677800D01*
X116925125Y-79677800D02*
X117020363Y-79630180D01*
X117020363Y-79630180D02*
X117306077Y-79630180D01*
X117306077Y-79630180D02*
X117401315Y-79677800D01*
X117401315Y-79677800D02*
X117448934Y-79725419D01*
X121139411Y-90582561D02*
X121234649Y-90630180D01*
X121234649Y-90630180D02*
X121377506Y-90630180D01*
X121377506Y-90630180D02*
X121520363Y-90582561D01*
X121520363Y-90582561D02*
X121615601Y-90487323D01*
X121615601Y-90487323D02*
X121663220Y-90392085D01*
X121663220Y-90392085D02*
X121710839Y-90201609D01*
X121710839Y-90201609D02*
X121710839Y-90058752D01*
X121710839Y-90058752D02*
X121663220Y-89868276D01*
X121663220Y-89868276D02*
X121615601Y-89773038D01*
X121615601Y-89773038D02*
X121520363Y-89677800D01*
X121520363Y-89677800D02*
X121377506Y-89630180D01*
X121377506Y-89630180D02*
X121282268Y-89630180D01*
X121282268Y-89630180D02*
X121139411Y-89677800D01*
X121139411Y-89677800D02*
X121091792Y-89725419D01*
X121091792Y-89725419D02*
X121091792Y-90058752D01*
X121091792Y-90058752D02*
X121282268Y-90058752D01*
X120758458Y-90630180D02*
X120139411Y-90630180D01*
X120139411Y-90630180D02*
X120472744Y-90249228D01*
X120472744Y-90249228D02*
X120329887Y-90249228D01*
X120329887Y-90249228D02*
X120234649Y-90201609D01*
X120234649Y-90201609D02*
X120187030Y-90153990D01*
X120187030Y-90153990D02*
X120139411Y-90058752D01*
X120139411Y-90058752D02*
X120139411Y-89820657D01*
X120139411Y-89820657D02*
X120187030Y-89725419D01*
X120187030Y-89725419D02*
X120234649Y-89677800D01*
X120234649Y-89677800D02*
X120329887Y-89630180D01*
X120329887Y-89630180D02*
X120615601Y-89630180D01*
X120615601Y-89630180D02*
X120710839Y-89677800D01*
X120710839Y-89677800D02*
X120758458Y-89725419D01*
X119282268Y-90630180D02*
X119472744Y-90630180D01*
X119472744Y-90630180D02*
X119567982Y-90582561D01*
X119567982Y-90582561D02*
X119615601Y-90534942D01*
X119615601Y-90534942D02*
X119710839Y-90392085D01*
X119710839Y-90392085D02*
X119758458Y-90201609D01*
X119758458Y-90201609D02*
X119758458Y-89820657D01*
X119758458Y-89820657D02*
X119710839Y-89725419D01*
X119710839Y-89725419D02*
X119663220Y-89677800D01*
X119663220Y-89677800D02*
X119567982Y-89630180D01*
X119567982Y-89630180D02*
X119377506Y-89630180D01*
X119377506Y-89630180D02*
X119282268Y-89677800D01*
X119282268Y-89677800D02*
X119234649Y-89725419D01*
X119234649Y-89725419D02*
X119187030Y-89820657D01*
X119187030Y-89820657D02*
X119187030Y-90058752D01*
X119187030Y-90058752D02*
X119234649Y-90153990D01*
X119234649Y-90153990D02*
X119282268Y-90201609D01*
X119282268Y-90201609D02*
X119377506Y-90249228D01*
X119377506Y-90249228D02*
X119567982Y-90249228D01*
X119567982Y-90249228D02*
X119663220Y-90201609D01*
X119663220Y-90201609D02*
X119710839Y-90153990D01*
X119710839Y-90153990D02*
X119758458Y-90058752D01*
G36*
X104337027Y-64593789D02*
G01*
X104352573Y-64594132D01*
X104367828Y-64595163D01*
X104382791Y-64596880D01*
X104397462Y-64599284D01*
X104411840Y-64602375D01*
X104425927Y-64606154D01*
X104439722Y-64610619D01*
X104453225Y-64615771D01*
X104466436Y-64621610D01*
X104479355Y-64628135D01*
X104491983Y-64635348D01*
X104504318Y-64643248D01*
X104516361Y-64651835D01*
X104528112Y-64661108D01*
X104539572Y-64671069D01*
X104550739Y-64681716D01*
X104561446Y-64692937D01*
X104571462Y-64704435D01*
X104580787Y-64716209D01*
X104589421Y-64728260D01*
X104597365Y-64740587D01*
X104604618Y-64753192D01*
X104611180Y-64766073D01*
X104617051Y-64779230D01*
X104622232Y-64792664D01*
X104626722Y-64806375D01*
X104630521Y-64820363D01*
X104633629Y-64834627D01*
X104636047Y-64849169D01*
X104637774Y-64863986D01*
X104638810Y-64879081D01*
X104639155Y-64894452D01*
X104639155Y-65687997D01*
X104389050Y-65687997D01*
X104389050Y-65030983D01*
X104388561Y-65017640D01*
X104387093Y-65005086D01*
X104384645Y-64993322D01*
X104381219Y-64982349D01*
X104376814Y-64972165D01*
X104371431Y-64962771D01*
X104365068Y-64954167D01*
X104357726Y-64946353D01*
X104349406Y-64939329D01*
X104340106Y-64933095D01*
X104333363Y-64929378D01*
X104322764Y-64925363D01*
X104311756Y-64921742D01*
X104300341Y-64918516D01*
X104288518Y-64915686D01*
X104276287Y-64913250D01*
X104263648Y-64911209D01*
X104250601Y-64909563D01*
X104237147Y-64908312D01*
X104223284Y-64907457D01*
X104209014Y-64906996D01*
X104199274Y-64906908D01*
X104109392Y-64906908D01*
X104094981Y-64907106D01*
X104080965Y-64907698D01*
X104067343Y-64908686D01*
X104054117Y-64910068D01*
X104041286Y-64911845D01*
X104028849Y-64914018D01*
X104016808Y-64916585D01*
X104005162Y-64919548D01*
X103993910Y-64922905D01*
X103983054Y-64926657D01*
X103976036Y-64929378D01*
X103966040Y-64935086D01*
X103957028Y-64941583D01*
X103948999Y-64948870D01*
X103941952Y-64956947D01*
X103935890Y-64965814D01*
X103930810Y-64975472D01*
X103926713Y-64985919D01*
X103923600Y-64997156D01*
X103921470Y-65009183D01*
X103920323Y-65022000D01*
X103920104Y-65030983D01*
X103920104Y-65687997D01*
X103670000Y-65687997D01*
X103670000Y-64894452D01*
X103670345Y-64879081D01*
X103671381Y-64863986D01*
X103673108Y-64849169D01*
X103675525Y-64834627D01*
X103678634Y-64820363D01*
X103682433Y-64806375D01*
X103686923Y-64792664D01*
X103692103Y-64779230D01*
X103697975Y-64766073D01*
X103704537Y-64753192D01*
X103711790Y-64740587D01*
X103719733Y-64728260D01*
X103728368Y-64716209D01*
X103737693Y-64704435D01*
X103747709Y-64692937D01*
X103758415Y-64681716D01*
X103769580Y-64671069D01*
X103781031Y-64661108D01*
X103792768Y-64651835D01*
X103804791Y-64643248D01*
X103817100Y-64635348D01*
X103829696Y-64628135D01*
X103842578Y-64621610D01*
X103855746Y-64615771D01*
X103869201Y-64610619D01*
X103882941Y-64606154D01*
X103896968Y-64602375D01*
X103911281Y-64599284D01*
X103925880Y-64596880D01*
X103940766Y-64595163D01*
X103955937Y-64594132D01*
X103971395Y-64593789D01*
X104337027Y-64593789D01*
G37*
G36*
X104123633Y-65868997D02*
G01*
X104135213Y-65869778D01*
X104146576Y-65871081D01*
X104157722Y-65872904D01*
X104168650Y-65875248D01*
X104179360Y-65878113D01*
X104189853Y-65881499D01*
X104200129Y-65885406D01*
X104210186Y-65889834D01*
X104220027Y-65894783D01*
X104229650Y-65900252D01*
X104239055Y-65906243D01*
X104248243Y-65912755D01*
X104257213Y-65919787D01*
X104265965Y-65927340D01*
X104274501Y-65935415D01*
X104282693Y-65943828D01*
X104290357Y-65952458D01*
X104297493Y-65961306D01*
X104304100Y-65970372D01*
X104310178Y-65979655D01*
X104315728Y-65989156D01*
X104320749Y-65998874D01*
X104325242Y-66008810D01*
X104329206Y-66018963D01*
X104332642Y-66029334D01*
X104335549Y-66039922D01*
X104337927Y-66050728D01*
X104339777Y-66061751D01*
X104341099Y-66072992D01*
X104341892Y-66084451D01*
X104342156Y-66096127D01*
X104342156Y-66626622D01*
X104341892Y-66638268D01*
X104341099Y-66649699D01*
X104339777Y-66660914D01*
X104337927Y-66671914D01*
X104335549Y-66682698D01*
X104332642Y-66693266D01*
X104329206Y-66703619D01*
X104325242Y-66713756D01*
X104320749Y-66723677D01*
X104315728Y-66733383D01*
X104310178Y-66742873D01*
X104304100Y-66752148D01*
X104297493Y-66761206D01*
X104290357Y-66770050D01*
X104282693Y-66778677D01*
X104274501Y-66787090D01*
X104265965Y-66795193D01*
X104257213Y-66802774D01*
X104248243Y-66809833D01*
X104239055Y-66816368D01*
X104229650Y-66822381D01*
X104220027Y-66827870D01*
X104210186Y-66832837D01*
X104200129Y-66837281D01*
X104189853Y-66841203D01*
X104179360Y-66844601D01*
X104168650Y-66847477D01*
X104157722Y-66849829D01*
X104146576Y-66851659D01*
X104135213Y-66852966D01*
X104123633Y-66853751D01*
X104111835Y-66854012D01*
X103900321Y-66854012D01*
X103888522Y-66853751D01*
X103876942Y-66852966D01*
X103865579Y-66851659D01*
X103854433Y-66849829D01*
X103843505Y-66847477D01*
X103832795Y-66844601D01*
X103822302Y-66841203D01*
X103812027Y-66837281D01*
X103801969Y-66832837D01*
X103792129Y-66827870D01*
X103782506Y-66822381D01*
X103773101Y-66816368D01*
X103763913Y-66809833D01*
X103754943Y-66802774D01*
X103746190Y-66795193D01*
X103737655Y-66787090D01*
X103729462Y-66778677D01*
X103721798Y-66770050D01*
X103714663Y-66761206D01*
X103708056Y-66752148D01*
X103701977Y-66742873D01*
X103696427Y-66733383D01*
X103691406Y-66723677D01*
X103686913Y-66713756D01*
X103682949Y-66703619D01*
X103679514Y-66693266D01*
X103676606Y-66682698D01*
X103674228Y-66671914D01*
X103672378Y-66660914D01*
X103671057Y-66649699D01*
X103670264Y-66638268D01*
X103670000Y-66626622D01*
X103670000Y-66456385D01*
X103861730Y-66456385D01*
X103862601Y-66467209D01*
X103865213Y-66477699D01*
X103869565Y-66487855D01*
X103875660Y-66497677D01*
X103881789Y-66505294D01*
X103889032Y-66512698D01*
X103897390Y-66519888D01*
X103906476Y-66524811D01*
X103916028Y-66529077D01*
X103926046Y-66532688D01*
X103936530Y-66535642D01*
X103947478Y-66537939D01*
X103958893Y-66539580D01*
X103970773Y-66540565D01*
X103983119Y-66540893D01*
X104029525Y-66540893D01*
X104041924Y-66540565D01*
X104053842Y-66539580D01*
X104065280Y-66537939D01*
X104076236Y-66535642D01*
X104086712Y-66532688D01*
X104096707Y-66529077D01*
X104106221Y-66524811D01*
X104115254Y-66519888D01*
X104123497Y-66512698D01*
X104130642Y-66505294D01*
X104138026Y-66495739D01*
X104143693Y-66485850D01*
X104147643Y-66475627D01*
X104149876Y-66465071D01*
X104150425Y-66456385D01*
X104150425Y-66266852D01*
X104149567Y-66255899D01*
X104146991Y-66245328D01*
X104142697Y-66235139D01*
X104136687Y-66225331D01*
X104128959Y-66215905D01*
X104121540Y-66208639D01*
X104115254Y-66203349D01*
X104106221Y-66198312D01*
X104096707Y-66193946D01*
X104086712Y-66190252D01*
X104076236Y-66187229D01*
X104065280Y-66184878D01*
X104053842Y-66183199D01*
X104041924Y-66182192D01*
X104029525Y-66181856D01*
X103983119Y-66181856D01*
X103970773Y-66182192D01*
X103958893Y-66183199D01*
X103947478Y-66184878D01*
X103936530Y-66187229D01*
X103926046Y-66190252D01*
X103916028Y-66193946D01*
X103906476Y-66198312D01*
X103897390Y-66203349D01*
X103889032Y-66210432D01*
X103881789Y-66217759D01*
X103874301Y-66227262D01*
X103868556Y-66237146D01*
X103864551Y-66247412D01*
X103862287Y-66258060D01*
X103861730Y-66266852D01*
X103861730Y-66456385D01*
X103670000Y-66456385D01*
X103670000Y-66096127D01*
X103670264Y-66084451D01*
X103671057Y-66072992D01*
X103672378Y-66061751D01*
X103674228Y-66050728D01*
X103676606Y-66039922D01*
X103679514Y-66029334D01*
X103682949Y-66018963D01*
X103686913Y-66008810D01*
X103691406Y-65998874D01*
X103696427Y-65989156D01*
X103701977Y-65979655D01*
X103708056Y-65970372D01*
X103714663Y-65961306D01*
X103721798Y-65952458D01*
X103729462Y-65943828D01*
X103737655Y-65935415D01*
X103746190Y-65927340D01*
X103754943Y-65919787D01*
X103763913Y-65912755D01*
X103773101Y-65906243D01*
X103782506Y-65900252D01*
X103792129Y-65894783D01*
X103801969Y-65889834D01*
X103812027Y-65885406D01*
X103822302Y-65881499D01*
X103832795Y-65878113D01*
X103843505Y-65875248D01*
X103854433Y-65872904D01*
X103865579Y-65871081D01*
X103876942Y-65869778D01*
X103888522Y-65868997D01*
X103900321Y-65868736D01*
X104111835Y-65868736D01*
X104123633Y-65868997D01*
G37*
G36*
X104079644Y-67036530D02*
G01*
X104093593Y-67037469D01*
X104107274Y-67039034D01*
X104120689Y-67041224D01*
X104133836Y-67044041D01*
X104146716Y-67047483D01*
X104159329Y-67051551D01*
X104171674Y-67056245D01*
X104183753Y-67061565D01*
X104195564Y-67067511D01*
X104207109Y-67074082D01*
X104218386Y-67081280D01*
X104229396Y-67089103D01*
X104240139Y-67097553D01*
X104250614Y-67106628D01*
X104260823Y-67116329D01*
X104270672Y-67126501D01*
X104279885Y-67136929D01*
X104288463Y-67147613D01*
X104296406Y-67158552D01*
X104303713Y-67169747D01*
X104310385Y-67181198D01*
X104316422Y-67192905D01*
X104321823Y-67204867D01*
X104326588Y-67217085D01*
X104330718Y-67229558D01*
X104334213Y-67242288D01*
X104337073Y-67255273D01*
X104339296Y-67268513D01*
X104340885Y-67282009D01*
X104341838Y-67295762D01*
X104342156Y-67309769D01*
X104342156Y-67791905D01*
X104341890Y-67803643D01*
X104341091Y-67815165D01*
X104339760Y-67826472D01*
X104337897Y-67837563D01*
X104335501Y-67848438D01*
X104332573Y-67859098D01*
X104329113Y-67869542D01*
X104325120Y-67879771D01*
X104320595Y-67889784D01*
X104315537Y-67899581D01*
X104309947Y-67909163D01*
X104303825Y-67918529D01*
X104297170Y-67927680D01*
X104289983Y-67936615D01*
X104282264Y-67945334D01*
X104274012Y-67953838D01*
X104265357Y-67962030D01*
X104256488Y-67969694D01*
X104247405Y-67976830D01*
X104238108Y-67983437D01*
X104228598Y-67989515D01*
X104218874Y-67995065D01*
X104208937Y-68000086D01*
X104198785Y-68004579D01*
X104188420Y-68008543D01*
X104177841Y-68011979D01*
X104167049Y-68014886D01*
X104156043Y-68017264D01*
X104144823Y-68019114D01*
X104133389Y-68020436D01*
X104121742Y-68021229D01*
X104109881Y-68021493D01*
X103902274Y-68021493D01*
X103890328Y-68021230D01*
X103878610Y-68020440D01*
X103867118Y-68019123D01*
X103855853Y-68017280D01*
X103844815Y-68014910D01*
X103834005Y-68012013D01*
X103823421Y-68008590D01*
X103813065Y-68004640D01*
X103802935Y-68000164D01*
X103793033Y-67995160D01*
X103783358Y-67989631D01*
X103773910Y-67983574D01*
X103764688Y-67976991D01*
X103755694Y-67969881D01*
X103746927Y-67962245D01*
X103738387Y-67954082D01*
X103730106Y-67945550D01*
X103722359Y-67936805D01*
X103715146Y-67927850D01*
X103708468Y-67918682D01*
X103702324Y-67909302D01*
X103696714Y-67899711D01*
X103691638Y-67889908D01*
X103687096Y-67879893D01*
X103683089Y-67869666D01*
X103679617Y-67859228D01*
X103676678Y-67848578D01*
X103674274Y-67837715D01*
X103672404Y-67826641D01*
X103671068Y-67815356D01*
X103670267Y-67803858D01*
X103670000Y-67792149D01*
X103670000Y-67587718D01*
X103861730Y-67587718D01*
X103862318Y-67600056D01*
X103864081Y-67611913D01*
X103867020Y-67623289D01*
X103871133Y-67634185D01*
X103876423Y-67644599D01*
X103882888Y-67654533D01*
X103890528Y-67663986D01*
X103899344Y-67672958D01*
X103908747Y-67681259D01*
X103918639Y-67688452D01*
X103929019Y-67694539D01*
X103939888Y-67699520D01*
X103951245Y-67703393D01*
X103963091Y-67706160D01*
X103975425Y-67707820D01*
X103988248Y-67708374D01*
X104024396Y-67708374D01*
X104037222Y-67707820D01*
X104049568Y-67706160D01*
X104061433Y-67703393D01*
X104072817Y-67699520D01*
X104083720Y-67694539D01*
X104094142Y-67688452D01*
X104104084Y-67681259D01*
X104113545Y-67672958D01*
X104122188Y-67663986D01*
X104129680Y-67654533D01*
X104136019Y-67644599D01*
X104141205Y-67634185D01*
X104145239Y-67623289D01*
X104148120Y-67611913D01*
X104149849Y-67600056D01*
X104150425Y-67587718D01*
X104150425Y-67513956D01*
X104150284Y-67503857D01*
X104149860Y-67494077D01*
X104148695Y-67480004D01*
X104146895Y-67466648D01*
X104144459Y-67454010D01*
X104141388Y-67442088D01*
X104137682Y-67430883D01*
X104133340Y-67420395D01*
X104128362Y-67410624D01*
X104122749Y-67401570D01*
X104116501Y-67393233D01*
X104114277Y-67390614D01*
X104106362Y-67380939D01*
X104097150Y-67372555D01*
X104086640Y-67365460D01*
X104077906Y-67360986D01*
X104068442Y-67357237D01*
X104058248Y-67354214D01*
X104047324Y-67351916D01*
X104035671Y-67350344D01*
X104023287Y-67349498D01*
X104014626Y-67349337D01*
X103998262Y-67349337D01*
X103987758Y-67349757D01*
X103977494Y-67351020D01*
X103967470Y-67353123D01*
X103957687Y-67356068D01*
X103948144Y-67359855D01*
X103938842Y-67364483D01*
X103929780Y-67369953D01*
X103920959Y-67376264D01*
X103912378Y-67383417D01*
X103904038Y-67391411D01*
X103898611Y-67397208D01*
X103892020Y-67406452D01*
X103886077Y-67416047D01*
X103880783Y-67425995D01*
X103876137Y-67436295D01*
X103872139Y-67446946D01*
X103868789Y-67457950D01*
X103866088Y-67469306D01*
X103864035Y-67481014D01*
X103862631Y-67493074D01*
X103861874Y-67505486D01*
X103861730Y-67513956D01*
X103861730Y-67587718D01*
X103670000Y-67587718D01*
X103670000Y-67514445D01*
X103670213Y-67502952D01*
X103670854Y-67491616D01*
X103671923Y-67480436D01*
X103673419Y-67469412D01*
X103675342Y-67458546D01*
X103677693Y-67447835D01*
X103680471Y-67437281D01*
X103683677Y-67426884D01*
X103687310Y-67416643D01*
X103691371Y-67406558D01*
X103695859Y-67396630D01*
X103700774Y-67386858D01*
X103706117Y-67377243D01*
X103711887Y-67367785D01*
X103718085Y-67358482D01*
X103724710Y-67349337D01*
X103380816Y-67349337D01*
X103380816Y-67036217D01*
X104065429Y-67036217D01*
X104079644Y-67036530D01*
G37*
G36*
X104342156Y-68875854D02*
G01*
X104342156Y-69188974D01*
X103603810Y-69188974D01*
X103591922Y-69188709D01*
X103580256Y-69187917D01*
X103568810Y-69186595D01*
X103557587Y-69184745D01*
X103546584Y-69182367D01*
X103535803Y-69179460D01*
X103525244Y-69176024D01*
X103514905Y-69172060D01*
X103504788Y-69167567D01*
X103494893Y-69162546D01*
X103485218Y-69156996D01*
X103475765Y-69150918D01*
X103466534Y-69144311D01*
X103457523Y-69137175D01*
X103448735Y-69129511D01*
X103440167Y-69121318D01*
X103432034Y-69112816D01*
X103424425Y-69104099D01*
X103417341Y-69095169D01*
X103410782Y-69086025D01*
X103404747Y-69076668D01*
X103399237Y-69067096D01*
X103394252Y-69057312D01*
X103389792Y-69047313D01*
X103385856Y-69037100D01*
X103382446Y-69026674D01*
X103379559Y-69016034D01*
X103377198Y-69005181D01*
X103375362Y-68994114D01*
X103374050Y-68982833D01*
X103373263Y-68971338D01*
X103373000Y-68959630D01*
X103373000Y-68257676D01*
X103564731Y-68257676D01*
X103564731Y-68754954D01*
X103565280Y-68767136D01*
X103566929Y-68778890D01*
X103569677Y-68790217D01*
X103573524Y-68801116D01*
X103578469Y-68811588D01*
X103584515Y-68821632D01*
X103591659Y-68831250D01*
X103599902Y-68840439D01*
X103608744Y-68848740D01*
X103618052Y-68855933D01*
X103627826Y-68862020D01*
X103638065Y-68867001D01*
X103648769Y-68870874D01*
X103659940Y-68873641D01*
X103671576Y-68875301D01*
X103683677Y-68875854D01*
X103726664Y-68875854D01*
X103719802Y-68866623D01*
X103713383Y-68857246D01*
X103707407Y-68847724D01*
X103701873Y-68838058D01*
X103696782Y-68828246D01*
X103692134Y-68818289D01*
X103687928Y-68808188D01*
X103684166Y-68797941D01*
X103680845Y-68787549D01*
X103677968Y-68777012D01*
X103675533Y-68766331D01*
X103673541Y-68755504D01*
X103671992Y-68744532D01*
X103670885Y-68733415D01*
X103670221Y-68722153D01*
X103670000Y-68710746D01*
X103670000Y-68432798D01*
X103670266Y-68421088D01*
X103671064Y-68409591D01*
X103672395Y-68398305D01*
X103674258Y-68387231D01*
X103676654Y-68376369D01*
X103679582Y-68365719D01*
X103683043Y-68355280D01*
X103687035Y-68345054D01*
X103691561Y-68335039D01*
X103696618Y-68325236D01*
X103702208Y-68315644D01*
X103708330Y-68306265D01*
X103714985Y-68297097D01*
X103722172Y-68288141D01*
X103729891Y-68279397D01*
X103738143Y-68270865D01*
X103746713Y-68262731D01*
X103755507Y-68255123D01*
X103764527Y-68248039D01*
X103773772Y-68241479D01*
X103783242Y-68235445D01*
X103792938Y-68229935D01*
X103802858Y-68224950D01*
X103813004Y-68220490D01*
X103823374Y-68216554D01*
X103833970Y-68213143D01*
X103844792Y-68210257D01*
X103855838Y-68207896D01*
X103867109Y-68206059D01*
X103878606Y-68204748D01*
X103890328Y-68203960D01*
X103902274Y-68203698D01*
X104342156Y-68203698D01*
X104342156Y-68516817D01*
X103985073Y-68516817D01*
X103972548Y-68517375D01*
X103960496Y-68519046D01*
X103948917Y-68521832D01*
X103937812Y-68525732D01*
X103927180Y-68530747D01*
X103917021Y-68536876D01*
X103907335Y-68544119D01*
X103898122Y-68552477D01*
X103889593Y-68561560D01*
X103882201Y-68571100D01*
X103875946Y-68581099D01*
X103870828Y-68591556D01*
X103866848Y-68602470D01*
X103864005Y-68613843D01*
X103862299Y-68625673D01*
X103861730Y-68637962D01*
X103861730Y-68711479D01*
X103861983Y-68724080D01*
X103862743Y-68736329D01*
X103864010Y-68748226D01*
X103865783Y-68759770D01*
X103868063Y-68770963D01*
X103870849Y-68781804D01*
X103874142Y-68792292D01*
X103877942Y-68802429D01*
X103882248Y-68812213D01*
X103887061Y-68821646D01*
X103890551Y-68827739D01*
X103898604Y-68836337D01*
X103907009Y-68844090D01*
X103915766Y-68850998D01*
X103924875Y-68857059D01*
X103934336Y-68862275D01*
X103944149Y-68866645D01*
X103954314Y-68870169D01*
X103964831Y-68872847D01*
X103975700Y-68874680D01*
X103986922Y-68875666D01*
X103994598Y-68875854D01*
X104342156Y-68875854D01*
G37*
G36*
X104111835Y-69371179D02*
G01*
X104123633Y-69371441D01*
X104135213Y-69372228D01*
X104146576Y-69373540D01*
X104157722Y-69375377D01*
X104168650Y-69377738D01*
X104179360Y-69380624D01*
X104189853Y-69384035D01*
X104200129Y-69387971D01*
X104210186Y-69392431D01*
X104220027Y-69397416D01*
X104229650Y-69402926D01*
X104239055Y-69408960D01*
X104248243Y-69415519D01*
X104257213Y-69422603D01*
X104265965Y-69430212D01*
X104274501Y-69438346D01*
X104282693Y-69446849D01*
X104290357Y-69455569D01*
X104297493Y-69464503D01*
X104304100Y-69473654D01*
X104310178Y-69483020D01*
X104315728Y-69492602D01*
X104320749Y-69502399D01*
X104325242Y-69512412D01*
X104329206Y-69522641D01*
X104332642Y-69533085D01*
X104335549Y-69543745D01*
X104337927Y-69554620D01*
X104339777Y-69565712D01*
X104341099Y-69577018D01*
X104341892Y-69588541D01*
X104342156Y-69600279D01*
X104342156Y-70168387D01*
X104150425Y-70168387D01*
X104150425Y-69804466D01*
X104149876Y-69792341D01*
X104148227Y-69780637D01*
X104145479Y-69769352D01*
X104141632Y-69758487D01*
X104136687Y-69748042D01*
X104130642Y-69738016D01*
X104123497Y-69728411D01*
X104115254Y-69719225D01*
X104106274Y-69711039D01*
X104096799Y-69703944D01*
X104086827Y-69697941D01*
X104076359Y-69693030D01*
X104065394Y-69689210D01*
X104053934Y-69686481D01*
X104041978Y-69684844D01*
X104029525Y-69684298D01*
X103670000Y-69684298D01*
X103670000Y-69371179D01*
X104111835Y-69371179D01*
G37*
G36*
X104342156Y-70261200D02*
G01*
X104342156Y-70574319D01*
X103670000Y-70574319D01*
X103670000Y-70261200D01*
X104342156Y-70261200D01*
G37*
G36*
X104639155Y-70261200D02*
G01*
X104639155Y-70574319D01*
X104420314Y-70574319D01*
X104420314Y-70261200D01*
X104639155Y-70261200D01*
G37*
G36*
X104121499Y-70766557D02*
G01*
X104133149Y-70767347D01*
X104144587Y-70768664D01*
X104155814Y-70770507D01*
X104166829Y-70772877D01*
X104177632Y-70775774D01*
X104188223Y-70779197D01*
X104198602Y-70783147D01*
X104208770Y-70787623D01*
X104218725Y-70792626D01*
X104228469Y-70798156D01*
X104238002Y-70804213D01*
X104247322Y-70810796D01*
X104256430Y-70817906D01*
X104265327Y-70825542D01*
X104274012Y-70833705D01*
X104282264Y-70842209D01*
X104289983Y-70850928D01*
X104297170Y-70859863D01*
X104303825Y-70869013D01*
X104309947Y-70878380D01*
X104315537Y-70887961D01*
X104320595Y-70897759D01*
X104325120Y-70907772D01*
X104329113Y-70918000D01*
X104332573Y-70928445D01*
X104335501Y-70939104D01*
X104337897Y-70949980D01*
X104339760Y-70961071D01*
X104341091Y-70972378D01*
X104341890Y-70983900D01*
X104342156Y-70995638D01*
X104342156Y-71477773D01*
X104341840Y-71491781D01*
X104340893Y-71505533D01*
X104339314Y-71519029D01*
X104337103Y-71532270D01*
X104334261Y-71545255D01*
X104330787Y-71557984D01*
X104326682Y-71570458D01*
X104321945Y-71582676D01*
X104316576Y-71594638D01*
X104310576Y-71606344D01*
X104303944Y-71617795D01*
X104296681Y-71628990D01*
X104288786Y-71639930D01*
X104280259Y-71650613D01*
X104271101Y-71661041D01*
X104261311Y-71671214D01*
X104251166Y-71680944D01*
X104240757Y-71690047D01*
X104230085Y-71698522D01*
X104219149Y-71706369D01*
X104207950Y-71713589D01*
X104196488Y-71720181D01*
X104184762Y-71726145D01*
X104172773Y-71731481D01*
X104160521Y-71736189D01*
X104148006Y-71740270D01*
X104135227Y-71743722D01*
X104122185Y-71746547D01*
X104108879Y-71748745D01*
X104095310Y-71750314D01*
X104081478Y-71751256D01*
X104067383Y-71751570D01*
X103604054Y-71751570D01*
X103592165Y-71751305D01*
X103580496Y-71750513D01*
X103569046Y-71749191D01*
X103557816Y-71747341D01*
X103546805Y-71744963D01*
X103536013Y-71742056D01*
X103525441Y-71738620D01*
X103515088Y-71734656D01*
X103504955Y-71730163D01*
X103495041Y-71725142D01*
X103485347Y-71719592D01*
X103475872Y-71713514D01*
X103466617Y-71706907D01*
X103457581Y-71699771D01*
X103448764Y-71692107D01*
X103440167Y-71683914D01*
X103432034Y-71675412D01*
X103424425Y-71666695D01*
X103417341Y-71657765D01*
X103410782Y-71648621D01*
X103404747Y-71639264D01*
X103399237Y-71629692D01*
X103394252Y-71619907D01*
X103389792Y-71609909D01*
X103385856Y-71599696D01*
X103382446Y-71589270D01*
X103379559Y-71578630D01*
X103377198Y-71567777D01*
X103375362Y-71556710D01*
X103374050Y-71545429D01*
X103373263Y-71533934D01*
X103373000Y-71522226D01*
X103373000Y-70820272D01*
X103564731Y-70820272D01*
X103564731Y-71317550D01*
X103565280Y-71329732D01*
X103566929Y-71341486D01*
X103569677Y-71352813D01*
X103573524Y-71363712D01*
X103578469Y-71374184D01*
X103584515Y-71384228D01*
X103591659Y-71393845D01*
X103599902Y-71403035D01*
X103608744Y-71411336D01*
X103618052Y-71418529D01*
X103627826Y-71424616D01*
X103638065Y-71429596D01*
X103648769Y-71433470D01*
X103659940Y-71436237D01*
X103671576Y-71437897D01*
X103683677Y-71438450D01*
X103726664Y-71438450D01*
X103719802Y-71429219D01*
X103713383Y-71419842D01*
X103707407Y-71410320D01*
X103701873Y-71400654D01*
X103696782Y-71390842D01*
X103692134Y-71380885D01*
X103687928Y-71370784D01*
X103684166Y-71360537D01*
X103680845Y-71350145D01*
X103677968Y-71339608D01*
X103675533Y-71328926D01*
X103673541Y-71318100D01*
X103671992Y-71307128D01*
X103670885Y-71296011D01*
X103670221Y-71284749D01*
X103670014Y-71274075D01*
X103861730Y-71274075D01*
X103861986Y-71286676D01*
X103862752Y-71298925D01*
X103864029Y-71310821D01*
X103865817Y-71322366D01*
X103868116Y-71333559D01*
X103870926Y-71344400D01*
X103874247Y-71354888D01*
X103878079Y-71365025D01*
X103882422Y-71374809D01*
X103887275Y-71384242D01*
X103890795Y-71390334D01*
X103898850Y-71398933D01*
X103907261Y-71406686D01*
X103916029Y-71413594D01*
X103925153Y-71419655D01*
X103934634Y-71424871D01*
X103944470Y-71429241D01*
X103954663Y-71432765D01*
X103965213Y-71435443D01*
X103976119Y-71437276D01*
X103987381Y-71438262D01*
X103995087Y-71438450D01*
X104017557Y-71438450D01*
X104027731Y-71438326D01*
X104037553Y-71437952D01*
X104050101Y-71437067D01*
X104062023Y-71435739D01*
X104073319Y-71433968D01*
X104083989Y-71431755D01*
X104094034Y-71429098D01*
X104103452Y-71426000D01*
X104107927Y-71424284D01*
X104117887Y-71418399D01*
X104126520Y-71411248D01*
X104133824Y-71402829D01*
X104139801Y-71393143D01*
X104144449Y-71382190D01*
X104147769Y-71369971D01*
X104149388Y-71359974D01*
X104150259Y-71349265D01*
X104150425Y-71341730D01*
X104150425Y-71200558D01*
X104149860Y-71188269D01*
X104148166Y-71176439D01*
X104145342Y-71165066D01*
X104141388Y-71154152D01*
X104136305Y-71143695D01*
X104130092Y-71133696D01*
X104122749Y-71124156D01*
X104114277Y-71115073D01*
X104105061Y-71106715D01*
X104095364Y-71099472D01*
X104085186Y-71093343D01*
X104074527Y-71088328D01*
X104063387Y-71084428D01*
X104051766Y-71081642D01*
X104039665Y-71079970D01*
X104027083Y-71079413D01*
X103985561Y-71079413D01*
X103972979Y-71079970D01*
X103960877Y-71081642D01*
X103949257Y-71084428D01*
X103938117Y-71088328D01*
X103927458Y-71093343D01*
X103917280Y-71099472D01*
X103907583Y-71106715D01*
X103898367Y-71115073D01*
X103889780Y-71124156D01*
X103882338Y-71133696D01*
X103876041Y-71143695D01*
X103870889Y-71154152D01*
X103866882Y-71165066D01*
X103864020Y-71176439D01*
X103862303Y-71188269D01*
X103861730Y-71200558D01*
X103861730Y-71274075D01*
X103670014Y-71274075D01*
X103670000Y-71273342D01*
X103670000Y-70995394D01*
X103670266Y-70983684D01*
X103671064Y-70972187D01*
X103672395Y-70960901D01*
X103674258Y-70949827D01*
X103676654Y-70938965D01*
X103679582Y-70928315D01*
X103683043Y-70917876D01*
X103687035Y-70907650D01*
X103691561Y-70897635D01*
X103696618Y-70887832D01*
X103702208Y-70878240D01*
X103708330Y-70868861D01*
X103714985Y-70859693D01*
X103722172Y-70850737D01*
X103729891Y-70841993D01*
X103738143Y-70833461D01*
X103746742Y-70825327D01*
X103755565Y-70817719D01*
X103764610Y-70810635D01*
X103773879Y-70804075D01*
X103783371Y-70798041D01*
X103793086Y-70792531D01*
X103803025Y-70787546D01*
X103813187Y-70783086D01*
X103823572Y-70779150D01*
X103834180Y-70775739D01*
X103845012Y-70772853D01*
X103856067Y-70770492D01*
X103867345Y-70768655D01*
X103878846Y-70767343D01*
X103890571Y-70766556D01*
X103902519Y-70766294D01*
X104109637Y-70766294D01*
X104121499Y-70766557D01*
G37*
G36*
X104342156Y-72689706D02*
G01*
X104341889Y-72701416D01*
X104341087Y-72712913D01*
X104339752Y-72724199D01*
X104337882Y-72735273D01*
X104335477Y-72746135D01*
X104332539Y-72756785D01*
X104329066Y-72767224D01*
X104325059Y-72777451D01*
X104320517Y-72787466D01*
X104315442Y-72797269D01*
X104309832Y-72806860D01*
X104303688Y-72816239D01*
X104297009Y-72825407D01*
X104289796Y-72834363D01*
X104282049Y-72843107D01*
X104273768Y-72851639D01*
X104265142Y-72859802D01*
X104256301Y-72867439D01*
X104247244Y-72874549D01*
X104237971Y-72881132D01*
X104228483Y-72887188D01*
X104218779Y-72892718D01*
X104208859Y-72897721D01*
X104198724Y-72902198D01*
X104188373Y-72906148D01*
X104177807Y-72909571D01*
X104167025Y-72912467D01*
X104156028Y-72914837D01*
X104144814Y-72916681D01*
X104133385Y-72917997D01*
X104121741Y-72918787D01*
X104109881Y-72919050D01*
X103670000Y-72919050D01*
X103670000Y-72605931D01*
X104027571Y-72605931D01*
X104040153Y-72605378D01*
X104052255Y-72603718D01*
X104063875Y-72600951D01*
X104075015Y-72597077D01*
X104085674Y-72592097D01*
X104095852Y-72586010D01*
X104105549Y-72578816D01*
X104114766Y-72570516D01*
X104123123Y-72561544D01*
X104130367Y-72552091D01*
X104136496Y-72542157D01*
X104141510Y-72531742D01*
X104145411Y-72520847D01*
X104148196Y-72509470D01*
X104149868Y-72497613D01*
X104150425Y-72485275D01*
X104150425Y-72411514D01*
X104149996Y-72398867D01*
X104148708Y-72386572D01*
X104146561Y-72374630D01*
X104143556Y-72363039D01*
X104139692Y-72351801D01*
X104134969Y-72340914D01*
X104129388Y-72330380D01*
X104122948Y-72320198D01*
X104115649Y-72310367D01*
X104107492Y-72300889D01*
X104101577Y-72294766D01*
X104092196Y-72286211D01*
X104082463Y-72278497D01*
X104072378Y-72271625D01*
X104061941Y-72265594D01*
X104051151Y-72260405D01*
X104040010Y-72256057D01*
X104028517Y-72252551D01*
X104016672Y-72249886D01*
X104004474Y-72248063D01*
X103991925Y-72247081D01*
X103983363Y-72246894D01*
X103670000Y-72246894D01*
X103670000Y-71933775D01*
X104639155Y-71933775D01*
X104639155Y-72246894D01*
X104285736Y-72246894D01*
X104292568Y-72256126D01*
X104298959Y-72265502D01*
X104304910Y-72275024D01*
X104310420Y-72284691D01*
X104315489Y-72294502D01*
X104320117Y-72304459D01*
X104324304Y-72314561D01*
X104328051Y-72324808D01*
X104331357Y-72335199D01*
X104334222Y-72345736D01*
X104336646Y-72356418D01*
X104338630Y-72367245D01*
X104340172Y-72378217D01*
X104341274Y-72389334D01*
X104341935Y-72400595D01*
X104342156Y-72412002D01*
X104342156Y-72689706D01*
G37*
G36*
X104342156Y-73538939D02*
G01*
X104342156Y-73695254D01*
X104150425Y-73695254D01*
X104150425Y-73538939D01*
X104009741Y-73538939D01*
X103997460Y-73539469D01*
X103985653Y-73541061D01*
X103974318Y-73543713D01*
X103963457Y-73547426D01*
X103953069Y-73552200D01*
X103943155Y-73558036D01*
X103933713Y-73564932D01*
X103924745Y-73572889D01*
X103916330Y-73581822D01*
X103909037Y-73591161D01*
X103902866Y-73600904D01*
X103897817Y-73611051D01*
X103893890Y-73621604D01*
X103891085Y-73632560D01*
X103889402Y-73643921D01*
X103888841Y-73655687D01*
X103888841Y-73765596D01*
X103670000Y-73765596D01*
X103670000Y-73451988D01*
X103670266Y-73440431D01*
X103671064Y-73429083D01*
X103672395Y-73417945D01*
X103674258Y-73407017D01*
X103676654Y-73396299D01*
X103679582Y-73385791D01*
X103683043Y-73375493D01*
X103687035Y-73365404D01*
X103691561Y-73355526D01*
X103696618Y-73345857D01*
X103702208Y-73336398D01*
X103708330Y-73327150D01*
X103714985Y-73318111D01*
X103722172Y-73309282D01*
X103729891Y-73300663D01*
X103738143Y-73292254D01*
X103746742Y-73284209D01*
X103755565Y-73276683D01*
X103764610Y-73269676D01*
X103773879Y-73263189D01*
X103783371Y-73257220D01*
X103793086Y-73251770D01*
X103803025Y-73246840D01*
X103813187Y-73242428D01*
X103823572Y-73238535D01*
X103834180Y-73235162D01*
X103845012Y-73232307D01*
X103856067Y-73229972D01*
X103867345Y-73228155D01*
X103878846Y-73226857D01*
X103890571Y-73226079D01*
X103902519Y-73225819D01*
X104150425Y-73225819D01*
X104150425Y-73101256D01*
X104342156Y-73101256D01*
X104342156Y-73225819D01*
X104639155Y-73225819D01*
X104639155Y-73538939D01*
X104342156Y-73538939D01*
G37*
G36*
X104389783Y-74345917D02*
G01*
X104402551Y-74346201D01*
X104415085Y-74347051D01*
X104427387Y-74348467D01*
X104439456Y-74350451D01*
X104451292Y-74353001D01*
X104462896Y-74356118D01*
X104474266Y-74359802D01*
X104485404Y-74364052D01*
X104496309Y-74368869D01*
X104506982Y-74374253D01*
X104517421Y-74380204D01*
X104527628Y-74386721D01*
X104537602Y-74393805D01*
X104547343Y-74401456D01*
X104556851Y-74409673D01*
X104566127Y-74418457D01*
X104574970Y-74427583D01*
X104583243Y-74436947D01*
X104590945Y-74446550D01*
X104598077Y-74456391D01*
X104604638Y-74466471D01*
X104610628Y-74476789D01*
X104616048Y-74487346D01*
X104620898Y-74498142D01*
X104625177Y-74509175D01*
X104628885Y-74520448D01*
X104632023Y-74531959D01*
X104634591Y-74543708D01*
X104636588Y-74555696D01*
X104638014Y-74567922D01*
X104638870Y-74580387D01*
X104639155Y-74593091D01*
X104639155Y-74783600D01*
X104389050Y-74783600D01*
X104389050Y-74703000D01*
X104388688Y-74692474D01*
X104387599Y-74682235D01*
X104385785Y-74672284D01*
X104383246Y-74662620D01*
X104379981Y-74653244D01*
X104375990Y-74644156D01*
X104371274Y-74635355D01*
X104365832Y-74626842D01*
X104359665Y-74618617D01*
X104352772Y-74610679D01*
X104347773Y-74605547D01*
X104339888Y-74598258D01*
X104331711Y-74591686D01*
X104323241Y-74585830D01*
X104314480Y-74580692D01*
X104305427Y-74576270D01*
X104296082Y-74572566D01*
X104286445Y-74569578D01*
X104276516Y-74567308D01*
X104266295Y-74565755D01*
X104255782Y-74564918D01*
X104248611Y-74564759D01*
X103779176Y-74564759D01*
X103768468Y-74565117D01*
X103758053Y-74566193D01*
X103747929Y-74567985D01*
X103738097Y-74570495D01*
X103728558Y-74573721D01*
X103719310Y-74577665D01*
X103710354Y-74582325D01*
X103701690Y-74587702D01*
X103693318Y-74593797D01*
X103685238Y-74600608D01*
X103680013Y-74605547D01*
X103672637Y-74613293D01*
X103665986Y-74621327D01*
X103660060Y-74629648D01*
X103654860Y-74638257D01*
X103650386Y-74647153D01*
X103646637Y-74656337D01*
X103643614Y-74665809D01*
X103641316Y-74675569D01*
X103639744Y-74685616D01*
X103638898Y-74695951D01*
X103638736Y-74703000D01*
X103638736Y-74783600D01*
X103388632Y-74783600D01*
X103388632Y-74593091D01*
X103388917Y-74580387D01*
X103389773Y-74567922D01*
X103391199Y-74555696D01*
X103393196Y-74543708D01*
X103395763Y-74531959D01*
X103398901Y-74520448D01*
X103402610Y-74509175D01*
X103406889Y-74498142D01*
X103411738Y-74487346D01*
X103417159Y-74476789D01*
X103423149Y-74466471D01*
X103429710Y-74456391D01*
X103436842Y-74446550D01*
X103444544Y-74436947D01*
X103452817Y-74427583D01*
X103461660Y-74418457D01*
X103470907Y-74409673D01*
X103480391Y-74401456D01*
X103490111Y-74393805D01*
X103500068Y-74386721D01*
X103510261Y-74380204D01*
X103520691Y-74374253D01*
X103531357Y-74368869D01*
X103542260Y-74364052D01*
X103553400Y-74359802D01*
X103564777Y-74356118D01*
X103576390Y-74353001D01*
X103588239Y-74350451D01*
X103600325Y-74348467D01*
X103612648Y-74347051D01*
X103625208Y-74346201D01*
X103638004Y-74345917D01*
X104389783Y-74345917D01*
G37*
G36*
X104337027Y-74961409D02*
G01*
X104352573Y-74961753D01*
X104367828Y-74962783D01*
X104382791Y-74964500D01*
X104397462Y-74966905D01*
X104411840Y-74969996D01*
X104425927Y-74973774D01*
X104439722Y-74978239D01*
X104453225Y-74983391D01*
X104466436Y-74989230D01*
X104479355Y-74995756D01*
X104491983Y-75002969D01*
X104504318Y-75010868D01*
X104516361Y-75019455D01*
X104528112Y-75028729D01*
X104539572Y-75038689D01*
X104550739Y-75049337D01*
X104561446Y-75060557D01*
X104571462Y-75072055D01*
X104580787Y-75083829D01*
X104589421Y-75095880D01*
X104597365Y-75108208D01*
X104604618Y-75120812D01*
X104611180Y-75133693D01*
X104617051Y-75146851D01*
X104622232Y-75160285D01*
X104626722Y-75173996D01*
X104630521Y-75187983D01*
X104633629Y-75202248D01*
X104636047Y-75216789D01*
X104637774Y-75231607D01*
X104638810Y-75246701D01*
X104639155Y-75262072D01*
X104639155Y-76055617D01*
X104389050Y-76055617D01*
X104389050Y-75398604D01*
X104388561Y-75385260D01*
X104387093Y-75372706D01*
X104384645Y-75360943D01*
X104381219Y-75349969D01*
X104376814Y-75339785D01*
X104371431Y-75330391D01*
X104365068Y-75321788D01*
X104357726Y-75313974D01*
X104349406Y-75306950D01*
X104340106Y-75300716D01*
X104333363Y-75296999D01*
X104322764Y-75292983D01*
X104311756Y-75289362D01*
X104300341Y-75286137D01*
X104288518Y-75283306D01*
X104276287Y-75280870D01*
X104263648Y-75278829D01*
X104250601Y-75277184D01*
X104237147Y-75275933D01*
X104223284Y-75275077D01*
X104209014Y-75274616D01*
X104199274Y-75274528D01*
X104109392Y-75274528D01*
X104094981Y-75274726D01*
X104080965Y-75275318D01*
X104067343Y-75276306D01*
X104054117Y-75277688D01*
X104041286Y-75279466D01*
X104028849Y-75281638D01*
X104016808Y-75284206D01*
X104005162Y-75287168D01*
X103993910Y-75290525D01*
X103983054Y-75294278D01*
X103976036Y-75296999D01*
X103966040Y-75302706D01*
X103957028Y-75309203D01*
X103948999Y-75316491D01*
X103941952Y-75324568D01*
X103935890Y-75333435D01*
X103930810Y-75343092D01*
X103926713Y-75353539D01*
X103923600Y-75364776D01*
X103921470Y-75376803D01*
X103920323Y-75389620D01*
X103920104Y-75398604D01*
X103920104Y-76055617D01*
X103670000Y-76055617D01*
X103670000Y-75262072D01*
X103670345Y-75246701D01*
X103671381Y-75231607D01*
X103673108Y-75216789D01*
X103675525Y-75202248D01*
X103678634Y-75187983D01*
X103682433Y-75173996D01*
X103686923Y-75160285D01*
X103692103Y-75146851D01*
X103697975Y-75133693D01*
X103704537Y-75120812D01*
X103711790Y-75108208D01*
X103719733Y-75095880D01*
X103728368Y-75083829D01*
X103737693Y-75072055D01*
X103747709Y-75060557D01*
X103758415Y-75049337D01*
X103769580Y-75038689D01*
X103781031Y-75028729D01*
X103792768Y-75019455D01*
X103804791Y-75010868D01*
X103817100Y-75002969D01*
X103829696Y-74995756D01*
X103842578Y-74989230D01*
X103855746Y-74983391D01*
X103869201Y-74978239D01*
X103882941Y-74973774D01*
X103896968Y-74969996D01*
X103911281Y-74966905D01*
X103925880Y-74964500D01*
X103940766Y-74962783D01*
X103955937Y-74961753D01*
X103971395Y-74961409D01*
X104337027Y-74961409D01*
G37*
G36*
X103638004Y-76674040D02*
G01*
X103625208Y-76673757D01*
X103612648Y-76672907D01*
X103600325Y-76671490D01*
X103588239Y-76669506D01*
X103576390Y-76666956D01*
X103564777Y-76663839D01*
X103553400Y-76660155D01*
X103542260Y-76655905D01*
X103531357Y-76651088D01*
X103520691Y-76645704D01*
X103510261Y-76639753D01*
X103500068Y-76633236D01*
X103490111Y-76626152D01*
X103480391Y-76618501D01*
X103470907Y-76610284D01*
X103461660Y-76601500D01*
X103452817Y-76592374D01*
X103444544Y-76583010D01*
X103436842Y-76573407D01*
X103429710Y-76563566D01*
X103423149Y-76553486D01*
X103417159Y-76543168D01*
X103411738Y-76532611D01*
X103406889Y-76521816D01*
X103402610Y-76510782D01*
X103398901Y-76499509D01*
X103395763Y-76487998D01*
X103393196Y-76476249D01*
X103391199Y-76464261D01*
X103389773Y-76452035D01*
X103388917Y-76439570D01*
X103388632Y-76426866D01*
X103388632Y-76236357D01*
X103638736Y-76236357D01*
X103638736Y-76316957D01*
X103639099Y-76327483D01*
X103640188Y-76337722D01*
X103642001Y-76347674D01*
X103644541Y-76357337D01*
X103647806Y-76366713D01*
X103651797Y-76375801D01*
X103656513Y-76384602D01*
X103661955Y-76393115D01*
X103668122Y-76401340D01*
X103675015Y-76409278D01*
X103680013Y-76414410D01*
X103687899Y-76421699D01*
X103696076Y-76428272D01*
X103704546Y-76434127D01*
X103713307Y-76439265D01*
X103722360Y-76443687D01*
X103731705Y-76447391D01*
X103741342Y-76450379D01*
X103751271Y-76452649D01*
X103761492Y-76454203D01*
X103772005Y-76455039D01*
X103779176Y-76455198D01*
X104248611Y-76455198D01*
X104259318Y-76454840D01*
X104269734Y-76453764D01*
X104279858Y-76451972D01*
X104289689Y-76449462D01*
X104299229Y-76446236D01*
X104308477Y-76442293D01*
X104317433Y-76437632D01*
X104326097Y-76432255D01*
X104334469Y-76426160D01*
X104342549Y-76419349D01*
X104347773Y-76414410D01*
X104355150Y-76406664D01*
X104361801Y-76398630D01*
X104367727Y-76390309D01*
X104372927Y-76381700D01*
X104377401Y-76372804D01*
X104381150Y-76363620D01*
X104384173Y-76354148D01*
X104386471Y-76344388D01*
X104388043Y-76334341D01*
X104388889Y-76324007D01*
X104389050Y-76316957D01*
X104389050Y-76236357D01*
X104639155Y-76236357D01*
X104639155Y-76426866D01*
X104638870Y-76439570D01*
X104638014Y-76452035D01*
X104636588Y-76464261D01*
X104634591Y-76476249D01*
X104632023Y-76487998D01*
X104628885Y-76499509D01*
X104625177Y-76510782D01*
X104620898Y-76521816D01*
X104616048Y-76532611D01*
X104610628Y-76543168D01*
X104604638Y-76553486D01*
X104598077Y-76563566D01*
X104590945Y-76573407D01*
X104583243Y-76583010D01*
X104574970Y-76592374D01*
X104566127Y-76601500D01*
X104556851Y-76610284D01*
X104547343Y-76618501D01*
X104537602Y-76626152D01*
X104527628Y-76633236D01*
X104517421Y-76639753D01*
X104506982Y-76645704D01*
X104496309Y-76651088D01*
X104485404Y-76655905D01*
X104474266Y-76660155D01*
X104462896Y-76663839D01*
X104451292Y-76666956D01*
X104439456Y-76669506D01*
X104427387Y-76671490D01*
X104415085Y-76672907D01*
X104402551Y-76673757D01*
X104389783Y-76674040D01*
X103638004Y-76674040D01*
G37*
G36*
X103920104Y-77164968D02*
G01*
X103920104Y-77837124D01*
X103670000Y-77837124D01*
X103670000Y-76851849D01*
X104077641Y-76851849D01*
X104091825Y-76852315D01*
X104105619Y-76853712D01*
X104119022Y-76856041D01*
X104132034Y-76859302D01*
X104144656Y-76863494D01*
X104156887Y-76868619D01*
X104168727Y-76874674D01*
X104180177Y-76881662D01*
X104191236Y-76889581D01*
X104201904Y-76898431D01*
X104208799Y-76904849D01*
X104218664Y-76915030D01*
X104227558Y-76925606D01*
X104235482Y-76936577D01*
X104242436Y-76947943D01*
X104248420Y-76959704D01*
X104253433Y-76971860D01*
X104257476Y-76984411D01*
X104260548Y-76997356D01*
X104262650Y-77010697D01*
X104263782Y-77024433D01*
X104263998Y-77033810D01*
X104263998Y-77457327D01*
X104264599Y-77467699D01*
X104266402Y-77477935D01*
X104269408Y-77488033D01*
X104273615Y-77497993D01*
X104279025Y-77507816D01*
X104281095Y-77511060D01*
X104289609Y-77517318D01*
X104298663Y-77521527D01*
X104308259Y-77523689D01*
X104313824Y-77524005D01*
X104338736Y-77524005D01*
X104348731Y-77522981D01*
X104358108Y-77519909D01*
X104366866Y-77514789D01*
X104371465Y-77511060D01*
X104377441Y-77501283D01*
X104382181Y-77491368D01*
X104385684Y-77481316D01*
X104387951Y-77471127D01*
X104388982Y-77460800D01*
X104389050Y-77457327D01*
X104389050Y-76875785D01*
X104639155Y-76875785D01*
X104639155Y-77662002D01*
X104638711Y-77675371D01*
X104637378Y-77688366D01*
X104635156Y-77700988D01*
X104632045Y-77713236D01*
X104628046Y-77725111D01*
X104623158Y-77736612D01*
X104617381Y-77747739D01*
X104610716Y-77758493D01*
X104603162Y-77768874D01*
X104594719Y-77778881D01*
X104588597Y-77785345D01*
X104578935Y-77794598D01*
X104568908Y-77802942D01*
X104558516Y-77810375D01*
X104547759Y-77816898D01*
X104536637Y-77822511D01*
X104525150Y-77827213D01*
X104513298Y-77831006D01*
X104501082Y-77833888D01*
X104488500Y-77835860D01*
X104475553Y-77836922D01*
X104466720Y-77837124D01*
X104217348Y-77837124D01*
X104204158Y-77836669D01*
X104191333Y-77835304D01*
X104178873Y-77833029D01*
X104166778Y-77829843D01*
X104155048Y-77825747D01*
X104143683Y-77820741D01*
X104132683Y-77814825D01*
X104122047Y-77807998D01*
X104111777Y-77800262D01*
X104101871Y-77791615D01*
X104095471Y-77785345D01*
X104086479Y-77775587D01*
X104078372Y-77765455D01*
X104071149Y-77754950D01*
X104064810Y-77744072D01*
X104059356Y-77732820D01*
X104054787Y-77721194D01*
X104051102Y-77709195D01*
X104048301Y-77696822D01*
X104046385Y-77684076D01*
X104045353Y-77670956D01*
X104045157Y-77662002D01*
X104045157Y-77238485D01*
X104044341Y-77227337D01*
X104041894Y-77216790D01*
X104037815Y-77206843D01*
X104032105Y-77197498D01*
X104024763Y-77188754D01*
X104021953Y-77185973D01*
X104013126Y-77178835D01*
X104003681Y-77173173D01*
X103993617Y-77168989D01*
X103982936Y-77166281D01*
X103971636Y-77165050D01*
X103967732Y-77164968D01*
X103920104Y-77164968D01*
G37*
G36*
X104352573Y-78017718D02*
G01*
X104367828Y-78018746D01*
X104382791Y-78020458D01*
X104397462Y-78022856D01*
X104411840Y-78025938D01*
X104425927Y-78029706D01*
X104439722Y-78034159D01*
X104453225Y-78039296D01*
X104466436Y-78045119D01*
X104479355Y-78051627D01*
X104491983Y-78058820D01*
X104504318Y-78066697D01*
X104516361Y-78075260D01*
X104528112Y-78084508D01*
X104539572Y-78094441D01*
X104550739Y-78105059D01*
X104561446Y-78116278D01*
X104571462Y-78127770D01*
X104580787Y-78139534D01*
X104589421Y-78151572D01*
X104597365Y-78163882D01*
X104604618Y-78176466D01*
X104611180Y-78189322D01*
X104617051Y-78202451D01*
X104622232Y-78215853D01*
X104626722Y-78229527D01*
X104630521Y-78243475D01*
X104633629Y-78257695D01*
X104636047Y-78272189D01*
X104637774Y-78286955D01*
X104638810Y-78301994D01*
X104639155Y-78317306D01*
X104639155Y-78671458D01*
X104638810Y-78686856D01*
X104637774Y-78701969D01*
X104636047Y-78716798D01*
X104633629Y-78731343D01*
X104630521Y-78745604D01*
X104626722Y-78759580D01*
X104622232Y-78773272D01*
X104617051Y-78786680D01*
X104611180Y-78799803D01*
X104604618Y-78812642D01*
X104597365Y-78825196D01*
X104589421Y-78837467D01*
X104580787Y-78849453D01*
X104571462Y-78861155D01*
X104561446Y-78872572D01*
X104550739Y-78883705D01*
X104539572Y-78894323D01*
X104528112Y-78904256D01*
X104516361Y-78913504D01*
X104504318Y-78922066D01*
X104491983Y-78929944D01*
X104479355Y-78937137D01*
X104466436Y-78943645D01*
X104453225Y-78949467D01*
X104439722Y-78954605D01*
X104425927Y-78959058D01*
X104411840Y-78962825D01*
X104397462Y-78965908D01*
X104382791Y-78968306D01*
X104367828Y-78970018D01*
X104352573Y-78971046D01*
X104337027Y-78971388D01*
X103971395Y-78971388D01*
X103955937Y-78971046D01*
X103940766Y-78970018D01*
X103925880Y-78968306D01*
X103911281Y-78965908D01*
X103896968Y-78962825D01*
X103882941Y-78959058D01*
X103869201Y-78954605D01*
X103855746Y-78949467D01*
X103842578Y-78943645D01*
X103829696Y-78937137D01*
X103817100Y-78929944D01*
X103804791Y-78922066D01*
X103792768Y-78913504D01*
X103781031Y-78904256D01*
X103769580Y-78894323D01*
X103758415Y-78883705D01*
X103747709Y-78872572D01*
X103737693Y-78861155D01*
X103728368Y-78849453D01*
X103719733Y-78837467D01*
X103711790Y-78825196D01*
X103704537Y-78812642D01*
X103697975Y-78799803D01*
X103692103Y-78786680D01*
X103686923Y-78773272D01*
X103682433Y-78759580D01*
X103678634Y-78745604D01*
X103675525Y-78731343D01*
X103673108Y-78716798D01*
X103671381Y-78701969D01*
X103670345Y-78686856D01*
X103670000Y-78671458D01*
X103670000Y-78535170D01*
X103920104Y-78535170D01*
X103920596Y-78547186D01*
X103922071Y-78558686D01*
X103924528Y-78569672D01*
X103927970Y-78580142D01*
X103932394Y-78590096D01*
X103937801Y-78599536D01*
X103944192Y-78608460D01*
X103951566Y-78616870D01*
X103959923Y-78624764D01*
X103969263Y-78632143D01*
X103976036Y-78636775D01*
X103986629Y-78640617D01*
X103997617Y-78644080D01*
X104009000Y-78647165D01*
X104020778Y-78649873D01*
X104032951Y-78652203D01*
X104045519Y-78654155D01*
X104058482Y-78655729D01*
X104071840Y-78656926D01*
X104085593Y-78657744D01*
X104099741Y-78658185D01*
X104109392Y-78658269D01*
X104199274Y-78658269D01*
X104213816Y-78658140D01*
X104227950Y-78657754D01*
X104241677Y-78657110D01*
X104254995Y-78656208D01*
X104267906Y-78655049D01*
X104280409Y-78653632D01*
X104292504Y-78651958D01*
X104304191Y-78650026D01*
X104315471Y-78647836D01*
X104326342Y-78645389D01*
X104333363Y-78643614D01*
X104343315Y-78636519D01*
X104352288Y-78628788D01*
X104360282Y-78620422D01*
X104367298Y-78611420D01*
X104373334Y-78601783D01*
X104378392Y-78591510D01*
X104382470Y-78580603D01*
X104385570Y-78569059D01*
X104387691Y-78556880D01*
X104388833Y-78544066D01*
X104389050Y-78535170D01*
X104389050Y-78453593D01*
X104388561Y-78441536D01*
X104387093Y-78430003D01*
X104384645Y-78418993D01*
X104381219Y-78408508D01*
X104376814Y-78398546D01*
X104371431Y-78389108D01*
X104365068Y-78380193D01*
X104357726Y-78371803D01*
X104349406Y-78363936D01*
X104340106Y-78356593D01*
X104333363Y-78351988D01*
X104322764Y-78348147D01*
X104311756Y-78344684D01*
X104300341Y-78341598D01*
X104288518Y-78338891D01*
X104276287Y-78336561D01*
X104263648Y-78334609D01*
X104250601Y-78333035D01*
X104237147Y-78331838D01*
X104223284Y-78331020D01*
X104209014Y-78330579D01*
X104199274Y-78330495D01*
X104109392Y-78330495D01*
X104094981Y-78330684D01*
X104080965Y-78331251D01*
X104067343Y-78332195D01*
X104054117Y-78333517D01*
X104041286Y-78335218D01*
X104028849Y-78337296D01*
X104016808Y-78339751D01*
X104005162Y-78342585D01*
X103993910Y-78345796D01*
X103983054Y-78349386D01*
X103976036Y-78351988D01*
X103966040Y-78358982D01*
X103957028Y-78366500D01*
X103948999Y-78374541D01*
X103941952Y-78383106D01*
X103935890Y-78392195D01*
X103930810Y-78401808D01*
X103926713Y-78411945D01*
X103923600Y-78422605D01*
X103921470Y-78433789D01*
X103920323Y-78445497D01*
X103920104Y-78453593D01*
X103920104Y-78535170D01*
X103670000Y-78535170D01*
X103670000Y-78317306D01*
X103670345Y-78301994D01*
X103671381Y-78286955D01*
X103673108Y-78272189D01*
X103675525Y-78257695D01*
X103678634Y-78243475D01*
X103682433Y-78229527D01*
X103686923Y-78215853D01*
X103692103Y-78202451D01*
X103697975Y-78189322D01*
X103704537Y-78176466D01*
X103711790Y-78163882D01*
X103719733Y-78151572D01*
X103728368Y-78139534D01*
X103737693Y-78127770D01*
X103747709Y-78116278D01*
X103758415Y-78105059D01*
X103769580Y-78094441D01*
X103781031Y-78084508D01*
X103792768Y-78075260D01*
X103804791Y-78066697D01*
X103817100Y-78058820D01*
X103829696Y-78051627D01*
X103842578Y-78045119D01*
X103855746Y-78039296D01*
X103869201Y-78034159D01*
X103882941Y-78029706D01*
X103896968Y-78025938D01*
X103911281Y-78022856D01*
X103925880Y-78020458D01*
X103940766Y-78018746D01*
X103955937Y-78017718D01*
X103971395Y-78017376D01*
X104337027Y-78017376D01*
X104352573Y-78017718D01*
G37*
G36*
X103920104Y-79466713D02*
G01*
X103920104Y-80138869D01*
X103670000Y-80138869D01*
X103670000Y-79153593D01*
X104077641Y-79153593D01*
X104091825Y-79154059D01*
X104105619Y-79155457D01*
X104119022Y-79157786D01*
X104132034Y-79161047D01*
X104144656Y-79165239D01*
X104156887Y-79170363D01*
X104168727Y-79176419D01*
X104180177Y-79183406D01*
X104191236Y-79191325D01*
X104201904Y-79200176D01*
X104208799Y-79206594D01*
X104218664Y-79216775D01*
X104227558Y-79227351D01*
X104235482Y-79238322D01*
X104242436Y-79249688D01*
X104248420Y-79261449D01*
X104253433Y-79273604D01*
X104257476Y-79286155D01*
X104260548Y-79299101D01*
X104262650Y-79312442D01*
X104263782Y-79326178D01*
X104263998Y-79335554D01*
X104263998Y-79759071D01*
X104264599Y-79769444D01*
X104266402Y-79779679D01*
X104269408Y-79789777D01*
X104273615Y-79799738D01*
X104279025Y-79809561D01*
X104281095Y-79812805D01*
X104289609Y-79819062D01*
X104298663Y-79823272D01*
X104308259Y-79825434D01*
X104313824Y-79825750D01*
X104338736Y-79825750D01*
X104348731Y-79824726D01*
X104358108Y-79821654D01*
X104366866Y-79816534D01*
X104371465Y-79812805D01*
X104377441Y-79803027D01*
X104382181Y-79793113D01*
X104385684Y-79783061D01*
X104387951Y-79772871D01*
X104388982Y-79762544D01*
X104389050Y-79759071D01*
X104389050Y-79177529D01*
X104639155Y-79177529D01*
X104639155Y-79963747D01*
X104638711Y-79977116D01*
X104637378Y-79990111D01*
X104635156Y-80002732D01*
X104632045Y-80014981D01*
X104628046Y-80026855D01*
X104623158Y-80038356D01*
X104617381Y-80049484D01*
X104610716Y-80060238D01*
X104603162Y-80070619D01*
X104594719Y-80080626D01*
X104588597Y-80087090D01*
X104578935Y-80096343D01*
X104568908Y-80104686D01*
X104558516Y-80112120D01*
X104547759Y-80118643D01*
X104536637Y-80124255D01*
X104525150Y-80128958D01*
X104513298Y-80132751D01*
X104501082Y-80135633D01*
X104488500Y-80137605D01*
X104475553Y-80138667D01*
X104466720Y-80138869D01*
X104217348Y-80138869D01*
X104204158Y-80138414D01*
X104191333Y-80137049D01*
X104178873Y-80134773D01*
X104166778Y-80131588D01*
X104155048Y-80127492D01*
X104143683Y-80122486D01*
X104132683Y-80116569D01*
X104122047Y-80109743D01*
X104111777Y-80102006D01*
X104101871Y-80093360D01*
X104095471Y-80087090D01*
X104086479Y-80077331D01*
X104078372Y-80067200D01*
X104071149Y-80056695D01*
X104064810Y-80045816D01*
X104059356Y-80034564D01*
X104054787Y-80022939D01*
X104051102Y-80010939D01*
X104048301Y-79998567D01*
X104046385Y-79985821D01*
X104045353Y-79972701D01*
X104045157Y-79963747D01*
X104045157Y-79540230D01*
X104044341Y-79529081D01*
X104041894Y-79518534D01*
X104037815Y-79508588D01*
X104032105Y-79499243D01*
X104024763Y-79490499D01*
X104021953Y-79487718D01*
X104013126Y-79480579D01*
X104003681Y-79474918D01*
X103993617Y-79470733D01*
X103982936Y-79468025D01*
X103971636Y-79466795D01*
X103967732Y-79466713D01*
X103920104Y-79466713D01*
G37*
G36*
X103986589Y-80241617D02*
G01*
X103996353Y-80243397D01*
X104000216Y-80244382D01*
X104009730Y-80247994D01*
X104018488Y-80252602D01*
X104026491Y-80258206D01*
X104033738Y-80264807D01*
X104040230Y-80272403D01*
X104042226Y-80275157D01*
X104621325Y-81104361D01*
X104627385Y-81113912D01*
X104632190Y-81123515D01*
X104635742Y-81133169D01*
X104638041Y-81142875D01*
X104639085Y-81152632D01*
X104639155Y-81155896D01*
X104638518Y-81165807D01*
X104636605Y-81175757D01*
X104633417Y-81185746D01*
X104631095Y-81191311D01*
X104626522Y-81200259D01*
X104619590Y-81210821D01*
X104611703Y-81219818D01*
X104602863Y-81227250D01*
X104593068Y-81233118D01*
X104582320Y-81237421D01*
X104570617Y-81240159D01*
X104557960Y-81241332D01*
X104554647Y-81241381D01*
X104138946Y-81241381D01*
X104138946Y-81444591D01*
X103888841Y-81444591D01*
X103888841Y-81241381D01*
X103670000Y-81241381D01*
X103670000Y-80928262D01*
X103888841Y-80928262D01*
X103888841Y-80742637D01*
X104138946Y-80742637D01*
X104138946Y-80928262D01*
X104284270Y-80928262D01*
X104138946Y-80742637D01*
X103888841Y-80742637D01*
X103888841Y-80326936D01*
X103889337Y-80316060D01*
X103890825Y-80305870D01*
X103893304Y-80296367D01*
X103898153Y-80284766D01*
X103904764Y-80274386D01*
X103913139Y-80265227D01*
X103923277Y-80257289D01*
X103932038Y-80252137D01*
X103941790Y-80247672D01*
X103945261Y-80246336D01*
X103954821Y-80243502D01*
X103964572Y-80241718D01*
X103974513Y-80240984D01*
X103976524Y-80240963D01*
X103986589Y-80241617D01*
G37*
G36*
X103670000Y-83024842D02*
G01*
X103670000Y-82711723D01*
X104045157Y-82711723D01*
X104045157Y-82352686D01*
X103670000Y-82352686D01*
X103670000Y-82039567D01*
X104639155Y-82039567D01*
X104639155Y-82352686D01*
X104295261Y-82352686D01*
X104295261Y-82711723D01*
X104639155Y-82711723D01*
X104639155Y-83024842D01*
X103670000Y-83024842D01*
G37*
G36*
X104482419Y-83203591D02*
G01*
X104494436Y-83204943D01*
X104506192Y-83207197D01*
X104517686Y-83210353D01*
X104528918Y-83214410D01*
X104539889Y-83219369D01*
X104550597Y-83225229D01*
X104561043Y-83231991D01*
X104571228Y-83239655D01*
X104581150Y-83248220D01*
X104587620Y-83254431D01*
X104596830Y-83264322D01*
X104605134Y-83274578D01*
X104612532Y-83285199D01*
X104619024Y-83296185D01*
X104624611Y-83307536D01*
X104629291Y-83319251D01*
X104633066Y-83331332D01*
X104635934Y-83343778D01*
X104637897Y-83356588D01*
X104638954Y-83369764D01*
X104639155Y-83378750D01*
X104639155Y-83999127D01*
X104638810Y-84016341D01*
X104637774Y-84033115D01*
X104636047Y-84049451D01*
X104633629Y-84065348D01*
X104630521Y-84080805D01*
X104626722Y-84095824D01*
X104622232Y-84110405D01*
X104617051Y-84124546D01*
X104611180Y-84138248D01*
X104604618Y-84151512D01*
X104597365Y-84164337D01*
X104589421Y-84176722D01*
X104580787Y-84188669D01*
X104571462Y-84200177D01*
X104561446Y-84211246D01*
X104550739Y-84221877D01*
X104541369Y-84231075D01*
X104531455Y-84239680D01*
X104520998Y-84247691D01*
X104509996Y-84255109D01*
X104498451Y-84261933D01*
X104486362Y-84268165D01*
X104473729Y-84273802D01*
X104460553Y-84278846D01*
X104446832Y-84283297D01*
X104432568Y-84287154D01*
X104417759Y-84290418D01*
X104402407Y-84293089D01*
X104386512Y-84295166D01*
X104370072Y-84296649D01*
X104353089Y-84297539D01*
X104335561Y-84297836D01*
X104324964Y-84297715D01*
X104314545Y-84297352D01*
X104304303Y-84296748D01*
X104294238Y-84295901D01*
X104284351Y-84294813D01*
X104274642Y-84293483D01*
X104255755Y-84290097D01*
X104237578Y-84285743D01*
X104220111Y-84280422D01*
X104203353Y-84274134D01*
X104187306Y-84266878D01*
X104171968Y-84258655D01*
X104157340Y-84249465D01*
X104143422Y-84239307D01*
X104130214Y-84228181D01*
X104117716Y-84216088D01*
X104105927Y-84203028D01*
X104094848Y-84189000D01*
X104084480Y-84174005D01*
X104072813Y-84189000D01*
X104060651Y-84203028D01*
X104047992Y-84216088D01*
X104034837Y-84228181D01*
X104021186Y-84239307D01*
X104007039Y-84249465D01*
X103992396Y-84258655D01*
X103977257Y-84266878D01*
X103961622Y-84274134D01*
X103945490Y-84280422D01*
X103928863Y-84285743D01*
X103911739Y-84290097D01*
X103894119Y-84293483D01*
X103876003Y-84295901D01*
X103857391Y-84297352D01*
X103838283Y-84297836D01*
X103670000Y-84297836D01*
X103670000Y-83984717D01*
X103722512Y-83984717D01*
X103732646Y-83984629D01*
X103742593Y-83984366D01*
X103752353Y-83983927D01*
X103766643Y-83982939D01*
X103780512Y-83981557D01*
X103793960Y-83979780D01*
X103806987Y-83977607D01*
X103819594Y-83975040D01*
X103831780Y-83972077D01*
X103843545Y-83968720D01*
X103854889Y-83964968D01*
X103862219Y-83962247D01*
X103872563Y-83957535D01*
X103881891Y-83951828D01*
X103890200Y-83945125D01*
X103897493Y-83937425D01*
X103903767Y-83928730D01*
X103909025Y-83919038D01*
X103913264Y-83908351D01*
X103916486Y-83896667D01*
X103918691Y-83883988D01*
X103919878Y-83870312D01*
X103920104Y-83860642D01*
X103920104Y-83516259D01*
X104170209Y-83516259D01*
X104170209Y-83884089D01*
X104170531Y-83896683D01*
X104171497Y-83908363D01*
X104173107Y-83919129D01*
X104175361Y-83928980D01*
X104179368Y-83940692D01*
X104184520Y-83950779D01*
X104190817Y-83959239D01*
X104198259Y-83966074D01*
X104206845Y-83971284D01*
X104218314Y-83975153D01*
X104227739Y-83977777D01*
X104237384Y-83979981D01*
X104247251Y-83981765D01*
X104257340Y-83983130D01*
X104267650Y-83984074D01*
X104278181Y-83984599D01*
X104286224Y-83984717D01*
X104296463Y-83984530D01*
X104306298Y-83983969D01*
X104318022Y-83982742D01*
X104329115Y-83980930D01*
X104339575Y-83978534D01*
X104349403Y-83975554D01*
X104356810Y-83972749D01*
X104366098Y-83965948D01*
X104373812Y-83956534D01*
X104378849Y-83947124D01*
X104382879Y-83936041D01*
X104385902Y-83923287D01*
X104387508Y-83912624D01*
X104388547Y-83901022D01*
X104389019Y-83888479D01*
X104389050Y-83884089D01*
X104389050Y-83582449D01*
X104388389Y-83572299D01*
X104385947Y-83561196D01*
X104381704Y-83550888D01*
X104375662Y-83541375D01*
X104370244Y-83535066D01*
X104362136Y-83527738D01*
X104353841Y-83522210D01*
X104344133Y-83518096D01*
X104334180Y-83516333D01*
X104331653Y-83516259D01*
X104170209Y-83516259D01*
X103920104Y-83516259D01*
X103670000Y-83516259D01*
X103670000Y-83203140D01*
X104470139Y-83203140D01*
X104482419Y-83203591D01*
G37*
G36*
X104352573Y-84478431D02*
G01*
X104367828Y-84479461D01*
X104382791Y-84481179D01*
X104397462Y-84483583D01*
X104411840Y-84486674D01*
X104425927Y-84490452D01*
X104439722Y-84494917D01*
X104453225Y-84500069D01*
X104466436Y-84505908D01*
X104479355Y-84512434D01*
X104491983Y-84519647D01*
X104504318Y-84527547D01*
X104516361Y-84536133D01*
X104528112Y-84545407D01*
X104539572Y-84555367D01*
X104550739Y-84566015D01*
X104561446Y-84577150D01*
X104571462Y-84588573D01*
X104580787Y-84600284D01*
X104589421Y-84612284D01*
X104597365Y-84624571D01*
X104604618Y-84637147D01*
X104611180Y-84650011D01*
X104617051Y-84663162D01*
X104622232Y-84676602D01*
X104626722Y-84690331D01*
X104630521Y-84704347D01*
X104633629Y-84718651D01*
X104636047Y-84733244D01*
X104637774Y-84748125D01*
X104638810Y-84763293D01*
X104639155Y-84778750D01*
X104639155Y-85272121D01*
X104638810Y-85287489D01*
X104637774Y-85302575D01*
X104636047Y-85317378D01*
X104633629Y-85331899D01*
X104630521Y-85346138D01*
X104626722Y-85360094D01*
X104622232Y-85373768D01*
X104617051Y-85387159D01*
X104611180Y-85400268D01*
X104604618Y-85413095D01*
X104597365Y-85425639D01*
X104589421Y-85437901D01*
X104580787Y-85449880D01*
X104571462Y-85461577D01*
X104561446Y-85472992D01*
X104550739Y-85484124D01*
X104539572Y-85494860D01*
X104528112Y-85504903D01*
X104516361Y-85514254D01*
X104504318Y-85522913D01*
X104491983Y-85530878D01*
X104479355Y-85538151D01*
X104466436Y-85544731D01*
X104453225Y-85550619D01*
X104439722Y-85555814D01*
X104425927Y-85560316D01*
X104411840Y-85564126D01*
X104397462Y-85567243D01*
X104382791Y-85569667D01*
X104367828Y-85571399D01*
X104352573Y-85572438D01*
X104337027Y-85572784D01*
X103670000Y-85572784D01*
X103670000Y-85259665D01*
X103920104Y-85259665D01*
X103920104Y-84791207D01*
X104170209Y-84791207D01*
X104170209Y-85259665D01*
X104271570Y-85259665D01*
X104283618Y-85259420D01*
X104294971Y-85258688D01*
X104305630Y-85257466D01*
X104315594Y-85255757D01*
X104327073Y-85252933D01*
X104337467Y-85249345D01*
X104346775Y-85244995D01*
X104348506Y-85244033D01*
X104358009Y-85237957D01*
X104366244Y-85230966D01*
X104373213Y-85223059D01*
X104378914Y-85214235D01*
X104383349Y-85204496D01*
X104386516Y-85193841D01*
X104388417Y-85182270D01*
X104389050Y-85169783D01*
X104389050Y-84881088D01*
X104388417Y-84868429D01*
X104386516Y-84856710D01*
X104383349Y-84845929D01*
X104378914Y-84836086D01*
X104373213Y-84827183D01*
X104366244Y-84819218D01*
X104358009Y-84812193D01*
X104348506Y-84806106D01*
X104339415Y-84801813D01*
X104329239Y-84798249D01*
X104317977Y-84795412D01*
X104308186Y-84793666D01*
X104297701Y-84792385D01*
X104286521Y-84791570D01*
X104274647Y-84791221D01*
X104271570Y-84791207D01*
X104170209Y-84791207D01*
X103920104Y-84791207D01*
X103670000Y-84791207D01*
X103670000Y-84478087D01*
X104337027Y-84478087D01*
X104352573Y-84478431D01*
G37*
G36*
X104639155Y-85753035D02*
G01*
X104639155Y-86066154D01*
X104013893Y-86066154D01*
X104013893Y-85753035D01*
X104639155Y-85753035D01*
G37*
G36*
X103920104Y-85753035D02*
G01*
X103920104Y-86066154D01*
X103670000Y-86066154D01*
X103670000Y-85753035D01*
X103920104Y-85753035D01*
G37*
X131360588Y-59417438D02*
X131265350Y-59369819D01*
X131265350Y-59369819D02*
X131122493Y-59369819D01*
X131122493Y-59369819D02*
X130979636Y-59417438D01*
X130979636Y-59417438D02*
X130884398Y-59512676D01*
X130884398Y-59512676D02*
X130836779Y-59607914D01*
X130836779Y-59607914D02*
X130789160Y-59798390D01*
X130789160Y-59798390D02*
X130789160Y-59941247D01*
X130789160Y-59941247D02*
X130836779Y-60131723D01*
X130836779Y-60131723D02*
X130884398Y-60226961D01*
X130884398Y-60226961D02*
X130979636Y-60322200D01*
X130979636Y-60322200D02*
X131122493Y-60369819D01*
X131122493Y-60369819D02*
X131217731Y-60369819D01*
X131217731Y-60369819D02*
X131360588Y-60322200D01*
X131360588Y-60322200D02*
X131408207Y-60274580D01*
X131408207Y-60274580D02*
X131408207Y-59941247D01*
X131408207Y-59941247D02*
X131217731Y-59941247D01*
X131741541Y-59369819D02*
X132360588Y-59369819D01*
X132360588Y-59369819D02*
X132027255Y-59750771D01*
X132027255Y-59750771D02*
X132170112Y-59750771D01*
X132170112Y-59750771D02*
X132265350Y-59798390D01*
X132265350Y-59798390D02*
X132312969Y-59846009D01*
X132312969Y-59846009D02*
X132360588Y-59941247D01*
X132360588Y-59941247D02*
X132360588Y-60179342D01*
X132360588Y-60179342D02*
X132312969Y-60274580D01*
X132312969Y-60274580D02*
X132265350Y-60322200D01*
X132265350Y-60322200D02*
X132170112Y-60369819D01*
X132170112Y-60369819D02*
X131884398Y-60369819D01*
X131884398Y-60369819D02*
X131789160Y-60322200D01*
X131789160Y-60322200D02*
X131741541Y-60274580D01*
X133217731Y-59369819D02*
X133027255Y-59369819D01*
X133027255Y-59369819D02*
X132932017Y-59417438D01*
X132932017Y-59417438D02*
X132884398Y-59465057D01*
X132884398Y-59465057D02*
X132789160Y-59607914D01*
X132789160Y-59607914D02*
X132741541Y-59798390D01*
X132741541Y-59798390D02*
X132741541Y-60179342D01*
X132741541Y-60179342D02*
X132789160Y-60274580D01*
X132789160Y-60274580D02*
X132836779Y-60322200D01*
X132836779Y-60322200D02*
X132932017Y-60369819D01*
X132932017Y-60369819D02*
X133122493Y-60369819D01*
X133122493Y-60369819D02*
X133217731Y-60322200D01*
X133217731Y-60322200D02*
X133265350Y-60274580D01*
X133265350Y-60274580D02*
X133312969Y-60179342D01*
X133312969Y-60179342D02*
X133312969Y-59941247D01*
X133312969Y-59941247D02*
X133265350Y-59846009D01*
X133265350Y-59846009D02*
X133217731Y-59798390D01*
X133217731Y-59798390D02*
X133122493Y-59750771D01*
X133122493Y-59750771D02*
X132932017Y-59750771D01*
X132932017Y-59750771D02*
X132836779Y-59798390D01*
X132836779Y-59798390D02*
X132789160Y-59846009D01*
X132789160Y-59846009D02*
X132741541Y-59941247D01*
X118639411Y-93082561D02*
X118734649Y-93130180D01*
X118734649Y-93130180D02*
X118877506Y-93130180D01*
X118877506Y-93130180D02*
X119020363Y-93082561D01*
X119020363Y-93082561D02*
X119115601Y-92987323D01*
X119115601Y-92987323D02*
X119163220Y-92892085D01*
X119163220Y-92892085D02*
X119210839Y-92701609D01*
X119210839Y-92701609D02*
X119210839Y-92558752D01*
X119210839Y-92558752D02*
X119163220Y-92368276D01*
X119163220Y-92368276D02*
X119115601Y-92273038D01*
X119115601Y-92273038D02*
X119020363Y-92177800D01*
X119020363Y-92177800D02*
X118877506Y-92130180D01*
X118877506Y-92130180D02*
X118782268Y-92130180D01*
X118782268Y-92130180D02*
X118639411Y-92177800D01*
X118639411Y-92177800D02*
X118591792Y-92225419D01*
X118591792Y-92225419D02*
X118591792Y-92558752D01*
X118591792Y-92558752D02*
X118782268Y-92558752D01*
X118258458Y-93130180D02*
X117639411Y-93130180D01*
X117639411Y-93130180D02*
X117972744Y-92749228D01*
X117972744Y-92749228D02*
X117829887Y-92749228D01*
X117829887Y-92749228D02*
X117734649Y-92701609D01*
X117734649Y-92701609D02*
X117687030Y-92653990D01*
X117687030Y-92653990D02*
X117639411Y-92558752D01*
X117639411Y-92558752D02*
X117639411Y-92320657D01*
X117639411Y-92320657D02*
X117687030Y-92225419D01*
X117687030Y-92225419D02*
X117734649Y-92177800D01*
X117734649Y-92177800D02*
X117829887Y-92130180D01*
X117829887Y-92130180D02*
X118115601Y-92130180D01*
X118115601Y-92130180D02*
X118210839Y-92177800D01*
X118210839Y-92177800D02*
X118258458Y-92225419D01*
X116734649Y-93130180D02*
X117210839Y-93130180D01*
X117210839Y-93130180D02*
X117258458Y-92653990D01*
X117258458Y-92653990D02*
X117210839Y-92701609D01*
X117210839Y-92701609D02*
X117115601Y-92749228D01*
X117115601Y-92749228D02*
X116877506Y-92749228D01*
X116877506Y-92749228D02*
X116782268Y-92701609D01*
X116782268Y-92701609D02*
X116734649Y-92653990D01*
X116734649Y-92653990D02*
X116687030Y-92558752D01*
X116687030Y-92558752D02*
X116687030Y-92320657D01*
X116687030Y-92320657D02*
X116734649Y-92225419D01*
X116734649Y-92225419D02*
X116782268Y-92177800D01*
X116782268Y-92177800D02*
X116877506Y-92130180D01*
X116877506Y-92130180D02*
X117115601Y-92130180D01*
X117115601Y-92130180D02*
X117210839Y-92177800D01*
X117210839Y-92177800D02*
X117258458Y-92225419D01*
G36*
X105170000Y-60906908D02*
G01*
X105170000Y-60593789D01*
X105837759Y-60593789D01*
X105853217Y-60594135D01*
X105868389Y-60595174D01*
X105883274Y-60596906D01*
X105897874Y-60599330D01*
X105912187Y-60602447D01*
X105926214Y-60606257D01*
X105939954Y-60610759D01*
X105953408Y-60615954D01*
X105966577Y-60621841D01*
X105979458Y-60628422D01*
X105992054Y-60635695D01*
X106004364Y-60643660D01*
X106016387Y-60652318D01*
X106028124Y-60661669D01*
X106039575Y-60671713D01*
X106050739Y-60682449D01*
X106061446Y-60693676D01*
X106071462Y-60705194D01*
X106080787Y-60717002D01*
X106089421Y-60729099D01*
X106097365Y-60741487D01*
X106104618Y-60754165D01*
X106111180Y-60767132D01*
X106117051Y-60780390D01*
X106122232Y-60793938D01*
X106126722Y-60807776D01*
X106130521Y-60821904D01*
X106133629Y-60836322D01*
X106136047Y-60851030D01*
X106137774Y-60866028D01*
X106138810Y-60881316D01*
X106139155Y-60896894D01*
X106139155Y-61161653D01*
X106139026Y-61171449D01*
X106137994Y-61190649D01*
X106135929Y-61209326D01*
X106132832Y-61227480D01*
X106128703Y-61245111D01*
X106123541Y-61262220D01*
X106117348Y-61278806D01*
X106110121Y-61294868D01*
X106101863Y-61310408D01*
X106092572Y-61325425D01*
X106082249Y-61339920D01*
X106070894Y-61353891D01*
X106058506Y-61367340D01*
X106045086Y-61380266D01*
X106030634Y-61392668D01*
X106015149Y-61404549D01*
X106007020Y-61410293D01*
X106015149Y-61415975D01*
X106023021Y-61421786D01*
X106037989Y-61433797D01*
X106051925Y-61446325D01*
X106064829Y-61459370D01*
X106076701Y-61472932D01*
X106087540Y-61487012D01*
X106097347Y-61501608D01*
X106106121Y-61516721D01*
X106113864Y-61532352D01*
X106120574Y-61548500D01*
X106126251Y-61565165D01*
X106130897Y-61582346D01*
X106134510Y-61600045D01*
X106137091Y-61618262D01*
X106138639Y-61636995D01*
X106139155Y-61656245D01*
X106139155Y-61919295D01*
X106138810Y-61934633D01*
X106137774Y-61949691D01*
X106136047Y-61964469D01*
X106133629Y-61978966D01*
X106130521Y-61993183D01*
X106126722Y-62007119D01*
X106122232Y-62020775D01*
X106117051Y-62034150D01*
X106111180Y-62047245D01*
X106104618Y-62060059D01*
X106097365Y-62072592D01*
X106089421Y-62084846D01*
X106080787Y-62096818D01*
X106071462Y-62108510D01*
X106061446Y-62119922D01*
X106050739Y-62131053D01*
X106039575Y-62141701D01*
X106028124Y-62151661D01*
X106016387Y-62160935D01*
X106004364Y-62169521D01*
X105992054Y-62177421D01*
X105979458Y-62184634D01*
X105966577Y-62191160D01*
X105953408Y-62196999D01*
X105939954Y-62202151D01*
X105926214Y-62206616D01*
X105912187Y-62210394D01*
X105897874Y-62213485D01*
X105883274Y-62215889D01*
X105868389Y-62217607D01*
X105853217Y-62218637D01*
X105837759Y-62218981D01*
X105170000Y-62218981D01*
X105170000Y-61905861D01*
X105753007Y-61905861D01*
X105769481Y-61903074D01*
X105784892Y-61899229D01*
X105799241Y-61894327D01*
X105812526Y-61888367D01*
X105824749Y-61881351D01*
X105835909Y-61873278D01*
X105846006Y-61864147D01*
X105855040Y-61853960D01*
X105863011Y-61842715D01*
X105869919Y-61830413D01*
X105875765Y-61817054D01*
X105880548Y-61802638D01*
X105884268Y-61787165D01*
X105886925Y-61770635D01*
X105888519Y-61753047D01*
X105889050Y-61734403D01*
X105888519Y-61715844D01*
X105886925Y-61698331D01*
X105884268Y-61681864D01*
X105880548Y-61666442D01*
X105875765Y-61652066D01*
X105869919Y-61638736D01*
X105863011Y-61626451D01*
X105855040Y-61615212D01*
X105846006Y-61605019D01*
X105835909Y-61595871D01*
X105824749Y-61587769D01*
X105812526Y-61580713D01*
X105799241Y-61574702D01*
X105784892Y-61569737D01*
X105769481Y-61565818D01*
X105753007Y-61562944D01*
X105170000Y-61562944D01*
X105170000Y-61249825D01*
X105753007Y-61249825D01*
X105769481Y-61247153D01*
X105784892Y-61243410D01*
X105799241Y-61238597D01*
X105812526Y-61232713D01*
X105824749Y-61225759D01*
X105835909Y-61217734D01*
X105846006Y-61208639D01*
X105855040Y-61198473D01*
X105863011Y-61187237D01*
X105869919Y-61174930D01*
X105875765Y-61161553D01*
X105880548Y-61147106D01*
X105884268Y-61131588D01*
X105886925Y-61114999D01*
X105888519Y-61097340D01*
X105889050Y-61078611D01*
X105888519Y-61059794D01*
X105886925Y-61042055D01*
X105884268Y-61025394D01*
X105880548Y-61009811D01*
X105875765Y-60995306D01*
X105869919Y-60981879D01*
X105863011Y-60969531D01*
X105855040Y-60958260D01*
X105846006Y-60948068D01*
X105835909Y-60938954D01*
X105824749Y-60930917D01*
X105812526Y-60923959D01*
X105799241Y-60918079D01*
X105784892Y-60913277D01*
X105769481Y-60909554D01*
X105753007Y-60906908D01*
X105170000Y-60906908D01*
G37*
G36*
X105889050Y-63379623D02*
G01*
X105889050Y-62707466D01*
X105779630Y-62707466D01*
X105779630Y-63204501D01*
X105779179Y-63217876D01*
X105777826Y-63230890D01*
X105775572Y-63243544D01*
X105772417Y-63255837D01*
X105768360Y-63267770D01*
X105763401Y-63279342D01*
X105757540Y-63290553D01*
X105750778Y-63301404D01*
X105743115Y-63311894D01*
X105734550Y-63322023D01*
X105728339Y-63328576D01*
X105718491Y-63337699D01*
X105708274Y-63345924D01*
X105697689Y-63353252D01*
X105686733Y-63359683D01*
X105675409Y-63365216D01*
X105663715Y-63369852D01*
X105651653Y-63373591D01*
X105639221Y-63376432D01*
X105626419Y-63378376D01*
X105613249Y-63379423D01*
X105604263Y-63379623D01*
X105345366Y-63379623D01*
X105331908Y-63379174D01*
X105318827Y-63377828D01*
X105306125Y-63375585D01*
X105293800Y-63372444D01*
X105281853Y-63368406D01*
X105270284Y-63363471D01*
X105259093Y-63357639D01*
X105248279Y-63350909D01*
X105237844Y-63343282D01*
X105227786Y-63334757D01*
X105221290Y-63328576D01*
X105212124Y-63318687D01*
X105203860Y-63308437D01*
X105196497Y-63297827D01*
X105190035Y-63286856D01*
X105184475Y-63275525D01*
X105179817Y-63263832D01*
X105176060Y-63251780D01*
X105173205Y-63239366D01*
X105171252Y-63226592D01*
X105170200Y-63213457D01*
X105170000Y-63204501D01*
X105170000Y-62394347D01*
X105420104Y-62394347D01*
X105420104Y-62999825D01*
X105420748Y-63009957D01*
X105423127Y-63020997D01*
X105427260Y-63031195D01*
X105433145Y-63040552D01*
X105438422Y-63046720D01*
X105446669Y-63054428D01*
X105455593Y-63060244D01*
X105465195Y-63064166D01*
X105475475Y-63066194D01*
X105481653Y-63066503D01*
X105499972Y-63066503D01*
X105510639Y-63065557D01*
X105520628Y-63062717D01*
X105529940Y-63057983D01*
X105538573Y-63051356D01*
X105543203Y-63046720D01*
X105550055Y-63037964D01*
X105555224Y-63028367D01*
X105558710Y-63017929D01*
X105560513Y-63006649D01*
X105560788Y-62999825D01*
X105560788Y-62394347D01*
X106139155Y-62394347D01*
X106139155Y-63379623D01*
X105889050Y-63379623D01*
G37*
G36*
X105592051Y-64318736D02*
G01*
X105591723Y-64331791D01*
X105590738Y-64344515D01*
X105589097Y-64356910D01*
X105586800Y-64368974D01*
X105583846Y-64380708D01*
X105580236Y-64392112D01*
X105575969Y-64403186D01*
X105571046Y-64413930D01*
X105565467Y-64424344D01*
X105559231Y-64434427D01*
X105552339Y-64444181D01*
X105544790Y-64453604D01*
X105536585Y-64462698D01*
X105527724Y-64471461D01*
X105518206Y-64479894D01*
X105508032Y-64487997D01*
X105500052Y-64494918D01*
X105491988Y-64501392D01*
X105483840Y-64507420D01*
X105475608Y-64513001D01*
X105467293Y-64518136D01*
X105454662Y-64525001D01*
X105441842Y-64530861D01*
X105428833Y-64535717D01*
X105415635Y-64539568D01*
X105402249Y-64542415D01*
X105388673Y-64544257D01*
X105374909Y-64545094D01*
X105370279Y-64545150D01*
X105360323Y-64544926D01*
X105350545Y-64544257D01*
X105336210Y-64542415D01*
X105322274Y-64539568D01*
X105308738Y-64535717D01*
X105295601Y-64530861D01*
X105282864Y-64525001D01*
X105270525Y-64518136D01*
X105258586Y-64510266D01*
X105247047Y-64501392D01*
X105239575Y-64494918D01*
X105232281Y-64487997D01*
X105224739Y-64479808D01*
X105217684Y-64471300D01*
X105211115Y-64462474D01*
X105205033Y-64453329D01*
X105199437Y-64443866D01*
X105194328Y-64434084D01*
X105189706Y-64423983D01*
X105185570Y-64413564D01*
X105181921Y-64402826D01*
X105178758Y-64391769D01*
X105176082Y-64380393D01*
X105173892Y-64368699D01*
X105172189Y-64356687D01*
X105170973Y-64344355D01*
X105170243Y-64331705D01*
X105170000Y-64318736D01*
X105170000Y-63559874D01*
X105361730Y-63559874D01*
X105361730Y-64114061D01*
X105361801Y-64124600D01*
X105362013Y-64134692D01*
X105362517Y-64147453D01*
X105363273Y-64159421D01*
X105364280Y-64170595D01*
X105365540Y-64180976D01*
X105367468Y-64192835D01*
X105369790Y-64203454D01*
X105373460Y-64213165D01*
X105378913Y-64221956D01*
X105386690Y-64228653D01*
X105396116Y-64231779D01*
X105400076Y-64232030D01*
X105410138Y-64230660D01*
X105418643Y-64225672D01*
X105420348Y-64223726D01*
X105426344Y-64215174D01*
X105430867Y-64205547D01*
X105433917Y-64194845D01*
X105435360Y-64184815D01*
X105435736Y-64175854D01*
X105435736Y-63787020D01*
X105435968Y-63773966D01*
X105436663Y-63761244D01*
X105437822Y-63748855D01*
X105439445Y-63736797D01*
X105441532Y-63725072D01*
X105444082Y-63713678D01*
X105447096Y-63702617D01*
X105450573Y-63691887D01*
X105454515Y-63681490D01*
X105458920Y-63671424D01*
X105463788Y-63661691D01*
X105469121Y-63652289D01*
X105474917Y-63643220D01*
X105481176Y-63634482D01*
X105487900Y-63626077D01*
X105495087Y-63618004D01*
X105501999Y-63610965D01*
X105509241Y-63604380D01*
X105520724Y-63595354D01*
X105532949Y-63587349D01*
X105541512Y-63582581D01*
X105550405Y-63578267D01*
X105559628Y-63574406D01*
X105569181Y-63571000D01*
X105579064Y-63568048D01*
X105589278Y-63565551D01*
X105599821Y-63563507D01*
X105610695Y-63561918D01*
X105621898Y-63560782D01*
X105633432Y-63560101D01*
X105645296Y-63559874D01*
X105655592Y-63560100D01*
X105665660Y-63560778D01*
X105675498Y-63561909D01*
X105689827Y-63564453D01*
X105703640Y-63568014D01*
X105716937Y-63572593D01*
X105729720Y-63578189D01*
X105741988Y-63584803D01*
X105753740Y-63592435D01*
X105764977Y-63601083D01*
X105775699Y-63610750D01*
X105782561Y-63617759D01*
X105789777Y-63625862D01*
X105796528Y-63634295D01*
X105802814Y-63643059D01*
X105808633Y-63652152D01*
X105813988Y-63661575D01*
X105818876Y-63671329D01*
X105823300Y-63681412D01*
X105827257Y-63691826D01*
X105830749Y-63702570D01*
X105833775Y-63713644D01*
X105836336Y-63725048D01*
X105838431Y-63736782D01*
X105840061Y-63748846D01*
X105841225Y-63761241D01*
X105841923Y-63773965D01*
X105842156Y-63787020D01*
X105842156Y-64453070D01*
X105650425Y-64453070D01*
X105650425Y-63950662D01*
X105650234Y-63939277D01*
X105649662Y-63928475D01*
X105648708Y-63918259D01*
X105647059Y-63906770D01*
X105644861Y-63896122D01*
X105642609Y-63887892D01*
X105637176Y-63879410D01*
X105628812Y-63874172D01*
X105620872Y-63872993D01*
X105611101Y-63875562D01*
X105603621Y-63882355D01*
X105598599Y-63890846D01*
X105596936Y-63894731D01*
X105594799Y-63905187D01*
X105593430Y-63916265D01*
X105592628Y-63927193D01*
X105592223Y-63937310D01*
X105592056Y-63948345D01*
X105592051Y-63950662D01*
X105592051Y-64318736D01*
G37*
G36*
X105842156Y-65163084D02*
G01*
X105842156Y-65319399D01*
X105650425Y-65319399D01*
X105650425Y-65163084D01*
X105509741Y-65163084D01*
X105497460Y-65163614D01*
X105485653Y-65165206D01*
X105474318Y-65167858D01*
X105463457Y-65171571D01*
X105453069Y-65176346D01*
X105443155Y-65182181D01*
X105433713Y-65189077D01*
X105424745Y-65197034D01*
X105416330Y-65205968D01*
X105409037Y-65215306D01*
X105402866Y-65225049D01*
X105397817Y-65235197D01*
X105393890Y-65245749D01*
X105391085Y-65256705D01*
X105389402Y-65268066D01*
X105388841Y-65279832D01*
X105388841Y-65389741D01*
X105170000Y-65389741D01*
X105170000Y-65076133D01*
X105170266Y-65064576D01*
X105171064Y-65053228D01*
X105172395Y-65042090D01*
X105174258Y-65031162D01*
X105176654Y-65020444D01*
X105179582Y-65009936D01*
X105183043Y-64999638D01*
X105187035Y-64989549D01*
X105191561Y-64979671D01*
X105196618Y-64970002D01*
X105202208Y-64960544D01*
X105208330Y-64951295D01*
X105214985Y-64942256D01*
X105222172Y-64933427D01*
X105229891Y-64924808D01*
X105238143Y-64916399D01*
X105246742Y-64908354D01*
X105255565Y-64900828D01*
X105264610Y-64893821D01*
X105273879Y-64887334D01*
X105283371Y-64881365D01*
X105293086Y-64875915D01*
X105303025Y-64870985D01*
X105313187Y-64866573D01*
X105323572Y-64862681D01*
X105334180Y-64859307D01*
X105345012Y-64856452D01*
X105356067Y-64854117D01*
X105367345Y-64852300D01*
X105378846Y-64851003D01*
X105390571Y-64850224D01*
X105402519Y-64849965D01*
X105650425Y-64849965D01*
X105650425Y-64725401D01*
X105842156Y-64725401D01*
X105842156Y-64849965D01*
X106139155Y-64849965D01*
X106139155Y-65163084D01*
X105842156Y-65163084D01*
G37*
G36*
X105377139Y-65461307D02*
G01*
X105387647Y-65462049D01*
X105397892Y-65463284D01*
X105407877Y-65465014D01*
X105417600Y-65467238D01*
X105427061Y-65469956D01*
X105440763Y-65474960D01*
X105453877Y-65481076D01*
X105466403Y-65488304D01*
X105478341Y-65496643D01*
X105485972Y-65502821D01*
X105493343Y-65509493D01*
X105500451Y-65516659D01*
X105507299Y-65524319D01*
X105513776Y-65532678D01*
X105519835Y-65541878D01*
X105525477Y-65551920D01*
X105530700Y-65562803D01*
X105535506Y-65574527D01*
X105539894Y-65587093D01*
X105543864Y-65600501D01*
X105547416Y-65614750D01*
X105550550Y-65629841D01*
X105553266Y-65645773D01*
X105555565Y-65662546D01*
X105557445Y-65680161D01*
X105558908Y-65698618D01*
X105559952Y-65717916D01*
X105560318Y-65727880D01*
X105560579Y-65738055D01*
X105560736Y-65748441D01*
X105560788Y-65759036D01*
X105560788Y-66027459D01*
X105560688Y-66035948D01*
X105560162Y-66048455D01*
X105559185Y-66060692D01*
X105557758Y-66072658D01*
X105555879Y-66084354D01*
X105553550Y-66095779D01*
X105550770Y-66106934D01*
X105547540Y-66117818D01*
X105543858Y-66128432D01*
X105539726Y-66138775D01*
X105535143Y-66148848D01*
X105547599Y-66148848D01*
X105557342Y-66148409D01*
X105569102Y-66146626D01*
X105580397Y-66143472D01*
X105591227Y-66138946D01*
X105601592Y-66133049D01*
X105609549Y-66127343D01*
X105617208Y-66120760D01*
X105624993Y-66112998D01*
X105631741Y-66104610D01*
X105637450Y-66095595D01*
X105642121Y-66085956D01*
X105645754Y-66075690D01*
X105648349Y-66064798D01*
X105649906Y-66053280D01*
X105650425Y-66041137D01*
X105650425Y-65536775D01*
X105842156Y-65536775D01*
X105842156Y-66216503D01*
X105841897Y-66228068D01*
X105841122Y-66239435D01*
X105839829Y-66250607D01*
X105838019Y-66261581D01*
X105835692Y-66272360D01*
X105832848Y-66282941D01*
X105829487Y-66293326D01*
X105825608Y-66303515D01*
X105821213Y-66313507D01*
X105816300Y-66323302D01*
X105810871Y-66332901D01*
X105804924Y-66342304D01*
X105798460Y-66351510D01*
X105791479Y-66360519D01*
X105783981Y-66369332D01*
X105775966Y-66377948D01*
X105767687Y-66386170D01*
X105759212Y-66393862D01*
X105750544Y-66401023D01*
X105741680Y-66407654D01*
X105732622Y-66413754D01*
X105723370Y-66419324D01*
X105713923Y-66424364D01*
X105704281Y-66428872D01*
X105694444Y-66432851D01*
X105684413Y-66436299D01*
X105674187Y-66439217D01*
X105663767Y-66441604D01*
X105653152Y-66443460D01*
X105642342Y-66444786D01*
X105631338Y-66445582D01*
X105620139Y-66445847D01*
X105378827Y-66445847D01*
X105367098Y-66445605D01*
X105355662Y-66444878D01*
X105344521Y-66443666D01*
X105333673Y-66441970D01*
X105323119Y-66439789D01*
X105312859Y-66437123D01*
X105302892Y-66433973D01*
X105293220Y-66430338D01*
X105283841Y-66426218D01*
X105274757Y-66421614D01*
X105265966Y-66416525D01*
X105257469Y-66410951D01*
X105249266Y-66404893D01*
X105241357Y-66398350D01*
X105233741Y-66391322D01*
X105226420Y-66383810D01*
X105219587Y-66375831D01*
X105213196Y-66367526D01*
X105207246Y-66358894D01*
X105201736Y-66349936D01*
X105196667Y-66340652D01*
X105192039Y-66331042D01*
X105187851Y-66321105D01*
X105184105Y-66310842D01*
X105180799Y-66300253D01*
X105177934Y-66289337D01*
X105175509Y-66278095D01*
X105173526Y-66266527D01*
X105171983Y-66254633D01*
X105170881Y-66242412D01*
X105170220Y-66229865D01*
X105170000Y-66216992D01*
X105170000Y-66086078D01*
X105326315Y-66086078D01*
X105326830Y-66093482D01*
X105329535Y-66103848D01*
X105334558Y-66113326D01*
X105340969Y-66121004D01*
X105344736Y-66124496D01*
X105353518Y-66130651D01*
X105362725Y-66134448D01*
X105373454Y-66135903D01*
X105380020Y-66135379D01*
X105389418Y-66132630D01*
X105398275Y-66127523D01*
X105405694Y-66121004D01*
X105410591Y-66115311D01*
X105416037Y-66106031D01*
X105419204Y-66095863D01*
X105420104Y-66086078D01*
X105420104Y-65821563D01*
X105419758Y-65815811D01*
X105417393Y-65806089D01*
X105412786Y-65797178D01*
X105405938Y-65789078D01*
X105402065Y-65785586D01*
X105393154Y-65779432D01*
X105383972Y-65775635D01*
X105373454Y-65774180D01*
X105368030Y-65774543D01*
X105357611Y-65777453D01*
X105348724Y-65782560D01*
X105341214Y-65789078D01*
X105336922Y-65793478D01*
X105331029Y-65802028D01*
X105327493Y-65811390D01*
X105326315Y-65821563D01*
X105326315Y-66086078D01*
X105170000Y-66086078D01*
X105170000Y-65690404D01*
X105170207Y-65677706D01*
X105170828Y-65665316D01*
X105171863Y-65653235D01*
X105173312Y-65641464D01*
X105175175Y-65630002D01*
X105177453Y-65618849D01*
X105180144Y-65608005D01*
X105183250Y-65597470D01*
X105186769Y-65587244D01*
X105190703Y-65577327D01*
X105195051Y-65567720D01*
X105199812Y-65558422D01*
X105204988Y-65549432D01*
X105210578Y-65540752D01*
X105216582Y-65532381D01*
X105223000Y-65524319D01*
X105229848Y-65516659D01*
X105236956Y-65509493D01*
X105244327Y-65502821D01*
X105251958Y-65496643D01*
X105263896Y-65488304D01*
X105276422Y-65481076D01*
X105289536Y-65474960D01*
X105303238Y-65469956D01*
X105312699Y-65467238D01*
X105322422Y-65465014D01*
X105332407Y-65463284D01*
X105342652Y-65462049D01*
X105353160Y-65461307D01*
X105363928Y-65461060D01*
X105366371Y-65461060D01*
X105377139Y-65461307D01*
G37*
G36*
X105565673Y-66618771D02*
G01*
X105579859Y-66619086D01*
X105593780Y-66620031D01*
X105607436Y-66621605D01*
X105620826Y-66623809D01*
X105633951Y-66626642D01*
X105646811Y-66630106D01*
X105659406Y-66634199D01*
X105671735Y-66638921D01*
X105683800Y-66644274D01*
X105695599Y-66650256D01*
X105707132Y-66656867D01*
X105718401Y-66664109D01*
X105729404Y-66671980D01*
X105740142Y-66680481D01*
X105750615Y-66689611D01*
X105760823Y-66699371D01*
X105770672Y-66709606D01*
X105779885Y-66720098D01*
X105788463Y-66730847D01*
X105796406Y-66741854D01*
X105803713Y-66753119D01*
X105810385Y-66764642D01*
X105816422Y-66776421D01*
X105821823Y-66788459D01*
X105826588Y-66800754D01*
X105830718Y-66813307D01*
X105834213Y-66826117D01*
X105837073Y-66839185D01*
X105839296Y-66852511D01*
X105840885Y-66866094D01*
X105841838Y-66879935D01*
X105842156Y-66894033D01*
X105842156Y-67517585D01*
X105650425Y-67517585D01*
X105650425Y-67029832D01*
X105650056Y-67017309D01*
X105648948Y-67005752D01*
X105647102Y-66995161D01*
X105644518Y-66985536D01*
X105639923Y-66974206D01*
X105634015Y-66964592D01*
X105626795Y-66956697D01*
X105618261Y-66950518D01*
X105608415Y-66946057D01*
X105597757Y-66942737D01*
X105586907Y-66939859D01*
X105575866Y-66937424D01*
X105564635Y-66935432D01*
X105553213Y-66933883D01*
X105541600Y-66932776D01*
X105529796Y-66932112D01*
X105517801Y-66931891D01*
X105494842Y-66931891D01*
X105482905Y-66932112D01*
X105471151Y-66932776D01*
X105459580Y-66933883D01*
X105448192Y-66935432D01*
X105436987Y-66937424D01*
X105425966Y-66939859D01*
X105415128Y-66942737D01*
X105404473Y-66946057D01*
X105394455Y-66950518D01*
X105385773Y-66956697D01*
X105378426Y-66964592D01*
X105372416Y-66974206D01*
X105367741Y-66985536D01*
X105365111Y-66995161D01*
X105363233Y-67005752D01*
X105362106Y-67017309D01*
X105361730Y-67029832D01*
X105361730Y-67517585D01*
X105170000Y-67517585D01*
X105170000Y-66894033D01*
X105170314Y-66879935D01*
X105171259Y-66866094D01*
X105172833Y-66852511D01*
X105175037Y-66839185D01*
X105177871Y-66826117D01*
X105181334Y-66813307D01*
X105185427Y-66800754D01*
X105190150Y-66788459D01*
X105195502Y-66776421D01*
X105201484Y-66764642D01*
X105208096Y-66753119D01*
X105215337Y-66741854D01*
X105223208Y-66730847D01*
X105231709Y-66720098D01*
X105240839Y-66709606D01*
X105250600Y-66699371D01*
X105260896Y-66689611D01*
X105271452Y-66680481D01*
X105282267Y-66671980D01*
X105293342Y-66664109D01*
X105304677Y-66656867D01*
X105316270Y-66650256D01*
X105328124Y-66644274D01*
X105340237Y-66638921D01*
X105352609Y-66634199D01*
X105365241Y-66630106D01*
X105378133Y-66626642D01*
X105391284Y-66623809D01*
X105404694Y-66621605D01*
X105418364Y-66620031D01*
X105432293Y-66619086D01*
X105446482Y-66618771D01*
X105565673Y-66618771D01*
G37*
G36*
X106139155Y-68006559D02*
G01*
X105807229Y-68006559D01*
X105813471Y-68017086D01*
X105819099Y-68027785D01*
X105824113Y-68038656D01*
X105828513Y-68049699D01*
X105832299Y-68060913D01*
X105835471Y-68072299D01*
X105838029Y-68083856D01*
X105839973Y-68095586D01*
X105841303Y-68107487D01*
X105842019Y-68119560D01*
X105842156Y-68127704D01*
X105842156Y-68450348D01*
X105841875Y-68463494D01*
X105841034Y-68476307D01*
X105839631Y-68488788D01*
X105837668Y-68500937D01*
X105835143Y-68512754D01*
X105832058Y-68524240D01*
X105828411Y-68535393D01*
X105824204Y-68546214D01*
X105819436Y-68556703D01*
X105814106Y-68566860D01*
X105808216Y-68576685D01*
X105801764Y-68586178D01*
X105794752Y-68595339D01*
X105787178Y-68604168D01*
X105779044Y-68612665D01*
X105770348Y-68620830D01*
X105762061Y-68627840D01*
X105753564Y-68634397D01*
X105744857Y-68640502D01*
X105735941Y-68646155D01*
X105726814Y-68651356D01*
X105717477Y-68656104D01*
X105707931Y-68660400D01*
X105698175Y-68664244D01*
X105688208Y-68667636D01*
X105678032Y-68670575D01*
X105667646Y-68673063D01*
X105657050Y-68675098D01*
X105646244Y-68676680D01*
X105635229Y-68677811D01*
X105624003Y-68678489D01*
X105612568Y-68678715D01*
X105598936Y-68678408D01*
X105585640Y-68677487D01*
X105572680Y-68675951D01*
X105560055Y-68673800D01*
X105547767Y-68671035D01*
X105535814Y-68667656D01*
X105524197Y-68663662D01*
X105512916Y-68659054D01*
X105501971Y-68653831D01*
X105491362Y-68647994D01*
X105481089Y-68641543D01*
X105471151Y-68634477D01*
X105461549Y-68626797D01*
X105452283Y-68618502D01*
X105443353Y-68609593D01*
X105434759Y-68600069D01*
X105425917Y-68609593D01*
X105416795Y-68618502D01*
X105407393Y-68626797D01*
X105397710Y-68634477D01*
X105387747Y-68641543D01*
X105377503Y-68647994D01*
X105366978Y-68653831D01*
X105356174Y-68659054D01*
X105345088Y-68663662D01*
X105333722Y-68667656D01*
X105322076Y-68671035D01*
X105310149Y-68673800D01*
X105297942Y-68675951D01*
X105285454Y-68677487D01*
X105272685Y-68678408D01*
X105259637Y-68678715D01*
X105170000Y-68678715D01*
X105170000Y-68365596D01*
X105198820Y-68365596D01*
X105208620Y-68365281D01*
X105221260Y-68363878D01*
X105233411Y-68361354D01*
X105245074Y-68357707D01*
X105256248Y-68352939D01*
X105266933Y-68347048D01*
X105277131Y-68340036D01*
X105286839Y-68331901D01*
X105289190Y-68329692D01*
X105297891Y-68320667D01*
X105305432Y-68311176D01*
X105311813Y-68301219D01*
X105317034Y-68290797D01*
X105321094Y-68279909D01*
X105323995Y-68268555D01*
X105325735Y-68256736D01*
X105326315Y-68244452D01*
X105326315Y-68006559D01*
X105518046Y-68006559D01*
X105518046Y-68314061D01*
X105518630Y-68324104D01*
X105520874Y-68334660D01*
X105525619Y-68344913D01*
X105532655Y-68352945D01*
X105541981Y-68358757D01*
X105551622Y-68362364D01*
X105561645Y-68364467D01*
X105571625Y-68365429D01*
X105578374Y-68365596D01*
X105588566Y-68364600D01*
X105598260Y-68361612D01*
X105607457Y-68356632D01*
X105616155Y-68349659D01*
X105623023Y-68342327D01*
X105626978Y-68337264D01*
X105632473Y-68328624D01*
X105637236Y-68319190D01*
X105641266Y-68308962D01*
X105644563Y-68297941D01*
X105647128Y-68286126D01*
X105648960Y-68273517D01*
X105649853Y-68263539D01*
X105650334Y-68253115D01*
X105650425Y-68245917D01*
X105650425Y-68127704D01*
X105649971Y-68115461D01*
X105648609Y-68103646D01*
X105646338Y-68092258D01*
X105643159Y-68081297D01*
X105639072Y-68070765D01*
X105634076Y-68060659D01*
X105628172Y-68050981D01*
X105621360Y-68041730D01*
X105614018Y-68033487D01*
X105606278Y-68026343D01*
X105598142Y-68020298D01*
X105589609Y-68015352D01*
X105578384Y-68010715D01*
X105566539Y-68007796D01*
X105556617Y-68006697D01*
X105551507Y-68006559D01*
X105518046Y-68006559D01*
X105326315Y-68006559D01*
X105170000Y-68006559D01*
X105170000Y-67693440D01*
X106139155Y-67693440D01*
X106139155Y-68006559D01*
G37*
G36*
X105154368Y-68767864D02*
G01*
X106162602Y-69165736D01*
X106162602Y-69420725D01*
X105154368Y-69023586D01*
X105154368Y-68767864D01*
G37*
G36*
X105170000Y-69827634D02*
G01*
X105170000Y-69514515D01*
X105837759Y-69514515D01*
X105853217Y-69514861D01*
X105868389Y-69515900D01*
X105883274Y-69517631D01*
X105897874Y-69520056D01*
X105912187Y-69523173D01*
X105926214Y-69526982D01*
X105939954Y-69531485D01*
X105953408Y-69536680D01*
X105966577Y-69542567D01*
X105979458Y-69549147D01*
X105992054Y-69556420D01*
X106004364Y-69564386D01*
X106016387Y-69573044D01*
X106028124Y-69582395D01*
X106039575Y-69592438D01*
X106050739Y-69603175D01*
X106061446Y-69614402D01*
X106071462Y-69625920D01*
X106080787Y-69637727D01*
X106089421Y-69649825D01*
X106097365Y-69662213D01*
X106104618Y-69674890D01*
X106111180Y-69687858D01*
X106117051Y-69701116D01*
X106122232Y-69714664D01*
X106126722Y-69728502D01*
X106130521Y-69742630D01*
X106133629Y-69757048D01*
X106136047Y-69771756D01*
X106137774Y-69786754D01*
X106138810Y-69802042D01*
X106139155Y-69817620D01*
X106139155Y-70082379D01*
X106139026Y-70092175D01*
X106137994Y-70111375D01*
X106135929Y-70130052D01*
X106132832Y-70148206D01*
X106128703Y-70165837D01*
X106123541Y-70182946D01*
X106117348Y-70199531D01*
X106110121Y-70215594D01*
X106101863Y-70231134D01*
X106092572Y-70246151D01*
X106082249Y-70260645D01*
X106070894Y-70274617D01*
X106058506Y-70288065D01*
X106045086Y-70300991D01*
X106030634Y-70313394D01*
X106015149Y-70325274D01*
X106007020Y-70331018D01*
X106015149Y-70336701D01*
X106023021Y-70342512D01*
X106037989Y-70354523D01*
X106051925Y-70367051D01*
X106064829Y-70380096D01*
X106076701Y-70393658D01*
X106087540Y-70407737D01*
X106097347Y-70422334D01*
X106106121Y-70437447D01*
X106113864Y-70453078D01*
X106120574Y-70469225D01*
X106126251Y-70485890D01*
X106130897Y-70503072D01*
X106134510Y-70520771D01*
X106137091Y-70538987D01*
X106138639Y-70557721D01*
X106139155Y-70576971D01*
X106139155Y-70840020D01*
X106138810Y-70855359D01*
X106137774Y-70870417D01*
X106136047Y-70885195D01*
X106133629Y-70899692D01*
X106130521Y-70913909D01*
X106126722Y-70927845D01*
X106122232Y-70941500D01*
X106117051Y-70954876D01*
X106111180Y-70967970D01*
X106104618Y-70980784D01*
X106097365Y-70993318D01*
X106089421Y-71005571D01*
X106080787Y-71017544D01*
X106071462Y-71029236D01*
X106061446Y-71040648D01*
X106050739Y-71051779D01*
X106039575Y-71062426D01*
X106028124Y-71072387D01*
X106016387Y-71081661D01*
X106004364Y-71090247D01*
X105992054Y-71098147D01*
X105979458Y-71105360D01*
X105966577Y-71111886D01*
X105953408Y-71117725D01*
X105939954Y-71122877D01*
X105926214Y-71127342D01*
X105912187Y-71131120D01*
X105897874Y-71134211D01*
X105883274Y-71136615D01*
X105868389Y-71138333D01*
X105853217Y-71139363D01*
X105837759Y-71139706D01*
X105170000Y-71139706D01*
X105170000Y-70826587D01*
X105753007Y-70826587D01*
X105769481Y-70823799D01*
X105784892Y-70819954D01*
X105799241Y-70815052D01*
X105812526Y-70809093D01*
X105824749Y-70802077D01*
X105835909Y-70794004D01*
X105846006Y-70784873D01*
X105855040Y-70774685D01*
X105863011Y-70763441D01*
X105869919Y-70751139D01*
X105875765Y-70737780D01*
X105880548Y-70723364D01*
X105884268Y-70707891D01*
X105886925Y-70691360D01*
X105888519Y-70673773D01*
X105889050Y-70655129D01*
X105888519Y-70636570D01*
X105886925Y-70619057D01*
X105884268Y-70602590D01*
X105880548Y-70587168D01*
X105875765Y-70572792D01*
X105869919Y-70559462D01*
X105863011Y-70547177D01*
X105855040Y-70535938D01*
X105846006Y-70525745D01*
X105835909Y-70516597D01*
X105824749Y-70508495D01*
X105812526Y-70501439D01*
X105799241Y-70495428D01*
X105784892Y-70490463D01*
X105769481Y-70486544D01*
X105753007Y-70483670D01*
X105170000Y-70483670D01*
X105170000Y-70170551D01*
X105753007Y-70170551D01*
X105769481Y-70167878D01*
X105784892Y-70164136D01*
X105799241Y-70159322D01*
X105812526Y-70153439D01*
X105824749Y-70146484D01*
X105835909Y-70138460D01*
X105846006Y-70129364D01*
X105855040Y-70119199D01*
X105863011Y-70107963D01*
X105869919Y-70095656D01*
X105875765Y-70082279D01*
X105880548Y-70067831D01*
X105884268Y-70052313D01*
X105886925Y-70035725D01*
X105888519Y-70018066D01*
X105889050Y-69999337D01*
X105888519Y-69980519D01*
X105886925Y-69962780D01*
X105884268Y-69946119D01*
X105880548Y-69930536D01*
X105875765Y-69916032D01*
X105869919Y-69902605D01*
X105863011Y-69890256D01*
X105855040Y-69878986D01*
X105846006Y-69868794D01*
X105835909Y-69859679D01*
X105824749Y-69851643D01*
X105812526Y-69844685D01*
X105799241Y-69838805D01*
X105784892Y-69834003D01*
X105769481Y-69830279D01*
X105753007Y-69827634D01*
X105170000Y-69827634D01*
G37*
G36*
X105420104Y-72005303D02*
G01*
X105420735Y-72015120D01*
X105423002Y-72024738D01*
X105427523Y-72033513D01*
X105433293Y-72039497D01*
X105441847Y-72044907D01*
X105451020Y-72048313D01*
X105460814Y-72049715D01*
X105462847Y-72049755D01*
X105502414Y-72049755D01*
X105512332Y-72048753D01*
X105521629Y-72045748D01*
X105530306Y-72040739D01*
X105531967Y-72039497D01*
X105538923Y-72031750D01*
X105542980Y-72022494D01*
X105544835Y-72012449D01*
X105545157Y-72005303D01*
X105545157Y-71490195D01*
X105545607Y-71476822D01*
X105546960Y-71463814D01*
X105549214Y-71451171D01*
X105552369Y-71438892D01*
X105556427Y-71426979D01*
X105561385Y-71415431D01*
X105567246Y-71404247D01*
X105574008Y-71393429D01*
X105581671Y-71382975D01*
X105590236Y-71372887D01*
X105596448Y-71366364D01*
X105606253Y-71357198D01*
X105616437Y-71348933D01*
X105626999Y-71341570D01*
X105637938Y-71335108D01*
X105649255Y-71329548D01*
X105660951Y-71324890D01*
X105673023Y-71321134D01*
X105685474Y-71318278D01*
X105698303Y-71316325D01*
X105711509Y-71315273D01*
X105720523Y-71315073D01*
X105962812Y-71315073D01*
X105976318Y-71315524D01*
X105989450Y-71316876D01*
X106002210Y-71319130D01*
X106014595Y-71322286D01*
X106026607Y-71326343D01*
X106038246Y-71331302D01*
X106049511Y-71337162D01*
X106060402Y-71343924D01*
X106070920Y-71351588D01*
X106081064Y-71360153D01*
X106087620Y-71366364D01*
X106096830Y-71376122D01*
X106105134Y-71386253D01*
X106112532Y-71396758D01*
X106119024Y-71407637D01*
X106124611Y-71418889D01*
X106129291Y-71430515D01*
X106133066Y-71442514D01*
X106135934Y-71454887D01*
X106137897Y-71467633D01*
X106138954Y-71480752D01*
X106139155Y-71489706D01*
X106139155Y-72279588D01*
X105889050Y-72279588D01*
X105889050Y-71609874D01*
X105888419Y-71599961D01*
X105886152Y-71590264D01*
X105881632Y-71581435D01*
X105875861Y-71575436D01*
X105867380Y-71570026D01*
X105857499Y-71566390D01*
X105847041Y-71565177D01*
X105805519Y-71565177D01*
X105795339Y-71566390D01*
X105785621Y-71570026D01*
X105777187Y-71575436D01*
X105770232Y-71583207D01*
X105766175Y-71592525D01*
X105764320Y-71602658D01*
X105763998Y-71609874D01*
X105763998Y-72117411D01*
X105763522Y-72131368D01*
X105762092Y-72144939D01*
X105759709Y-72158124D01*
X105756373Y-72170923D01*
X105752084Y-72183335D01*
X105746842Y-72195360D01*
X105740647Y-72206999D01*
X105733498Y-72218252D01*
X105725397Y-72229119D01*
X105716342Y-72239599D01*
X105709776Y-72246371D01*
X105699597Y-72255930D01*
X105689028Y-72264549D01*
X105678068Y-72272227D01*
X105666717Y-72278966D01*
X105654975Y-72284764D01*
X105642843Y-72289622D01*
X105630320Y-72293539D01*
X105617407Y-72296517D01*
X105604102Y-72298554D01*
X105590407Y-72299651D01*
X105581060Y-72299860D01*
X105352205Y-72299860D01*
X105338249Y-72299392D01*
X105324684Y-72297988D01*
X105311510Y-72295648D01*
X105298727Y-72292372D01*
X105286334Y-72288161D01*
X105274332Y-72283013D01*
X105262721Y-72276929D01*
X105251500Y-72269910D01*
X105240670Y-72261954D01*
X105230231Y-72253063D01*
X105223489Y-72246615D01*
X105213930Y-72236482D01*
X105205311Y-72225958D01*
X105197632Y-72215044D01*
X105190894Y-72203739D01*
X105185096Y-72192043D01*
X105180238Y-72179957D01*
X105176320Y-72167480D01*
X105173343Y-72154612D01*
X105171305Y-72141353D01*
X105170208Y-72127704D01*
X105170000Y-72118387D01*
X105170000Y-71335101D01*
X105420104Y-71335101D01*
X105420104Y-72005303D01*
G37*
G36*
X106139155Y-73276343D02*
G01*
X106139155Y-73589462D01*
X105877571Y-73589462D01*
X105861144Y-73588937D01*
X105845140Y-73587363D01*
X105829560Y-73584740D01*
X105814404Y-73581066D01*
X105799671Y-73576344D01*
X105785362Y-73570572D01*
X105771476Y-73563750D01*
X105758014Y-73555879D01*
X105744976Y-73546958D01*
X105732361Y-73536988D01*
X105720170Y-73525969D01*
X105708402Y-73513900D01*
X105697058Y-73500781D01*
X105686138Y-73486613D01*
X105675641Y-73471396D01*
X105665568Y-73455129D01*
X105660312Y-73463393D01*
X105649493Y-73479135D01*
X105638265Y-73493828D01*
X105626629Y-73507471D01*
X105614585Y-73520065D01*
X105602132Y-73531610D01*
X105589271Y-73542104D01*
X105576002Y-73551550D01*
X105562325Y-73559946D01*
X105548239Y-73567292D01*
X105533744Y-73573589D01*
X105518842Y-73578836D01*
X105503531Y-73583034D01*
X105487811Y-73586183D01*
X105471684Y-73588281D01*
X105455148Y-73589331D01*
X105446727Y-73589462D01*
X105170000Y-73589462D01*
X105170000Y-73276343D01*
X105397878Y-73276343D01*
X105409384Y-73275907D01*
X105420547Y-73274600D01*
X105431366Y-73272421D01*
X105441842Y-73269370D01*
X105451974Y-73265449D01*
X105461763Y-73260655D01*
X105471208Y-73254990D01*
X105480310Y-73248453D01*
X105489068Y-73241045D01*
X105497483Y-73232766D01*
X105502903Y-73226762D01*
X105510454Y-73217149D01*
X105517262Y-73207181D01*
X105523328Y-73196856D01*
X105528651Y-73186175D01*
X105533231Y-73175138D01*
X105537069Y-73163744D01*
X105540164Y-73151994D01*
X105542516Y-73139887D01*
X105544125Y-73127425D01*
X105544991Y-73114605D01*
X105545157Y-73105861D01*
X105545157Y-72963224D01*
X105544785Y-72950167D01*
X105543671Y-72937466D01*
X105541814Y-72925122D01*
X105539215Y-72913135D01*
X105535872Y-72901503D01*
X105531787Y-72890228D01*
X105526959Y-72879310D01*
X105521389Y-72868747D01*
X105515075Y-72858541D01*
X105508019Y-72848692D01*
X105502903Y-72842323D01*
X105494717Y-72833463D01*
X105486187Y-72825473D01*
X105477314Y-72818356D01*
X105468098Y-72812110D01*
X105458538Y-72806735D01*
X105448635Y-72802232D01*
X105438388Y-72798601D01*
X105427798Y-72795841D01*
X105416864Y-72793952D01*
X105405587Y-72792936D01*
X105397878Y-72792742D01*
X105170000Y-72792742D01*
X105170000Y-72479623D01*
X105446727Y-72479623D01*
X105463467Y-72480147D01*
X105479799Y-72481722D01*
X105495722Y-72484345D01*
X105511237Y-72488019D01*
X105526344Y-72492741D01*
X105541043Y-72498513D01*
X105555333Y-72505335D01*
X105569214Y-72513206D01*
X105582688Y-72522127D01*
X105595753Y-72532097D01*
X105608410Y-72543116D01*
X105620658Y-72555185D01*
X105632498Y-72568304D01*
X105643930Y-72582472D01*
X105654953Y-72597689D01*
X105665568Y-72613956D01*
X105675641Y-72597689D01*
X105686138Y-72582472D01*
X105697058Y-72568304D01*
X105708402Y-72555185D01*
X105720170Y-72543116D01*
X105732361Y-72532097D01*
X105744976Y-72522127D01*
X105758014Y-72513206D01*
X105771476Y-72505335D01*
X105785362Y-72498513D01*
X105799671Y-72492741D01*
X105814404Y-72488019D01*
X105829560Y-72484345D01*
X105845140Y-72481722D01*
X105861144Y-72480147D01*
X105877571Y-72479623D01*
X106139155Y-72479623D01*
X106139155Y-72792742D01*
X105926908Y-72792742D01*
X105916617Y-72793135D01*
X105906626Y-72794313D01*
X105896936Y-72796278D01*
X105887547Y-72799027D01*
X105875495Y-72803916D01*
X105866807Y-72808499D01*
X105858419Y-72813868D01*
X105850332Y-72820023D01*
X105842545Y-72826963D01*
X105835059Y-72834689D01*
X105832630Y-72837438D01*
X105825952Y-72846159D01*
X105819931Y-72855193D01*
X105814566Y-72864540D01*
X105809859Y-72874201D01*
X105805808Y-72884175D01*
X105802414Y-72894462D01*
X105799677Y-72905063D01*
X105797597Y-72915978D01*
X105796174Y-72927206D01*
X105795407Y-72938747D01*
X105795261Y-72946615D01*
X105795261Y-73122470D01*
X105795590Y-73134220D01*
X105796575Y-73145657D01*
X105798217Y-73156780D01*
X105800516Y-73167590D01*
X105803472Y-73178086D01*
X105807085Y-73188269D01*
X105811355Y-73198139D01*
X105816281Y-73207695D01*
X105821865Y-73216938D01*
X105828105Y-73225868D01*
X105832630Y-73231646D01*
X105840016Y-73239634D01*
X105847703Y-73246836D01*
X105855690Y-73253253D01*
X105863977Y-73258883D01*
X105872565Y-73263728D01*
X105881454Y-73267788D01*
X105893773Y-73271978D01*
X105903363Y-73274204D01*
X105913253Y-73275644D01*
X105923444Y-73276299D01*
X105926908Y-73276343D01*
X106139155Y-73276343D01*
G37*
G36*
X105852573Y-73763706D02*
G01*
X105867828Y-73764733D01*
X105882791Y-73766446D01*
X105897462Y-73768843D01*
X105911840Y-73771926D01*
X105925927Y-73775694D01*
X105939722Y-73780146D01*
X105953225Y-73785284D01*
X105966436Y-73791107D01*
X105979355Y-73797614D01*
X105991983Y-73804807D01*
X106004318Y-73812685D01*
X106016361Y-73821248D01*
X106028112Y-73830496D01*
X106039572Y-73840428D01*
X106050739Y-73851046D01*
X106061446Y-73862265D01*
X106071462Y-73873757D01*
X106080787Y-73885522D01*
X106089421Y-73897559D01*
X106097365Y-73909870D01*
X106104618Y-73922453D01*
X106111180Y-73935309D01*
X106117051Y-73948438D01*
X106122232Y-73961840D01*
X106126722Y-73975515D01*
X106130521Y-73989462D01*
X106133629Y-74003683D01*
X106136047Y-74018176D01*
X106137774Y-74032942D01*
X106138810Y-74047981D01*
X106139155Y-74063293D01*
X106139155Y-74417445D01*
X106138810Y-74432843D01*
X106137774Y-74447957D01*
X106136047Y-74462786D01*
X106133629Y-74477331D01*
X106130521Y-74491591D01*
X106126722Y-74505567D01*
X106122232Y-74519259D01*
X106117051Y-74532667D01*
X106111180Y-74545790D01*
X106104618Y-74558629D01*
X106097365Y-74571184D01*
X106089421Y-74583454D01*
X106080787Y-74595440D01*
X106071462Y-74607142D01*
X106061446Y-74618559D01*
X106050739Y-74629692D01*
X106039572Y-74640310D01*
X106028112Y-74650243D01*
X106016361Y-74659491D01*
X106004318Y-74668054D01*
X105991983Y-74675932D01*
X105979355Y-74683124D01*
X105966436Y-74689632D01*
X105953225Y-74695455D01*
X105939722Y-74700593D01*
X105925927Y-74705045D01*
X105911840Y-74708813D01*
X105897462Y-74711895D01*
X105882791Y-74714293D01*
X105867828Y-74716006D01*
X105852573Y-74717033D01*
X105837027Y-74717376D01*
X105471395Y-74717376D01*
X105455937Y-74717033D01*
X105440766Y-74716006D01*
X105425880Y-74714293D01*
X105411281Y-74711895D01*
X105396968Y-74708813D01*
X105382941Y-74705045D01*
X105369201Y-74700593D01*
X105355746Y-74695455D01*
X105342578Y-74689632D01*
X105329696Y-74683124D01*
X105317100Y-74675932D01*
X105304791Y-74668054D01*
X105292768Y-74659491D01*
X105281031Y-74650243D01*
X105269580Y-74640310D01*
X105258415Y-74629692D01*
X105247709Y-74618559D01*
X105237693Y-74607142D01*
X105228368Y-74595440D01*
X105219733Y-74583454D01*
X105211790Y-74571184D01*
X105204537Y-74558629D01*
X105197975Y-74545790D01*
X105192103Y-74532667D01*
X105186923Y-74519259D01*
X105182433Y-74505567D01*
X105178634Y-74491591D01*
X105175525Y-74477331D01*
X105173108Y-74462786D01*
X105171381Y-74447957D01*
X105170345Y-74432843D01*
X105170000Y-74417445D01*
X105170000Y-74281158D01*
X105420104Y-74281158D01*
X105420596Y-74293174D01*
X105422071Y-74304674D01*
X105424528Y-74315659D01*
X105427970Y-74326129D01*
X105432394Y-74336084D01*
X105437801Y-74345524D01*
X105444192Y-74354448D01*
X105451566Y-74362857D01*
X105459923Y-74370751D01*
X105469263Y-74378130D01*
X105476036Y-74382763D01*
X105486629Y-74386604D01*
X105497617Y-74390067D01*
X105509000Y-74393153D01*
X105520778Y-74395860D01*
X105532951Y-74398190D01*
X105545519Y-74400142D01*
X105558482Y-74401717D01*
X105571840Y-74402913D01*
X105585593Y-74403732D01*
X105599741Y-74404172D01*
X105609392Y-74404256D01*
X105699274Y-74404256D01*
X105713816Y-74404128D01*
X105727950Y-74403741D01*
X105741677Y-74403097D01*
X105754995Y-74402196D01*
X105767906Y-74401036D01*
X105780409Y-74399620D01*
X105792504Y-74397945D01*
X105804191Y-74396013D01*
X105815471Y-74393824D01*
X105826342Y-74391376D01*
X105833363Y-74389602D01*
X105843315Y-74382506D01*
X105852288Y-74374775D01*
X105860282Y-74366409D01*
X105867298Y-74357407D01*
X105873334Y-74347770D01*
X105878392Y-74337498D01*
X105882470Y-74326590D01*
X105885570Y-74315047D01*
X105887691Y-74302868D01*
X105888833Y-74290054D01*
X105889050Y-74281158D01*
X105889050Y-74199581D01*
X105888561Y-74187524D01*
X105887093Y-74175990D01*
X105884645Y-74164981D01*
X105881219Y-74154495D01*
X105876814Y-74144533D01*
X105871431Y-74135095D01*
X105865068Y-74126181D01*
X105857726Y-74117790D01*
X105849406Y-74109923D01*
X105840106Y-74102580D01*
X105833363Y-74097976D01*
X105822764Y-74094135D01*
X105811756Y-74090671D01*
X105800341Y-74087586D01*
X105788518Y-74084878D01*
X105776287Y-74082548D01*
X105763648Y-74080596D01*
X105750601Y-74079022D01*
X105737147Y-74077826D01*
X105723284Y-74077007D01*
X105709014Y-74076566D01*
X105699274Y-74076482D01*
X105609392Y-74076482D01*
X105594981Y-74076671D01*
X105580965Y-74077238D01*
X105567343Y-74078183D01*
X105554117Y-74079505D01*
X105541286Y-74081205D01*
X105528849Y-74083283D01*
X105516808Y-74085739D01*
X105505162Y-74088572D01*
X105493910Y-74091784D01*
X105483054Y-74095373D01*
X105476036Y-74097976D01*
X105466040Y-74104970D01*
X105457028Y-74112487D01*
X105448999Y-74120529D01*
X105441952Y-74129094D01*
X105435890Y-74138183D01*
X105430810Y-74147796D01*
X105426713Y-74157932D01*
X105423600Y-74168592D01*
X105421470Y-74179777D01*
X105420323Y-74191485D01*
X105420104Y-74199581D01*
X105420104Y-74281158D01*
X105170000Y-74281158D01*
X105170000Y-74063293D01*
X105170345Y-74047981D01*
X105171381Y-74032942D01*
X105173108Y-74018176D01*
X105175525Y-74003683D01*
X105178634Y-73989462D01*
X105182433Y-73975515D01*
X105186923Y-73961840D01*
X105192103Y-73948438D01*
X105197975Y-73935309D01*
X105204537Y-73922453D01*
X105211790Y-73909870D01*
X105219733Y-73897559D01*
X105228368Y-73885522D01*
X105237693Y-73873757D01*
X105247709Y-73862265D01*
X105258415Y-73851046D01*
X105269580Y-73840428D01*
X105281031Y-73830496D01*
X105292768Y-73821248D01*
X105304791Y-73812685D01*
X105317100Y-73804807D01*
X105329696Y-73797614D01*
X105342578Y-73791107D01*
X105355746Y-73785284D01*
X105369201Y-73780146D01*
X105382941Y-73775694D01*
X105396968Y-73771926D01*
X105411281Y-73768843D01*
X105425880Y-73766446D01*
X105440766Y-73764733D01*
X105455937Y-73763706D01*
X105471395Y-73763363D01*
X105837027Y-73763363D01*
X105852573Y-73763706D01*
G37*
G36*
X105592051Y-75658443D02*
G01*
X105591723Y-75671498D01*
X105590738Y-75684222D01*
X105589097Y-75696617D01*
X105586800Y-75708681D01*
X105583846Y-75720415D01*
X105580236Y-75731819D01*
X105575969Y-75742893D01*
X105571046Y-75753637D01*
X105565467Y-75764051D01*
X105559231Y-75774134D01*
X105552339Y-75783888D01*
X105544790Y-75793311D01*
X105536585Y-75802404D01*
X105527724Y-75811168D01*
X105518206Y-75819601D01*
X105508032Y-75827704D01*
X105500052Y-75834624D01*
X105491988Y-75841099D01*
X105483840Y-75847127D01*
X105475608Y-75852708D01*
X105467293Y-75857843D01*
X105454662Y-75864708D01*
X105441842Y-75870568D01*
X105428833Y-75875424D01*
X105415635Y-75879275D01*
X105402249Y-75882122D01*
X105388673Y-75883963D01*
X105374909Y-75884801D01*
X105370279Y-75884856D01*
X105360323Y-75884633D01*
X105350545Y-75883963D01*
X105336210Y-75882122D01*
X105322274Y-75879275D01*
X105308738Y-75875424D01*
X105295601Y-75870568D01*
X105282864Y-75864708D01*
X105270525Y-75857843D01*
X105258586Y-75849973D01*
X105247047Y-75841099D01*
X105239575Y-75834624D01*
X105232281Y-75827704D01*
X105224739Y-75819515D01*
X105217684Y-75811007D01*
X105211115Y-75802181D01*
X105205033Y-75793036D01*
X105199437Y-75783573D01*
X105194328Y-75773791D01*
X105189706Y-75763690D01*
X105185570Y-75753271D01*
X105181921Y-75742533D01*
X105178758Y-75731476D01*
X105176082Y-75720100D01*
X105173892Y-75708406D01*
X105172189Y-75696394D01*
X105170973Y-75684062D01*
X105170243Y-75671412D01*
X105170000Y-75658443D01*
X105170000Y-74899581D01*
X105361730Y-74899581D01*
X105361730Y-75453768D01*
X105361801Y-75464307D01*
X105362013Y-75474399D01*
X105362517Y-75487160D01*
X105363273Y-75499128D01*
X105364280Y-75510302D01*
X105365540Y-75520683D01*
X105367468Y-75532542D01*
X105369790Y-75543161D01*
X105373460Y-75552872D01*
X105378913Y-75561663D01*
X105386690Y-75568360D01*
X105396116Y-75571486D01*
X105400076Y-75571737D01*
X105410138Y-75570367D01*
X105418643Y-75565379D01*
X105420348Y-75563433D01*
X105426344Y-75554881D01*
X105430867Y-75545254D01*
X105433917Y-75534552D01*
X105435360Y-75524522D01*
X105435736Y-75515561D01*
X105435736Y-75126727D01*
X105435968Y-75113673D01*
X105436663Y-75100951D01*
X105437822Y-75088562D01*
X105439445Y-75076504D01*
X105441532Y-75064779D01*
X105444082Y-75053385D01*
X105447096Y-75042324D01*
X105450573Y-75031594D01*
X105454515Y-75021197D01*
X105458920Y-75011131D01*
X105463788Y-75001398D01*
X105469121Y-74991996D01*
X105474917Y-74982927D01*
X105481176Y-74974189D01*
X105487900Y-74965784D01*
X105495087Y-74957711D01*
X105501999Y-74950671D01*
X105509241Y-74944086D01*
X105520724Y-74935060D01*
X105532949Y-74927056D01*
X105541512Y-74922288D01*
X105550405Y-74917973D01*
X105559628Y-74914113D01*
X105569181Y-74910707D01*
X105579064Y-74907755D01*
X105589278Y-74905258D01*
X105599821Y-74903214D01*
X105610695Y-74901624D01*
X105621898Y-74900489D01*
X105633432Y-74899808D01*
X105645296Y-74899581D01*
X105655592Y-74899807D01*
X105665660Y-74900485D01*
X105675498Y-74901616D01*
X105689827Y-74904160D01*
X105703640Y-74907721D01*
X105716937Y-74912300D01*
X105729720Y-74917896D01*
X105741988Y-74924510D01*
X105753740Y-74932141D01*
X105764977Y-74940790D01*
X105775699Y-74950457D01*
X105782561Y-74957466D01*
X105789777Y-74965569D01*
X105796528Y-74974002D01*
X105802814Y-74982766D01*
X105808633Y-74991859D01*
X105813988Y-75001282D01*
X105818876Y-75011036D01*
X105823300Y-75021119D01*
X105827257Y-75031533D01*
X105830749Y-75042277D01*
X105833775Y-75053351D01*
X105836336Y-75064755D01*
X105838431Y-75076489D01*
X105840061Y-75088553D01*
X105841225Y-75100948D01*
X105841923Y-75113672D01*
X105842156Y-75126727D01*
X105842156Y-75792777D01*
X105650425Y-75792777D01*
X105650425Y-75290369D01*
X105650234Y-75278984D01*
X105649662Y-75268182D01*
X105648708Y-75257965D01*
X105647059Y-75246476D01*
X105644861Y-75235829D01*
X105642609Y-75227599D01*
X105637176Y-75219117D01*
X105628812Y-75213879D01*
X105620872Y-75212700D01*
X105611101Y-75215269D01*
X105603621Y-75222062D01*
X105598599Y-75230553D01*
X105596936Y-75234438D01*
X105594799Y-75244894D01*
X105593430Y-75255972D01*
X105592628Y-75266900D01*
X105592223Y-75277017D01*
X105592056Y-75288052D01*
X105592051Y-75290369D01*
X105592051Y-75658443D01*
G37*
G36*
X105842156Y-76502791D02*
G01*
X105842156Y-76659106D01*
X105650425Y-76659106D01*
X105650425Y-76502791D01*
X105509741Y-76502791D01*
X105497460Y-76503321D01*
X105485653Y-76504913D01*
X105474318Y-76507565D01*
X105463457Y-76511278D01*
X105453069Y-76516052D01*
X105443155Y-76521888D01*
X105433713Y-76528784D01*
X105424745Y-76536741D01*
X105416330Y-76545675D01*
X105409037Y-76555013D01*
X105402866Y-76564756D01*
X105397817Y-76574904D01*
X105393890Y-76585456D01*
X105391085Y-76596412D01*
X105389402Y-76607773D01*
X105388841Y-76619539D01*
X105388841Y-76729448D01*
X105170000Y-76729448D01*
X105170000Y-76415840D01*
X105170266Y-76404283D01*
X105171064Y-76392935D01*
X105172395Y-76381797D01*
X105174258Y-76370869D01*
X105176654Y-76360151D01*
X105179582Y-76349643D01*
X105183043Y-76339345D01*
X105187035Y-76329256D01*
X105191561Y-76319378D01*
X105196618Y-76309709D01*
X105202208Y-76300251D01*
X105208330Y-76291002D01*
X105214985Y-76281963D01*
X105222172Y-76273134D01*
X105229891Y-76264515D01*
X105238143Y-76256106D01*
X105246742Y-76248061D01*
X105255565Y-76240535D01*
X105264610Y-76233528D01*
X105273879Y-76227041D01*
X105283371Y-76221072D01*
X105293086Y-76215622D01*
X105303025Y-76210692D01*
X105313187Y-76206280D01*
X105323572Y-76202387D01*
X105334180Y-76199014D01*
X105345012Y-76196159D01*
X105356067Y-76193824D01*
X105367345Y-76192007D01*
X105378846Y-76190710D01*
X105390571Y-76189931D01*
X105402519Y-76189672D01*
X105650425Y-76189672D01*
X105650425Y-76065108D01*
X105842156Y-76065108D01*
X105842156Y-76189672D01*
X106139155Y-76189672D01*
X106139155Y-76502791D01*
X105842156Y-76502791D01*
G37*
G36*
X105377139Y-76801014D02*
G01*
X105387647Y-76801756D01*
X105397892Y-76802991D01*
X105407877Y-76804721D01*
X105417600Y-76806945D01*
X105427061Y-76809663D01*
X105440763Y-76814667D01*
X105453877Y-76820783D01*
X105466403Y-76828010D01*
X105478341Y-76836350D01*
X105485972Y-76842528D01*
X105493343Y-76849200D01*
X105500451Y-76856366D01*
X105507299Y-76864026D01*
X105513776Y-76872385D01*
X105519835Y-76881585D01*
X105525477Y-76891626D01*
X105530700Y-76902510D01*
X105535506Y-76914234D01*
X105539894Y-76926800D01*
X105543864Y-76940208D01*
X105547416Y-76954457D01*
X105550550Y-76969548D01*
X105553266Y-76985480D01*
X105555565Y-77002253D01*
X105557445Y-77019868D01*
X105558908Y-77038325D01*
X105559952Y-77057623D01*
X105560318Y-77067587D01*
X105560579Y-77077762D01*
X105560736Y-77088148D01*
X105560788Y-77098743D01*
X105560788Y-77367166D01*
X105560688Y-77375655D01*
X105560162Y-77388162D01*
X105559185Y-77400399D01*
X105557758Y-77412365D01*
X105555879Y-77424061D01*
X105553550Y-77435486D01*
X105550770Y-77446641D01*
X105547540Y-77457525D01*
X105543858Y-77468139D01*
X105539726Y-77478482D01*
X105535143Y-77488555D01*
X105547599Y-77488555D01*
X105557342Y-77488116D01*
X105569102Y-77486333D01*
X105580397Y-77483179D01*
X105591227Y-77478653D01*
X105601592Y-77472756D01*
X105609549Y-77467050D01*
X105617208Y-77460467D01*
X105624993Y-77452705D01*
X105631741Y-77444316D01*
X105637450Y-77435302D01*
X105642121Y-77425662D01*
X105645754Y-77415397D01*
X105648349Y-77404505D01*
X105649906Y-77392987D01*
X105650425Y-77380844D01*
X105650425Y-76876482D01*
X105842156Y-76876482D01*
X105842156Y-77556210D01*
X105841897Y-77567775D01*
X105841122Y-77579142D01*
X105839829Y-77590314D01*
X105838019Y-77601288D01*
X105835692Y-77612066D01*
X105832848Y-77622648D01*
X105829487Y-77633033D01*
X105825608Y-77643222D01*
X105821213Y-77653214D01*
X105816300Y-77663009D01*
X105810871Y-77672608D01*
X105804924Y-77682011D01*
X105798460Y-77691216D01*
X105791479Y-77700226D01*
X105783981Y-77709039D01*
X105775966Y-77717655D01*
X105767687Y-77725877D01*
X105759212Y-77733569D01*
X105750544Y-77740730D01*
X105741680Y-77747361D01*
X105732622Y-77753461D01*
X105723370Y-77759031D01*
X105713923Y-77764070D01*
X105704281Y-77768579D01*
X105694444Y-77772558D01*
X105684413Y-77776006D01*
X105674187Y-77778923D01*
X105663767Y-77781311D01*
X105653152Y-77783167D01*
X105642342Y-77784493D01*
X105631338Y-77785289D01*
X105620139Y-77785554D01*
X105378827Y-77785554D01*
X105367098Y-77785312D01*
X105355662Y-77784585D01*
X105344521Y-77783373D01*
X105333673Y-77781677D01*
X105323119Y-77779496D01*
X105312859Y-77776830D01*
X105302892Y-77773680D01*
X105293220Y-77770045D01*
X105283841Y-77765925D01*
X105274757Y-77761321D01*
X105265966Y-77756232D01*
X105257469Y-77750658D01*
X105249266Y-77744600D01*
X105241357Y-77738057D01*
X105233741Y-77731029D01*
X105226420Y-77723517D01*
X105219587Y-77715538D01*
X105213196Y-77707232D01*
X105207246Y-77698601D01*
X105201736Y-77689643D01*
X105196667Y-77680359D01*
X105192039Y-77670749D01*
X105187851Y-77660812D01*
X105184105Y-77650549D01*
X105180799Y-77639960D01*
X105177934Y-77629044D01*
X105175509Y-77617802D01*
X105173526Y-77606234D01*
X105171983Y-77594340D01*
X105170881Y-77582119D01*
X105170220Y-77569572D01*
X105170000Y-77556699D01*
X105170000Y-77425785D01*
X105326315Y-77425785D01*
X105326830Y-77433189D01*
X105329535Y-77443555D01*
X105334558Y-77453033D01*
X105340969Y-77460711D01*
X105344736Y-77464203D01*
X105353518Y-77470358D01*
X105362725Y-77474155D01*
X105373454Y-77475610D01*
X105380020Y-77475086D01*
X105389418Y-77472336D01*
X105398275Y-77467230D01*
X105405694Y-77460711D01*
X105410591Y-77455018D01*
X105416037Y-77445738D01*
X105419204Y-77435570D01*
X105420104Y-77425785D01*
X105420104Y-77161270D01*
X105419758Y-77155518D01*
X105417393Y-77145795D01*
X105412786Y-77136885D01*
X105405938Y-77128785D01*
X105402065Y-77125293D01*
X105393154Y-77119139D01*
X105383972Y-77115341D01*
X105373454Y-77113886D01*
X105368030Y-77114250D01*
X105357611Y-77117160D01*
X105348724Y-77122267D01*
X105341214Y-77128785D01*
X105336922Y-77133185D01*
X105331029Y-77141735D01*
X105327493Y-77151097D01*
X105326315Y-77161270D01*
X105326315Y-77425785D01*
X105170000Y-77425785D01*
X105170000Y-77030111D01*
X105170207Y-77017412D01*
X105170828Y-77005023D01*
X105171863Y-76992942D01*
X105173312Y-76981171D01*
X105175175Y-76969709D01*
X105177453Y-76958556D01*
X105180144Y-76947712D01*
X105183250Y-76937177D01*
X105186769Y-76926951D01*
X105190703Y-76917034D01*
X105195051Y-76907427D01*
X105199812Y-76898128D01*
X105204988Y-76889139D01*
X105210578Y-76880459D01*
X105216582Y-76872088D01*
X105223000Y-76864026D01*
X105229848Y-76856366D01*
X105236956Y-76849200D01*
X105244327Y-76842528D01*
X105251958Y-76836350D01*
X105263896Y-76828010D01*
X105276422Y-76820783D01*
X105289536Y-76814667D01*
X105303238Y-76809663D01*
X105312699Y-76806945D01*
X105322422Y-76804721D01*
X105332407Y-76802991D01*
X105342652Y-76801756D01*
X105353160Y-76801014D01*
X105363928Y-76800767D01*
X105366371Y-76800767D01*
X105377139Y-76801014D01*
G37*
G36*
X105565673Y-77958478D02*
G01*
X105579859Y-77958793D01*
X105593780Y-77959738D01*
X105607436Y-77961312D01*
X105620826Y-77963516D01*
X105633951Y-77966349D01*
X105646811Y-77969813D01*
X105659406Y-77973906D01*
X105671735Y-77978628D01*
X105683800Y-77983981D01*
X105695599Y-77989963D01*
X105707132Y-77996574D01*
X105718401Y-78003816D01*
X105729404Y-78011687D01*
X105740142Y-78020188D01*
X105750615Y-78029318D01*
X105760823Y-78039078D01*
X105770672Y-78049313D01*
X105779885Y-78059805D01*
X105788463Y-78070554D01*
X105796406Y-78081561D01*
X105803713Y-78092826D01*
X105810385Y-78104348D01*
X105816422Y-78116128D01*
X105821823Y-78128166D01*
X105826588Y-78140461D01*
X105830718Y-78153014D01*
X105834213Y-78165824D01*
X105837073Y-78178892D01*
X105839296Y-78192218D01*
X105840885Y-78205801D01*
X105841838Y-78219642D01*
X105842156Y-78233740D01*
X105842156Y-78857292D01*
X105650425Y-78857292D01*
X105650425Y-78369539D01*
X105650056Y-78357016D01*
X105648948Y-78345459D01*
X105647102Y-78334868D01*
X105644518Y-78325243D01*
X105639923Y-78313913D01*
X105634015Y-78304299D01*
X105626795Y-78296403D01*
X105618261Y-78290225D01*
X105608415Y-78285764D01*
X105597757Y-78282443D01*
X105586907Y-78279566D01*
X105575866Y-78277131D01*
X105564635Y-78275139D01*
X105553213Y-78273590D01*
X105541600Y-78272483D01*
X105529796Y-78271819D01*
X105517801Y-78271598D01*
X105494842Y-78271598D01*
X105482905Y-78271819D01*
X105471151Y-78272483D01*
X105459580Y-78273590D01*
X105448192Y-78275139D01*
X105436987Y-78277131D01*
X105425966Y-78279566D01*
X105415128Y-78282443D01*
X105404473Y-78285764D01*
X105394455Y-78290225D01*
X105385773Y-78296403D01*
X105378426Y-78304299D01*
X105372416Y-78313913D01*
X105367741Y-78325243D01*
X105365111Y-78334868D01*
X105363233Y-78345459D01*
X105362106Y-78357016D01*
X105361730Y-78369539D01*
X105361730Y-78857292D01*
X105170000Y-78857292D01*
X105170000Y-78233740D01*
X105170314Y-78219642D01*
X105171259Y-78205801D01*
X105172833Y-78192218D01*
X105175037Y-78178892D01*
X105177871Y-78165824D01*
X105181334Y-78153014D01*
X105185427Y-78140461D01*
X105190150Y-78128166D01*
X105195502Y-78116128D01*
X105201484Y-78104348D01*
X105208096Y-78092826D01*
X105215337Y-78081561D01*
X105223208Y-78070554D01*
X105231709Y-78059805D01*
X105240839Y-78049313D01*
X105250600Y-78039078D01*
X105260896Y-78029318D01*
X105271452Y-78020188D01*
X105282267Y-78011687D01*
X105293342Y-78003816D01*
X105304677Y-77996574D01*
X105316270Y-77989963D01*
X105328124Y-77983981D01*
X105340237Y-77978628D01*
X105352609Y-77973906D01*
X105365241Y-77969813D01*
X105378133Y-77966349D01*
X105391284Y-77963516D01*
X105404694Y-77961312D01*
X105418364Y-77959738D01*
X105432293Y-77958793D01*
X105446482Y-77958478D01*
X105565673Y-77958478D01*
G37*
G36*
X106139155Y-79346266D02*
G01*
X105807229Y-79346266D01*
X105813471Y-79356793D01*
X105819099Y-79367492D01*
X105824113Y-79378363D01*
X105828513Y-79389405D01*
X105832299Y-79400620D01*
X105835471Y-79412006D01*
X105838029Y-79423563D01*
X105839973Y-79435293D01*
X105841303Y-79447194D01*
X105842019Y-79459267D01*
X105842156Y-79467411D01*
X105842156Y-79790055D01*
X105841875Y-79803201D01*
X105841034Y-79816014D01*
X105839631Y-79828495D01*
X105837668Y-79840644D01*
X105835143Y-79852461D01*
X105832058Y-79863946D01*
X105828411Y-79875100D01*
X105824204Y-79885921D01*
X105819436Y-79896410D01*
X105814106Y-79906567D01*
X105808216Y-79916392D01*
X105801764Y-79925885D01*
X105794752Y-79935046D01*
X105787178Y-79943875D01*
X105779044Y-79952372D01*
X105770348Y-79960537D01*
X105762061Y-79967546D01*
X105753564Y-79974104D01*
X105744857Y-79980209D01*
X105735941Y-79985862D01*
X105726814Y-79991062D01*
X105717477Y-79995811D01*
X105707931Y-80000107D01*
X105698175Y-80003951D01*
X105688208Y-80007343D01*
X105678032Y-80010282D01*
X105667646Y-80012770D01*
X105657050Y-80014805D01*
X105646244Y-80016387D01*
X105635229Y-80017518D01*
X105624003Y-80018196D01*
X105612568Y-80018422D01*
X105598936Y-80018115D01*
X105585640Y-80017194D01*
X105572680Y-80015657D01*
X105560055Y-80013507D01*
X105547767Y-80010742D01*
X105535814Y-80007363D01*
X105524197Y-80003369D01*
X105512916Y-79998761D01*
X105501971Y-79993538D01*
X105491362Y-79987701D01*
X105481089Y-79981250D01*
X105471151Y-79974184D01*
X105461549Y-79966504D01*
X105452283Y-79958209D01*
X105443353Y-79949300D01*
X105434759Y-79939776D01*
X105425917Y-79949300D01*
X105416795Y-79958209D01*
X105407393Y-79966504D01*
X105397710Y-79974184D01*
X105387747Y-79981250D01*
X105377503Y-79987701D01*
X105366978Y-79993538D01*
X105356174Y-79998761D01*
X105345088Y-80003369D01*
X105333722Y-80007363D01*
X105322076Y-80010742D01*
X105310149Y-80013507D01*
X105297942Y-80015657D01*
X105285454Y-80017194D01*
X105272685Y-80018115D01*
X105259637Y-80018422D01*
X105170000Y-80018422D01*
X105170000Y-79705303D01*
X105198820Y-79705303D01*
X105208620Y-79704987D01*
X105221260Y-79703585D01*
X105233411Y-79701061D01*
X105245074Y-79697414D01*
X105256248Y-79692646D01*
X105266933Y-79686755D01*
X105277131Y-79679743D01*
X105286839Y-79671608D01*
X105289190Y-79669399D01*
X105297891Y-79660374D01*
X105305432Y-79650883D01*
X105311813Y-79640926D01*
X105317034Y-79630504D01*
X105321094Y-79619616D01*
X105323995Y-79608262D01*
X105325735Y-79596443D01*
X105326315Y-79584159D01*
X105326315Y-79346266D01*
X105518046Y-79346266D01*
X105518046Y-79653768D01*
X105518630Y-79663811D01*
X105520874Y-79674367D01*
X105525619Y-79684620D01*
X105532655Y-79692652D01*
X105541981Y-79698464D01*
X105551622Y-79702071D01*
X105561645Y-79704174D01*
X105571625Y-79705136D01*
X105578374Y-79705303D01*
X105588566Y-79704307D01*
X105598260Y-79701319D01*
X105607457Y-79696339D01*
X105616155Y-79689366D01*
X105623023Y-79682034D01*
X105626978Y-79676971D01*
X105632473Y-79668331D01*
X105637236Y-79658897D01*
X105641266Y-79648669D01*
X105644563Y-79637648D01*
X105647128Y-79625833D01*
X105648960Y-79613224D01*
X105649853Y-79603246D01*
X105650334Y-79592822D01*
X105650425Y-79585624D01*
X105650425Y-79467411D01*
X105649971Y-79455168D01*
X105648609Y-79443353D01*
X105646338Y-79431965D01*
X105643159Y-79421004D01*
X105639072Y-79410471D01*
X105634076Y-79400366D01*
X105628172Y-79390688D01*
X105621360Y-79381437D01*
X105614018Y-79373194D01*
X105606278Y-79366050D01*
X105598142Y-79360005D01*
X105589609Y-79355059D01*
X105578384Y-79350422D01*
X105566539Y-79347503D01*
X105556617Y-79346403D01*
X105551507Y-79346266D01*
X105518046Y-79346266D01*
X105326315Y-79346266D01*
X105170000Y-79346266D01*
X105170000Y-79033147D01*
X106139155Y-79033147D01*
X106139155Y-79346266D01*
G37*
G36*
X105565673Y-80678367D02*
G01*
X105579859Y-80678681D01*
X105593780Y-80679626D01*
X105607436Y-80681200D01*
X105620826Y-80683404D01*
X105633951Y-80686238D01*
X105646811Y-80689701D01*
X105659406Y-80693794D01*
X105671735Y-80698517D01*
X105683800Y-80703869D01*
X105695599Y-80709851D01*
X105707132Y-80716463D01*
X105718401Y-80723704D01*
X105729404Y-80731575D01*
X105740142Y-80740076D01*
X105750615Y-80749207D01*
X105760823Y-80758967D01*
X105770672Y-80769201D01*
X105779885Y-80779693D01*
X105788463Y-80790443D01*
X105796406Y-80801450D01*
X105803713Y-80812714D01*
X105810385Y-80824237D01*
X105816422Y-80836017D01*
X105821823Y-80848054D01*
X105826588Y-80860349D01*
X105830718Y-80872902D01*
X105834213Y-80885713D01*
X105837073Y-80898780D01*
X105839296Y-80912106D01*
X105840885Y-80925689D01*
X105841838Y-80939530D01*
X105842156Y-80953628D01*
X105842156Y-81577180D01*
X105650425Y-81577180D01*
X105650425Y-81089427D01*
X105650056Y-81076904D01*
X105648948Y-81065347D01*
X105647102Y-81054756D01*
X105644518Y-81045132D01*
X105639923Y-81033801D01*
X105634015Y-81024188D01*
X105626795Y-81016292D01*
X105618261Y-81010113D01*
X105608415Y-81005652D01*
X105597757Y-81002332D01*
X105586907Y-80999454D01*
X105575866Y-80997020D01*
X105564635Y-80995027D01*
X105553213Y-80993478D01*
X105541600Y-80992371D01*
X105529796Y-80991707D01*
X105517801Y-80991486D01*
X105494842Y-80991486D01*
X105482905Y-80991707D01*
X105471151Y-80992371D01*
X105459580Y-80993478D01*
X105448192Y-80995027D01*
X105436987Y-80997020D01*
X105425966Y-80999454D01*
X105415128Y-81002332D01*
X105404473Y-81005652D01*
X105394455Y-81010113D01*
X105385773Y-81016292D01*
X105378426Y-81024188D01*
X105372416Y-81033801D01*
X105367741Y-81045132D01*
X105365111Y-81054756D01*
X105363233Y-81065347D01*
X105362106Y-81076904D01*
X105361730Y-81089427D01*
X105361730Y-81577180D01*
X105170000Y-81577180D01*
X105170000Y-80953628D01*
X105170314Y-80939530D01*
X105171259Y-80925689D01*
X105172833Y-80912106D01*
X105175037Y-80898780D01*
X105177871Y-80885713D01*
X105181334Y-80872902D01*
X105185427Y-80860349D01*
X105190150Y-80848054D01*
X105195502Y-80836017D01*
X105201484Y-80824237D01*
X105208096Y-80812714D01*
X105215337Y-80801450D01*
X105223208Y-80790443D01*
X105231709Y-80779693D01*
X105240839Y-80769201D01*
X105250600Y-80758967D01*
X105260896Y-80749207D01*
X105271452Y-80740076D01*
X105282267Y-80731575D01*
X105293342Y-80723704D01*
X105304677Y-80716463D01*
X105316270Y-80709851D01*
X105328124Y-80703869D01*
X105340237Y-80698517D01*
X105352609Y-80693794D01*
X105365241Y-80689701D01*
X105378133Y-80686238D01*
X105391284Y-80683404D01*
X105404694Y-80681200D01*
X105418364Y-80679626D01*
X105432293Y-80678681D01*
X105446482Y-80678367D01*
X105565673Y-80678367D01*
G37*
G36*
X105623633Y-81753296D02*
G01*
X105635213Y-81754077D01*
X105646576Y-81755379D01*
X105657722Y-81757202D01*
X105668650Y-81759547D01*
X105679360Y-81762412D01*
X105689853Y-81765798D01*
X105700129Y-81769705D01*
X105710186Y-81774133D01*
X105720027Y-81779081D01*
X105729650Y-81784551D01*
X105739055Y-81790542D01*
X105748243Y-81797053D01*
X105757213Y-81804086D01*
X105765965Y-81811639D01*
X105774501Y-81819713D01*
X105782693Y-81828126D01*
X105790357Y-81836757D01*
X105797493Y-81845605D01*
X105804100Y-81854671D01*
X105810178Y-81863954D01*
X105815728Y-81873454D01*
X105820749Y-81883173D01*
X105825242Y-81893108D01*
X105829206Y-81903262D01*
X105832642Y-81913632D01*
X105835549Y-81924221D01*
X105837927Y-81935027D01*
X105839777Y-81946050D01*
X105841099Y-81957291D01*
X105841892Y-81968749D01*
X105842156Y-81980425D01*
X105842156Y-82510921D01*
X105841892Y-82522567D01*
X105841099Y-82533998D01*
X105839777Y-82545213D01*
X105837927Y-82556212D01*
X105835549Y-82566996D01*
X105832642Y-82577565D01*
X105829206Y-82587917D01*
X105825242Y-82598054D01*
X105820749Y-82607976D01*
X105815728Y-82617681D01*
X105810178Y-82627172D01*
X105804100Y-82636446D01*
X105797493Y-82645505D01*
X105790357Y-82654348D01*
X105782693Y-82662976D01*
X105774501Y-82671388D01*
X105765965Y-82679492D01*
X105757213Y-82687073D01*
X105748243Y-82694131D01*
X105739055Y-82700667D01*
X105729650Y-82706679D01*
X105720027Y-82712169D01*
X105710186Y-82717136D01*
X105700129Y-82721580D01*
X105689853Y-82725501D01*
X105679360Y-82728900D01*
X105668650Y-82731775D01*
X105657722Y-82734128D01*
X105646576Y-82735958D01*
X105635213Y-82737265D01*
X105623633Y-82738049D01*
X105611835Y-82738311D01*
X105400321Y-82738311D01*
X105388522Y-82738049D01*
X105376942Y-82737265D01*
X105365579Y-82735958D01*
X105354433Y-82734128D01*
X105343505Y-82731775D01*
X105332795Y-82728900D01*
X105322302Y-82725501D01*
X105312027Y-82721580D01*
X105301969Y-82717136D01*
X105292129Y-82712169D01*
X105282506Y-82706679D01*
X105273101Y-82700667D01*
X105263913Y-82694131D01*
X105254943Y-82687073D01*
X105246190Y-82679492D01*
X105237655Y-82671388D01*
X105229462Y-82662976D01*
X105221798Y-82654348D01*
X105214663Y-82645505D01*
X105208056Y-82636446D01*
X105201977Y-82627172D01*
X105196427Y-82617681D01*
X105191406Y-82607976D01*
X105186913Y-82598054D01*
X105182949Y-82587917D01*
X105179514Y-82577565D01*
X105176606Y-82566996D01*
X105174228Y-82556212D01*
X105172378Y-82545213D01*
X105171057Y-82533998D01*
X105170264Y-82522567D01*
X105170000Y-82510921D01*
X105170000Y-82340683D01*
X105361730Y-82340683D01*
X105362601Y-82351507D01*
X105365213Y-82361997D01*
X105369565Y-82372153D01*
X105375660Y-82381976D01*
X105381789Y-82389593D01*
X105389032Y-82396997D01*
X105397390Y-82404187D01*
X105406476Y-82409110D01*
X105416028Y-82413376D01*
X105426046Y-82416986D01*
X105436530Y-82419940D01*
X105447478Y-82422238D01*
X105458893Y-82423879D01*
X105470773Y-82424863D01*
X105483119Y-82425191D01*
X105529525Y-82425191D01*
X105541924Y-82424863D01*
X105553842Y-82423879D01*
X105565280Y-82422238D01*
X105576236Y-82419940D01*
X105586712Y-82416986D01*
X105596707Y-82413376D01*
X105606221Y-82409110D01*
X105615254Y-82404187D01*
X105623497Y-82396997D01*
X105630642Y-82389593D01*
X105638026Y-82380038D01*
X105643693Y-82370149D01*
X105647643Y-82359926D01*
X105649876Y-82349369D01*
X105650425Y-82340683D01*
X105650425Y-82151151D01*
X105649567Y-82140198D01*
X105646991Y-82129627D01*
X105642697Y-82119438D01*
X105636687Y-82109630D01*
X105628959Y-82100203D01*
X105621540Y-82092937D01*
X105615254Y-82087648D01*
X105606221Y-82082610D01*
X105596707Y-82078244D01*
X105586712Y-82074550D01*
X105576236Y-82071528D01*
X105565280Y-82069177D01*
X105553842Y-82067498D01*
X105541924Y-82066490D01*
X105529525Y-82066154D01*
X105483119Y-82066154D01*
X105470773Y-82066490D01*
X105458893Y-82067498D01*
X105447478Y-82069177D01*
X105436530Y-82071528D01*
X105426046Y-82074550D01*
X105416028Y-82078244D01*
X105406476Y-82082610D01*
X105397390Y-82087648D01*
X105389032Y-82094731D01*
X105381789Y-82102058D01*
X105374301Y-82111561D01*
X105368556Y-82121445D01*
X105364551Y-82131711D01*
X105362287Y-82142358D01*
X105361730Y-82151151D01*
X105361730Y-82340683D01*
X105170000Y-82340683D01*
X105170000Y-81980425D01*
X105170264Y-81968749D01*
X105171057Y-81957291D01*
X105172378Y-81946050D01*
X105174228Y-81935027D01*
X105176606Y-81924221D01*
X105179514Y-81913632D01*
X105182949Y-81903262D01*
X105186913Y-81893108D01*
X105191406Y-81883173D01*
X105196427Y-81873454D01*
X105201977Y-81863954D01*
X105208056Y-81854671D01*
X105214663Y-81845605D01*
X105221798Y-81836757D01*
X105229462Y-81828126D01*
X105237655Y-81819713D01*
X105246190Y-81811639D01*
X105254943Y-81804086D01*
X105263913Y-81797053D01*
X105273101Y-81790542D01*
X105282506Y-81784551D01*
X105292129Y-81779081D01*
X105301969Y-81774133D01*
X105312027Y-81769705D01*
X105322302Y-81765798D01*
X105332795Y-81762412D01*
X105343505Y-81759547D01*
X105354433Y-81757202D01*
X105365579Y-81755379D01*
X105376942Y-81754077D01*
X105388522Y-81753296D01*
X105400321Y-81753035D01*
X105611835Y-81753035D01*
X105623633Y-81753296D01*
G37*
G36*
X105842156Y-83674738D02*
G01*
X105841889Y-83686537D01*
X105841087Y-83698120D01*
X105839752Y-83709488D01*
X105837882Y-83720640D01*
X105835477Y-83731577D01*
X105832539Y-83742298D01*
X105829066Y-83752803D01*
X105825059Y-83763093D01*
X105820517Y-83773167D01*
X105815442Y-83783025D01*
X105809832Y-83792668D01*
X105803688Y-83802095D01*
X105797009Y-83811307D01*
X105789796Y-83820303D01*
X105782049Y-83829083D01*
X105773768Y-83837648D01*
X105765142Y-83845900D01*
X105756301Y-83853619D01*
X105747244Y-83860806D01*
X105737971Y-83867461D01*
X105728483Y-83873583D01*
X105718779Y-83879173D01*
X105708859Y-83884230D01*
X105698724Y-83888756D01*
X105688373Y-83892748D01*
X105677807Y-83896209D01*
X105667025Y-83899137D01*
X105656028Y-83901533D01*
X105644814Y-83903396D01*
X105633385Y-83904727D01*
X105621741Y-83905525D01*
X105609881Y-83905792D01*
X105170000Y-83905792D01*
X105170000Y-83592672D01*
X105527571Y-83592672D01*
X105540153Y-83592119D01*
X105552255Y-83590459D01*
X105563875Y-83587692D01*
X105575015Y-83583818D01*
X105585674Y-83578838D01*
X105595852Y-83572751D01*
X105605549Y-83565557D01*
X105614766Y-83557257D01*
X105623123Y-83548285D01*
X105630367Y-83538832D01*
X105636496Y-83528898D01*
X105641510Y-83518483D01*
X105645411Y-83507588D01*
X105648196Y-83496212D01*
X105649868Y-83484354D01*
X105650425Y-83472016D01*
X105650425Y-83384822D01*
X105649996Y-83372193D01*
X105648708Y-83360046D01*
X105646561Y-83348380D01*
X105643556Y-83337194D01*
X105639692Y-83326489D01*
X105634969Y-83316266D01*
X105629388Y-83306523D01*
X105622948Y-83297260D01*
X105615649Y-83288479D01*
X105607492Y-83280179D01*
X105601577Y-83274912D01*
X105592196Y-83267536D01*
X105582463Y-83260885D01*
X105572378Y-83254959D01*
X105561941Y-83249759D01*
X105551151Y-83245285D01*
X105540010Y-83241536D01*
X105528517Y-83238513D01*
X105516672Y-83236215D01*
X105504474Y-83234643D01*
X105491925Y-83233796D01*
X105483363Y-83233635D01*
X105170000Y-83233635D01*
X105170000Y-82920516D01*
X105582281Y-82920516D01*
X105595765Y-82920827D01*
X105608984Y-82921760D01*
X105621937Y-82923315D01*
X105634626Y-82925492D01*
X105647049Y-82928292D01*
X105659206Y-82931713D01*
X105671099Y-82935756D01*
X105682726Y-82940422D01*
X105694088Y-82945709D01*
X105705185Y-82951619D01*
X105716017Y-82958150D01*
X105726583Y-82965304D01*
X105736884Y-82973080D01*
X105746920Y-82981477D01*
X105756691Y-82990497D01*
X105766196Y-83000139D01*
X105775395Y-83010150D01*
X105783999Y-83020400D01*
X105792011Y-83030888D01*
X105799429Y-83041615D01*
X105806253Y-83052580D01*
X105812484Y-83063783D01*
X105818122Y-83075226D01*
X105823166Y-83086906D01*
X105827617Y-83098826D01*
X105831474Y-83110983D01*
X105834738Y-83123380D01*
X105837408Y-83136014D01*
X105839485Y-83148888D01*
X105840969Y-83162000D01*
X105841859Y-83175350D01*
X105842156Y-83188939D01*
X105842156Y-83674738D01*
G37*
G36*
X105842156Y-84842219D02*
G01*
X105841889Y-84854018D01*
X105841087Y-84865601D01*
X105839752Y-84876969D01*
X105837882Y-84888121D01*
X105835477Y-84899058D01*
X105832539Y-84909778D01*
X105829066Y-84920284D01*
X105825059Y-84930573D01*
X105820517Y-84940648D01*
X105815442Y-84950506D01*
X105809832Y-84960149D01*
X105803688Y-84969576D01*
X105797009Y-84978788D01*
X105789796Y-84987784D01*
X105782049Y-84996564D01*
X105773768Y-85005129D01*
X105765142Y-85013380D01*
X105756301Y-85021100D01*
X105747244Y-85028287D01*
X105737971Y-85034941D01*
X105728483Y-85041064D01*
X105718779Y-85046654D01*
X105708859Y-85051711D01*
X105698724Y-85056236D01*
X105688373Y-85060229D01*
X105677807Y-85063690D01*
X105667025Y-85066618D01*
X105656028Y-85069013D01*
X105644814Y-85070877D01*
X105633385Y-85072208D01*
X105621741Y-85073006D01*
X105609881Y-85073272D01*
X105170000Y-85073272D01*
X105170000Y-84760153D01*
X105527571Y-84760153D01*
X105540153Y-84759600D01*
X105552255Y-84757940D01*
X105563875Y-84755173D01*
X105575015Y-84751299D01*
X105585674Y-84746319D01*
X105595852Y-84740232D01*
X105605549Y-84733038D01*
X105614766Y-84724738D01*
X105623123Y-84715766D01*
X105630367Y-84706313D01*
X105636496Y-84696379D01*
X105641510Y-84685964D01*
X105645411Y-84675069D01*
X105648196Y-84663692D01*
X105649868Y-84651835D01*
X105650425Y-84639497D01*
X105650425Y-84552302D01*
X105649996Y-84539674D01*
X105648708Y-84527527D01*
X105646561Y-84515861D01*
X105643556Y-84504675D01*
X105639692Y-84493970D01*
X105634969Y-84483746D01*
X105629388Y-84474003D01*
X105622948Y-84464741D01*
X105615649Y-84455960D01*
X105607492Y-84447660D01*
X105601577Y-84442393D01*
X105592196Y-84435016D01*
X105582463Y-84428365D01*
X105572378Y-84422440D01*
X105561941Y-84417240D01*
X105551151Y-84412766D01*
X105540010Y-84409017D01*
X105528517Y-84405994D01*
X105516672Y-84403696D01*
X105504474Y-84402124D01*
X105491925Y-84401277D01*
X105483363Y-84401116D01*
X105170000Y-84401116D01*
X105170000Y-84087997D01*
X105582281Y-84087997D01*
X105595765Y-84088308D01*
X105608984Y-84089241D01*
X105621937Y-84090796D01*
X105634626Y-84092973D01*
X105647049Y-84095772D01*
X105659206Y-84099194D01*
X105671099Y-84103237D01*
X105682726Y-84107903D01*
X105694088Y-84113190D01*
X105705185Y-84119100D01*
X105716017Y-84125631D01*
X105726583Y-84132785D01*
X105736884Y-84140560D01*
X105746920Y-84148958D01*
X105756691Y-84157978D01*
X105766196Y-84167620D01*
X105775395Y-84177631D01*
X105783999Y-84187881D01*
X105792011Y-84198369D01*
X105799429Y-84209095D01*
X105806253Y-84220061D01*
X105812484Y-84231264D01*
X105818122Y-84242706D01*
X105823166Y-84254387D01*
X105827617Y-84266306D01*
X105831474Y-84278464D01*
X105834738Y-84290860D01*
X105837408Y-84303495D01*
X105839485Y-84316369D01*
X105840969Y-84329480D01*
X105841859Y-84342831D01*
X105842156Y-84356420D01*
X105842156Y-84842219D01*
G37*
G36*
X105621741Y-85255740D02*
G01*
X105633385Y-85256527D01*
X105644814Y-85257839D01*
X105656028Y-85259675D01*
X105667025Y-85262037D01*
X105677807Y-85264923D01*
X105688373Y-85268334D01*
X105698724Y-85272269D01*
X105708859Y-85276730D01*
X105718779Y-85281715D01*
X105728483Y-85287224D01*
X105737971Y-85293259D01*
X105747244Y-85299818D01*
X105756301Y-85306902D01*
X105765142Y-85314511D01*
X105773768Y-85322644D01*
X105782049Y-85331213D01*
X105789796Y-85340005D01*
X105797009Y-85349020D01*
X105803688Y-85358258D01*
X105809832Y-85367720D01*
X105815442Y-85377404D01*
X105820517Y-85387312D01*
X105825059Y-85397444D01*
X105829066Y-85407798D01*
X105832539Y-85418376D01*
X105835477Y-85429177D01*
X105837882Y-85440201D01*
X105839752Y-85451449D01*
X105841087Y-85462920D01*
X105841889Y-85474614D01*
X105842156Y-85486531D01*
X105842156Y-85972330D01*
X105841834Y-85986429D01*
X105840870Y-86000269D01*
X105839262Y-86013853D01*
X105837011Y-86027178D01*
X105834118Y-86040246D01*
X105830581Y-86053056D01*
X105826401Y-86065609D01*
X105821578Y-86077904D01*
X105816112Y-86089942D01*
X105810004Y-86101722D01*
X105803252Y-86113244D01*
X105795857Y-86124509D01*
X105787818Y-86135516D01*
X105779137Y-86146266D01*
X105769813Y-86156757D01*
X105759846Y-86166992D01*
X105749490Y-86176811D01*
X105738814Y-86185997D01*
X105727821Y-86194549D01*
X105716508Y-86202468D01*
X105704877Y-86209753D01*
X105692927Y-86216405D01*
X105680659Y-86222424D01*
X105668072Y-86227808D01*
X105655166Y-86232560D01*
X105641942Y-86236677D01*
X105628398Y-86240162D01*
X105614537Y-86243012D01*
X105600356Y-86245230D01*
X105585857Y-86246813D01*
X105571040Y-86247764D01*
X105555903Y-86248080D01*
X105435736Y-86248080D01*
X105435736Y-85568597D01*
X105560788Y-85568597D01*
X105560788Y-85944731D01*
X105594005Y-85937892D01*
X105604198Y-85934526D01*
X105613620Y-85930412D01*
X105622270Y-85925550D01*
X105631212Y-85919078D01*
X105634305Y-85916399D01*
X105641358Y-85908705D01*
X105646395Y-85900279D01*
X105649654Y-85889923D01*
X105650425Y-85881228D01*
X105650425Y-85616468D01*
X105649189Y-85606177D01*
X105645479Y-85596736D01*
X105639297Y-85588145D01*
X105634794Y-85583740D01*
X105625848Y-85577115D01*
X105616109Y-85572383D01*
X105605576Y-85569543D01*
X105595709Y-85568612D01*
X105594249Y-85568597D01*
X105560788Y-85568597D01*
X105435736Y-85568597D01*
X105419127Y-85568597D01*
X105408554Y-85569636D01*
X105398326Y-85572753D01*
X105389330Y-85577390D01*
X105381379Y-85583192D01*
X105374775Y-85590675D01*
X105369519Y-85599840D01*
X105365611Y-85610687D01*
X105363455Y-85620575D01*
X105362161Y-85631539D01*
X105361730Y-85643579D01*
X105361730Y-86248080D01*
X105170000Y-86248080D01*
X105170000Y-85486531D01*
X105170266Y-85474643D01*
X105171064Y-85462973D01*
X105172395Y-85451523D01*
X105174258Y-85440293D01*
X105176654Y-85429282D01*
X105179582Y-85418491D01*
X105183043Y-85407918D01*
X105187035Y-85397566D01*
X105191561Y-85387433D01*
X105196618Y-85377519D01*
X105202208Y-85367824D01*
X105208330Y-85358350D01*
X105214985Y-85349094D01*
X105222172Y-85340058D01*
X105229891Y-85331241D01*
X105238143Y-85322644D01*
X105246713Y-85314511D01*
X105255507Y-85306902D01*
X105264527Y-85299818D01*
X105273772Y-85293259D01*
X105283242Y-85287224D01*
X105292938Y-85281715D01*
X105302858Y-85276730D01*
X105313004Y-85272269D01*
X105323374Y-85268334D01*
X105333970Y-85264923D01*
X105344792Y-85262037D01*
X105355838Y-85259675D01*
X105367109Y-85257839D01*
X105378606Y-85256527D01*
X105390328Y-85255740D01*
X105402274Y-85255478D01*
X105609881Y-85255478D01*
X105621741Y-85255740D01*
G37*
G36*
X105565673Y-86422958D02*
G01*
X105579859Y-86423273D01*
X105593780Y-86424218D01*
X105607436Y-86425792D01*
X105620826Y-86427996D01*
X105633951Y-86430829D01*
X105646811Y-86434293D01*
X105659406Y-86438386D01*
X105671735Y-86443108D01*
X105683800Y-86448461D01*
X105695599Y-86454443D01*
X105707132Y-86461054D01*
X105718401Y-86468296D01*
X105729404Y-86476167D01*
X105740142Y-86484668D01*
X105750615Y-86493798D01*
X105760823Y-86503558D01*
X105770672Y-86513793D01*
X105779885Y-86524285D01*
X105788463Y-86535034D01*
X105796406Y-86546041D01*
X105803713Y-86557306D01*
X105810385Y-86568829D01*
X105816422Y-86580608D01*
X105821823Y-86592646D01*
X105826588Y-86604941D01*
X105830718Y-86617494D01*
X105834213Y-86630304D01*
X105837073Y-86643372D01*
X105839296Y-86656698D01*
X105840885Y-86670281D01*
X105841838Y-86684122D01*
X105842156Y-86698220D01*
X105842156Y-87321772D01*
X105650425Y-87321772D01*
X105650425Y-86834019D01*
X105650056Y-86821496D01*
X105648948Y-86809939D01*
X105647102Y-86799348D01*
X105644518Y-86789723D01*
X105639923Y-86778393D01*
X105634015Y-86768779D01*
X105626795Y-86760884D01*
X105618261Y-86754705D01*
X105608415Y-86750244D01*
X105597757Y-86746924D01*
X105586907Y-86744046D01*
X105575866Y-86741611D01*
X105564635Y-86739619D01*
X105553213Y-86738070D01*
X105541600Y-86736963D01*
X105529796Y-86736299D01*
X105517801Y-86736078D01*
X105494842Y-86736078D01*
X105482905Y-86736299D01*
X105471151Y-86736963D01*
X105459580Y-86738070D01*
X105448192Y-86739619D01*
X105436987Y-86741611D01*
X105425966Y-86744046D01*
X105415128Y-86746924D01*
X105404473Y-86750244D01*
X105394455Y-86754705D01*
X105385773Y-86760884D01*
X105378426Y-86768779D01*
X105372416Y-86778393D01*
X105367741Y-86789723D01*
X105365111Y-86799348D01*
X105363233Y-86809939D01*
X105362106Y-86821496D01*
X105361730Y-86834019D01*
X105361730Y-87321772D01*
X105170000Y-87321772D01*
X105170000Y-86698220D01*
X105170314Y-86684122D01*
X105171259Y-86670281D01*
X105172833Y-86656698D01*
X105175037Y-86643372D01*
X105177871Y-86630304D01*
X105181334Y-86617494D01*
X105185427Y-86604941D01*
X105190150Y-86592646D01*
X105195502Y-86580608D01*
X105201484Y-86568829D01*
X105208096Y-86557306D01*
X105215337Y-86546041D01*
X105223208Y-86535034D01*
X105231709Y-86524285D01*
X105240839Y-86513793D01*
X105250600Y-86503558D01*
X105260896Y-86493798D01*
X105271452Y-86484668D01*
X105282267Y-86476167D01*
X105293342Y-86468296D01*
X105304677Y-86461054D01*
X105316270Y-86454443D01*
X105328124Y-86448461D01*
X105340237Y-86443108D01*
X105352609Y-86438386D01*
X105365241Y-86434293D01*
X105378133Y-86430829D01*
X105391284Y-86427996D01*
X105404694Y-86425792D01*
X105418364Y-86424218D01*
X105432293Y-86423273D01*
X105446482Y-86422958D01*
X105565673Y-86422958D01*
G37*
G36*
X105842156Y-87935310D02*
G01*
X105842156Y-88091625D01*
X105650425Y-88091625D01*
X105650425Y-87935310D01*
X105509741Y-87935310D01*
X105497460Y-87935841D01*
X105485653Y-87937432D01*
X105474318Y-87940084D01*
X105463457Y-87943797D01*
X105453069Y-87948572D01*
X105443155Y-87954407D01*
X105433713Y-87961303D01*
X105424745Y-87969260D01*
X105416330Y-87978194D01*
X105409037Y-87987532D01*
X105402866Y-87997275D01*
X105397817Y-88007423D01*
X105393890Y-88017975D01*
X105391085Y-88028931D01*
X105389402Y-88040292D01*
X105388841Y-88052058D01*
X105388841Y-88161967D01*
X105170000Y-88161967D01*
X105170000Y-87848360D01*
X105170266Y-87836802D01*
X105171064Y-87825454D01*
X105172395Y-87814316D01*
X105174258Y-87803388D01*
X105176654Y-87792670D01*
X105179582Y-87782162D01*
X105183043Y-87771864D01*
X105187035Y-87761775D01*
X105191561Y-87751897D01*
X105196618Y-87742228D01*
X105202208Y-87732770D01*
X105208330Y-87723521D01*
X105214985Y-87714482D01*
X105222172Y-87705653D01*
X105229891Y-87697034D01*
X105238143Y-87688625D01*
X105246742Y-87680580D01*
X105255565Y-87673054D01*
X105264610Y-87666048D01*
X105273879Y-87659560D01*
X105283371Y-87653591D01*
X105293086Y-87648142D01*
X105303025Y-87643211D01*
X105313187Y-87638799D01*
X105323572Y-87634907D01*
X105334180Y-87631533D01*
X105345012Y-87628678D01*
X105356067Y-87626343D01*
X105367345Y-87624526D01*
X105378846Y-87623229D01*
X105390571Y-87622450D01*
X105402519Y-87622191D01*
X105650425Y-87622191D01*
X105650425Y-87497627D01*
X105842156Y-87497627D01*
X105842156Y-87622191D01*
X106139155Y-87622191D01*
X106139155Y-87935310D01*
X105842156Y-87935310D01*
G37*
G36*
X105623633Y-88264810D02*
G01*
X105635213Y-88265591D01*
X105646576Y-88266894D01*
X105657722Y-88268717D01*
X105668650Y-88271061D01*
X105679360Y-88273926D01*
X105689853Y-88277312D01*
X105700129Y-88281219D01*
X105710186Y-88285647D01*
X105720027Y-88290596D01*
X105729650Y-88296065D01*
X105739055Y-88302056D01*
X105748243Y-88308567D01*
X105757213Y-88315600D01*
X105765965Y-88323153D01*
X105774501Y-88331228D01*
X105782693Y-88339641D01*
X105790357Y-88348271D01*
X105797493Y-88357119D01*
X105804100Y-88366185D01*
X105810178Y-88375468D01*
X105815728Y-88384969D01*
X105820749Y-88394687D01*
X105825242Y-88404623D01*
X105829206Y-88414776D01*
X105832642Y-88425147D01*
X105835549Y-88435735D01*
X105837927Y-88446541D01*
X105839777Y-88457564D01*
X105841099Y-88468805D01*
X105841892Y-88480264D01*
X105842156Y-88491939D01*
X105842156Y-89022435D01*
X105841892Y-89034081D01*
X105841099Y-89045512D01*
X105839777Y-89056727D01*
X105837927Y-89067727D01*
X105835549Y-89078511D01*
X105832642Y-89089079D01*
X105829206Y-89099432D01*
X105825242Y-89109569D01*
X105820749Y-89119490D01*
X105815728Y-89129196D01*
X105810178Y-89138686D01*
X105804100Y-89147961D01*
X105797493Y-89157019D01*
X105790357Y-89165863D01*
X105782693Y-89174490D01*
X105774501Y-89182903D01*
X105765965Y-89191006D01*
X105757213Y-89198587D01*
X105748243Y-89205646D01*
X105739055Y-89212181D01*
X105729650Y-89218194D01*
X105720027Y-89223683D01*
X105710186Y-89228650D01*
X105700129Y-89233094D01*
X105689853Y-89237016D01*
X105679360Y-89240414D01*
X105668650Y-89243290D01*
X105657722Y-89245642D01*
X105646576Y-89247472D01*
X105635213Y-89248779D01*
X105623633Y-89249564D01*
X105611835Y-89249825D01*
X105400321Y-89249825D01*
X105388522Y-89249564D01*
X105376942Y-89248779D01*
X105365579Y-89247472D01*
X105354433Y-89245642D01*
X105343505Y-89243290D01*
X105332795Y-89240414D01*
X105322302Y-89237016D01*
X105312027Y-89233094D01*
X105301969Y-89228650D01*
X105292129Y-89223683D01*
X105282506Y-89218194D01*
X105273101Y-89212181D01*
X105263913Y-89205646D01*
X105254943Y-89198587D01*
X105246190Y-89191006D01*
X105237655Y-89182903D01*
X105229462Y-89174490D01*
X105221798Y-89165863D01*
X105214663Y-89157019D01*
X105208056Y-89147961D01*
X105201977Y-89138686D01*
X105196427Y-89129196D01*
X105191406Y-89119490D01*
X105186913Y-89109569D01*
X105182949Y-89099432D01*
X105179514Y-89089079D01*
X105176606Y-89078511D01*
X105174228Y-89067727D01*
X105172378Y-89056727D01*
X105171057Y-89045512D01*
X105170264Y-89034081D01*
X105170000Y-89022435D01*
X105170000Y-88852198D01*
X105361730Y-88852198D01*
X105362601Y-88863022D01*
X105365213Y-88873512D01*
X105369565Y-88883668D01*
X105375660Y-88893490D01*
X105381789Y-88901107D01*
X105389032Y-88908511D01*
X105397390Y-88915701D01*
X105406476Y-88920624D01*
X105416028Y-88924890D01*
X105426046Y-88928501D01*
X105436530Y-88931454D01*
X105447478Y-88933752D01*
X105458893Y-88935393D01*
X105470773Y-88936378D01*
X105483119Y-88936706D01*
X105529525Y-88936706D01*
X105541924Y-88936378D01*
X105553842Y-88935393D01*
X105565280Y-88933752D01*
X105576236Y-88931454D01*
X105586712Y-88928501D01*
X105596707Y-88924890D01*
X105606221Y-88920624D01*
X105615254Y-88915701D01*
X105623497Y-88908511D01*
X105630642Y-88901107D01*
X105638026Y-88891552D01*
X105643693Y-88881663D01*
X105647643Y-88871440D01*
X105649876Y-88860884D01*
X105650425Y-88852198D01*
X105650425Y-88662665D01*
X105649567Y-88651712D01*
X105646991Y-88641141D01*
X105642697Y-88630952D01*
X105636687Y-88621144D01*
X105628959Y-88611718D01*
X105621540Y-88604451D01*
X105615254Y-88599162D01*
X105606221Y-88594125D01*
X105596707Y-88589759D01*
X105586712Y-88586065D01*
X105576236Y-88583042D01*
X105565280Y-88580691D01*
X105553842Y-88579012D01*
X105541924Y-88578005D01*
X105529525Y-88577669D01*
X105483119Y-88577669D01*
X105470773Y-88578005D01*
X105458893Y-88579012D01*
X105447478Y-88580691D01*
X105436530Y-88583042D01*
X105426046Y-88586065D01*
X105416028Y-88589759D01*
X105406476Y-88594125D01*
X105397390Y-88599162D01*
X105389032Y-88606245D01*
X105381789Y-88613572D01*
X105374301Y-88623075D01*
X105368556Y-88632959D01*
X105364551Y-88643225D01*
X105362287Y-88653872D01*
X105361730Y-88662665D01*
X105361730Y-88852198D01*
X105170000Y-88852198D01*
X105170000Y-88491939D01*
X105170264Y-88480264D01*
X105171057Y-88468805D01*
X105172378Y-88457564D01*
X105174228Y-88446541D01*
X105176606Y-88435735D01*
X105179514Y-88425147D01*
X105182949Y-88414776D01*
X105186913Y-88404623D01*
X105191406Y-88394687D01*
X105196427Y-88384969D01*
X105201977Y-88375468D01*
X105208056Y-88366185D01*
X105214663Y-88357119D01*
X105221798Y-88348271D01*
X105229462Y-88339641D01*
X105237655Y-88331228D01*
X105246190Y-88323153D01*
X105254943Y-88315600D01*
X105263913Y-88308567D01*
X105273101Y-88302056D01*
X105282506Y-88296065D01*
X105292129Y-88290596D01*
X105301969Y-88285647D01*
X105312027Y-88281219D01*
X105322302Y-88277312D01*
X105332795Y-88273926D01*
X105343505Y-88271061D01*
X105354433Y-88268717D01*
X105365579Y-88266894D01*
X105376942Y-88265591D01*
X105388522Y-88264810D01*
X105400321Y-88264549D01*
X105611835Y-88264549D01*
X105623633Y-88264810D01*
G37*
G36*
X105611835Y-89432030D02*
G01*
X105623633Y-89432293D01*
X105635213Y-89433080D01*
X105646576Y-89434392D01*
X105657722Y-89436228D01*
X105668650Y-89438589D01*
X105679360Y-89441476D01*
X105689853Y-89444886D01*
X105700129Y-89448822D01*
X105710186Y-89453282D01*
X105720027Y-89458267D01*
X105729650Y-89463777D01*
X105739055Y-89469812D01*
X105748243Y-89476371D01*
X105757213Y-89483455D01*
X105765965Y-89491064D01*
X105774501Y-89499197D01*
X105782693Y-89507701D01*
X105790357Y-89516420D01*
X105797493Y-89525355D01*
X105804100Y-89534505D01*
X105810178Y-89543871D01*
X105815728Y-89553453D01*
X105820749Y-89563251D01*
X105825242Y-89573264D01*
X105829206Y-89583492D01*
X105832642Y-89593936D01*
X105835549Y-89604596D01*
X105837927Y-89615472D01*
X105839777Y-89626563D01*
X105841099Y-89637870D01*
X105841892Y-89649392D01*
X105842156Y-89661130D01*
X105842156Y-90229239D01*
X105650425Y-90229239D01*
X105650425Y-89865317D01*
X105649876Y-89853193D01*
X105648227Y-89841488D01*
X105645479Y-89830203D01*
X105641632Y-89819338D01*
X105636687Y-89808893D01*
X105630642Y-89798868D01*
X105623497Y-89789262D01*
X105615254Y-89780076D01*
X105606274Y-89771890D01*
X105596799Y-89764796D01*
X105586827Y-89758793D01*
X105576359Y-89753881D01*
X105565394Y-89750061D01*
X105553934Y-89747332D01*
X105541978Y-89745695D01*
X105529525Y-89745150D01*
X105170000Y-89745150D01*
X105170000Y-89432030D01*
X105611835Y-89432030D01*
G37*
X113436666Y-94542819D02*
X113436666Y-95257104D01*
X113436666Y-95257104D02*
X113389047Y-95399961D01*
X113389047Y-95399961D02*
X113293809Y-95495200D01*
X113293809Y-95495200D02*
X113150952Y-95542819D01*
X113150952Y-95542819D02*
X113055714Y-95542819D01*
X113865238Y-94638057D02*
X113912857Y-94590438D01*
X113912857Y-94590438D02*
X114008095Y-94542819D01*
X114008095Y-94542819D02*
X114246190Y-94542819D01*
X114246190Y-94542819D02*
X114341428Y-94590438D01*
X114341428Y-94590438D02*
X114389047Y-94638057D01*
X114389047Y-94638057D02*
X114436666Y-94733295D01*
X114436666Y-94733295D02*
X114436666Y-94828533D01*
X114436666Y-94828533D02*
X114389047Y-94971390D01*
X114389047Y-94971390D02*
X113817619Y-95542819D01*
X113817619Y-95542819D02*
X114436666Y-95542819D01*
X135896666Y-54342819D02*
X135896666Y-55057104D01*
X135896666Y-55057104D02*
X135849047Y-55199961D01*
X135849047Y-55199961D02*
X135753809Y-55295200D01*
X135753809Y-55295200D02*
X135610952Y-55342819D01*
X135610952Y-55342819D02*
X135515714Y-55342819D01*
X136277619Y-54342819D02*
X136896666Y-54342819D01*
X136896666Y-54342819D02*
X136563333Y-54723771D01*
X136563333Y-54723771D02*
X136706190Y-54723771D01*
X136706190Y-54723771D02*
X136801428Y-54771390D01*
X136801428Y-54771390D02*
X136849047Y-54819009D01*
X136849047Y-54819009D02*
X136896666Y-54914247D01*
X136896666Y-54914247D02*
X136896666Y-55152342D01*
X136896666Y-55152342D02*
X136849047Y-55247580D01*
X136849047Y-55247580D02*
X136801428Y-55295200D01*
X136801428Y-55295200D02*
X136706190Y-55342819D01*
X136706190Y-55342819D02*
X136420476Y-55342819D01*
X136420476Y-55342819D02*
X136325238Y-55295200D01*
X136325238Y-55295200D02*
X136277619Y-55247580D01*
X141172112Y-94598009D02*
X141314969Y-94645628D01*
X141314969Y-94645628D02*
X141362588Y-94693247D01*
X141362588Y-94693247D02*
X141410207Y-94788485D01*
X141410207Y-94788485D02*
X141410207Y-94931342D01*
X141410207Y-94931342D02*
X141362588Y-95026580D01*
X141362588Y-95026580D02*
X141314969Y-95074200D01*
X141314969Y-95074200D02*
X141219731Y-95121819D01*
X141219731Y-95121819D02*
X140838779Y-95121819D01*
X140838779Y-95121819D02*
X140838779Y-94121819D01*
X140838779Y-94121819D02*
X141172112Y-94121819D01*
X141172112Y-94121819D02*
X141267350Y-94169438D01*
X141267350Y-94169438D02*
X141314969Y-94217057D01*
X141314969Y-94217057D02*
X141362588Y-94312295D01*
X141362588Y-94312295D02*
X141362588Y-94407533D01*
X141362588Y-94407533D02*
X141314969Y-94502771D01*
X141314969Y-94502771D02*
X141267350Y-94550390D01*
X141267350Y-94550390D02*
X141172112Y-94598009D01*
X141172112Y-94598009D02*
X140838779Y-94598009D01*
X141791160Y-94836104D02*
X142267350Y-94836104D01*
X141695922Y-95121819D02*
X142029255Y-94121819D01*
X142029255Y-94121819D02*
X142362588Y-95121819D01*
X142553065Y-94121819D02*
X143124493Y-94121819D01*
X142838779Y-95121819D02*
X142838779Y-94121819D01*
D11*
X149024247Y-68611027D02*
X149024247Y-68991979D01*
X148357580Y-68753884D02*
X149214723Y-68753884D01*
X149214723Y-68753884D02*
X149309961Y-68801503D01*
X149309961Y-68801503D02*
X149357580Y-68896741D01*
X149357580Y-68896741D02*
X149357580Y-68991979D01*
X148357580Y-69468170D02*
X148405200Y-69372932D01*
X148405200Y-69372932D02*
X148452819Y-69325313D01*
X148452819Y-69325313D02*
X148548057Y-69277694D01*
X148548057Y-69277694D02*
X148833771Y-69277694D01*
X148833771Y-69277694D02*
X148929009Y-69325313D01*
X148929009Y-69325313D02*
X148976628Y-69372932D01*
X148976628Y-69372932D02*
X149024247Y-69468170D01*
X149024247Y-69468170D02*
X149024247Y-69611027D01*
X149024247Y-69611027D02*
X148976628Y-69706265D01*
X148976628Y-69706265D02*
X148929009Y-69753884D01*
X148929009Y-69753884D02*
X148833771Y-69801503D01*
X148833771Y-69801503D02*
X148548057Y-69801503D01*
X148548057Y-69801503D02*
X148452819Y-69753884D01*
X148452819Y-69753884D02*
X148405200Y-69706265D01*
X148405200Y-69706265D02*
X148357580Y-69611027D01*
X148357580Y-69611027D02*
X148357580Y-69468170D01*
X148357580Y-70230075D02*
X149024247Y-70230075D01*
X148833771Y-70230075D02*
X148929009Y-70277694D01*
X148929009Y-70277694D02*
X148976628Y-70325313D01*
X148976628Y-70325313D02*
X149024247Y-70420551D01*
X149024247Y-70420551D02*
X149024247Y-70515789D01*
X148357580Y-71611028D02*
X149357580Y-71611028D01*
X149357580Y-71611028D02*
X148643295Y-71944361D01*
X148643295Y-71944361D02*
X149357580Y-72277694D01*
X149357580Y-72277694D02*
X148357580Y-72277694D01*
X149357580Y-73230075D02*
X149357580Y-72753885D01*
X149357580Y-72753885D02*
X148881390Y-72706266D01*
X148881390Y-72706266D02*
X148929009Y-72753885D01*
X148929009Y-72753885D02*
X148976628Y-72849123D01*
X148976628Y-72849123D02*
X148976628Y-73087218D01*
X148976628Y-73087218D02*
X148929009Y-73182456D01*
X148929009Y-73182456D02*
X148881390Y-73230075D01*
X148881390Y-73230075D02*
X148786152Y-73277694D01*
X148786152Y-73277694D02*
X148548057Y-73277694D01*
X148548057Y-73277694D02*
X148452819Y-73230075D01*
X148452819Y-73230075D02*
X148405200Y-73182456D01*
X148405200Y-73182456D02*
X148357580Y-73087218D01*
X148357580Y-73087218D02*
X148357580Y-72849123D01*
X148357580Y-72849123D02*
X148405200Y-72753885D01*
X148405200Y-72753885D02*
X148452819Y-72706266D01*
X148405200Y-73658647D02*
X148357580Y-73753885D01*
X148357580Y-73753885D02*
X148357580Y-73944361D01*
X148357580Y-73944361D02*
X148405200Y-74039599D01*
X148405200Y-74039599D02*
X148500438Y-74087218D01*
X148500438Y-74087218D02*
X148548057Y-74087218D01*
X148548057Y-74087218D02*
X148643295Y-74039599D01*
X148643295Y-74039599D02*
X148690914Y-73944361D01*
X148690914Y-73944361D02*
X148690914Y-73801504D01*
X148690914Y-73801504D02*
X148738533Y-73706266D01*
X148738533Y-73706266D02*
X148833771Y-73658647D01*
X148833771Y-73658647D02*
X148881390Y-73658647D01*
X148881390Y-73658647D02*
X148976628Y-73706266D01*
X148976628Y-73706266D02*
X149024247Y-73801504D01*
X149024247Y-73801504D02*
X149024247Y-73944361D01*
X149024247Y-73944361D02*
X148976628Y-74039599D01*
X149024247Y-74372933D02*
X149024247Y-74753885D01*
X149357580Y-74515790D02*
X148500438Y-74515790D01*
X148500438Y-74515790D02*
X148405200Y-74563409D01*
X148405200Y-74563409D02*
X148357580Y-74658647D01*
X148357580Y-74658647D02*
X148357580Y-74753885D01*
X148357580Y-75515790D02*
X148881390Y-75515790D01*
X148881390Y-75515790D02*
X148976628Y-75468171D01*
X148976628Y-75468171D02*
X149024247Y-75372933D01*
X149024247Y-75372933D02*
X149024247Y-75182457D01*
X149024247Y-75182457D02*
X148976628Y-75087219D01*
X148405200Y-75515790D02*
X148357580Y-75420552D01*
X148357580Y-75420552D02*
X148357580Y-75182457D01*
X148357580Y-75182457D02*
X148405200Y-75087219D01*
X148405200Y-75087219D02*
X148500438Y-75039600D01*
X148500438Y-75039600D02*
X148595676Y-75039600D01*
X148595676Y-75039600D02*
X148690914Y-75087219D01*
X148690914Y-75087219D02*
X148738533Y-75182457D01*
X148738533Y-75182457D02*
X148738533Y-75420552D01*
X148738533Y-75420552D02*
X148786152Y-75515790D01*
X148405200Y-76420552D02*
X148357580Y-76325314D01*
X148357580Y-76325314D02*
X148357580Y-76134838D01*
X148357580Y-76134838D02*
X148405200Y-76039600D01*
X148405200Y-76039600D02*
X148452819Y-75991981D01*
X148452819Y-75991981D02*
X148548057Y-75944362D01*
X148548057Y-75944362D02*
X148833771Y-75944362D01*
X148833771Y-75944362D02*
X148929009Y-75991981D01*
X148929009Y-75991981D02*
X148976628Y-76039600D01*
X148976628Y-76039600D02*
X149024247Y-76134838D01*
X149024247Y-76134838D02*
X149024247Y-76325314D01*
X149024247Y-76325314D02*
X148976628Y-76420552D01*
X148357580Y-76849124D02*
X149357580Y-76849124D01*
X148738533Y-76944362D02*
X148357580Y-77230076D01*
X149024247Y-77230076D02*
X148643295Y-76849124D01*
X148405200Y-78849124D02*
X148357580Y-78753886D01*
X148357580Y-78753886D02*
X148357580Y-78563410D01*
X148357580Y-78563410D02*
X148405200Y-78468172D01*
X148405200Y-78468172D02*
X148452819Y-78420553D01*
X148452819Y-78420553D02*
X148548057Y-78372934D01*
X148548057Y-78372934D02*
X148833771Y-78372934D01*
X148833771Y-78372934D02*
X148929009Y-78420553D01*
X148929009Y-78420553D02*
X148976628Y-78468172D01*
X148976628Y-78468172D02*
X149024247Y-78563410D01*
X149024247Y-78563410D02*
X149024247Y-78753886D01*
X149024247Y-78753886D02*
X148976628Y-78849124D01*
X148357580Y-79420553D02*
X148405200Y-79325315D01*
X148405200Y-79325315D02*
X148452819Y-79277696D01*
X148452819Y-79277696D02*
X148548057Y-79230077D01*
X148548057Y-79230077D02*
X148833771Y-79230077D01*
X148833771Y-79230077D02*
X148929009Y-79277696D01*
X148929009Y-79277696D02*
X148976628Y-79325315D01*
X148976628Y-79325315D02*
X149024247Y-79420553D01*
X149024247Y-79420553D02*
X149024247Y-79563410D01*
X149024247Y-79563410D02*
X148976628Y-79658648D01*
X148976628Y-79658648D02*
X148929009Y-79706267D01*
X148929009Y-79706267D02*
X148833771Y-79753886D01*
X148833771Y-79753886D02*
X148548057Y-79753886D01*
X148548057Y-79753886D02*
X148452819Y-79706267D01*
X148452819Y-79706267D02*
X148405200Y-79658648D01*
X148405200Y-79658648D02*
X148357580Y-79563410D01*
X148357580Y-79563410D02*
X148357580Y-79420553D01*
X148357580Y-80182458D02*
X149024247Y-80182458D01*
X148833771Y-80182458D02*
X148929009Y-80230077D01*
X148929009Y-80230077D02*
X148976628Y-80277696D01*
X148976628Y-80277696D02*
X149024247Y-80372934D01*
X149024247Y-80372934D02*
X149024247Y-80468172D01*
X148405200Y-81182458D02*
X148357580Y-81087220D01*
X148357580Y-81087220D02*
X148357580Y-80896744D01*
X148357580Y-80896744D02*
X148405200Y-80801506D01*
X148405200Y-80801506D02*
X148500438Y-80753887D01*
X148500438Y-80753887D02*
X148881390Y-80753887D01*
X148881390Y-80753887D02*
X148976628Y-80801506D01*
X148976628Y-80801506D02*
X149024247Y-80896744D01*
X149024247Y-80896744D02*
X149024247Y-81087220D01*
X149024247Y-81087220D02*
X148976628Y-81182458D01*
X148976628Y-81182458D02*
X148881390Y-81230077D01*
X148881390Y-81230077D02*
X148786152Y-81230077D01*
X148786152Y-81230077D02*
X148690914Y-80753887D01*
X149262342Y-81611030D02*
X149309961Y-81658649D01*
X149309961Y-81658649D02*
X149357580Y-81753887D01*
X149357580Y-81753887D02*
X149357580Y-81991982D01*
X149357580Y-81991982D02*
X149309961Y-82087220D01*
X149309961Y-82087220D02*
X149262342Y-82134839D01*
X149262342Y-82134839D02*
X149167104Y-82182458D01*
X149167104Y-82182458D02*
X149071866Y-82182458D01*
X149071866Y-82182458D02*
X148929009Y-82134839D01*
X148929009Y-82134839D02*
X148357580Y-81563411D01*
X148357580Y-81563411D02*
X148357580Y-82182458D01*
X141329693Y-54922038D02*
X141234455Y-54874419D01*
X141234455Y-54874419D02*
X141091598Y-54874419D01*
X141091598Y-54874419D02*
X140948741Y-54922038D01*
X140948741Y-54922038D02*
X140853503Y-55017276D01*
X140853503Y-55017276D02*
X140805884Y-55112514D01*
X140805884Y-55112514D02*
X140758265Y-55302990D01*
X140758265Y-55302990D02*
X140758265Y-55445847D01*
X140758265Y-55445847D02*
X140805884Y-55636323D01*
X140805884Y-55636323D02*
X140853503Y-55731561D01*
X140853503Y-55731561D02*
X140948741Y-55826800D01*
X140948741Y-55826800D02*
X141091598Y-55874419D01*
X141091598Y-55874419D02*
X141186836Y-55874419D01*
X141186836Y-55874419D02*
X141329693Y-55826800D01*
X141329693Y-55826800D02*
X141377312Y-55779180D01*
X141377312Y-55779180D02*
X141377312Y-55445847D01*
X141377312Y-55445847D02*
X141186836Y-55445847D01*
X141710646Y-54874419D02*
X142329693Y-54874419D01*
X142329693Y-54874419D02*
X141996360Y-55255371D01*
X141996360Y-55255371D02*
X142139217Y-55255371D01*
X142139217Y-55255371D02*
X142234455Y-55302990D01*
X142234455Y-55302990D02*
X142282074Y-55350609D01*
X142282074Y-55350609D02*
X142329693Y-55445847D01*
X142329693Y-55445847D02*
X142329693Y-55683942D01*
X142329693Y-55683942D02*
X142282074Y-55779180D01*
X142282074Y-55779180D02*
X142234455Y-55826800D01*
X142234455Y-55826800D02*
X142139217Y-55874419D01*
X142139217Y-55874419D02*
X141853503Y-55874419D01*
X141853503Y-55874419D02*
X141758265Y-55826800D01*
X141758265Y-55826800D02*
X141710646Y-55779180D01*
X143234455Y-54874419D02*
X142758265Y-54874419D01*
X142758265Y-54874419D02*
X142710646Y-55350609D01*
X142710646Y-55350609D02*
X142758265Y-55302990D01*
X142758265Y-55302990D02*
X142853503Y-55255371D01*
X142853503Y-55255371D02*
X143091598Y-55255371D01*
X143091598Y-55255371D02*
X143186836Y-55302990D01*
X143186836Y-55302990D02*
X143234455Y-55350609D01*
X143234455Y-55350609D02*
X143282074Y-55445847D01*
X143282074Y-55445847D02*
X143282074Y-55683942D01*
X143282074Y-55683942D02*
X143234455Y-55779180D01*
X143234455Y-55779180D02*
X143186836Y-55826800D01*
X143186836Y-55826800D02*
X143091598Y-55874419D01*
X143091598Y-55874419D02*
X142853503Y-55874419D01*
X142853503Y-55874419D02*
X142758265Y-55826800D01*
X142758265Y-55826800D02*
X142710646Y-55779180D01*
D12*
X116370000Y-94088000D02*
X115040000Y-94088000D01*
X116370000Y-92758000D02*
X116370000Y-94088000D01*
X116370000Y-91488000D02*
X116370000Y-55868000D01*
X116370000Y-91488000D02*
X113770000Y-91488000D01*
X116370000Y-55868000D02*
X111170000Y-55868000D01*
X113770000Y-94088000D02*
X111170000Y-94088000D01*
X113770000Y-91488000D02*
X113770000Y-94088000D01*
X111170000Y-94088000D02*
X111170000Y-55868000D01*
X133630000Y-55888000D02*
X134960000Y-55888000D01*
X133630000Y-57218000D02*
X133630000Y-55888000D01*
X133630000Y-58488000D02*
X133630000Y-94108000D01*
X133630000Y-58488000D02*
X136230000Y-58488000D01*
X133630000Y-94108000D02*
X138830000Y-94108000D01*
X136230000Y-55888000D02*
X138830000Y-55888000D01*
X136230000Y-58488000D02*
X136230000Y-55888000D01*
X138830000Y-55888000D02*
X138830000Y-94108000D01*
G36*
X127666266Y-84055967D02*
G01*
X127710000Y-84059671D01*
X127807170Y-84076215D01*
X127897066Y-84102203D01*
X127978957Y-84137255D01*
X128052116Y-84180990D01*
X128115813Y-84233029D01*
X128169319Y-84292990D01*
X128176973Y-84303415D01*
X128218341Y-84371532D01*
X128246806Y-84441209D01*
X128262620Y-84511829D01*
X128266034Y-84582771D01*
X128257298Y-84653419D01*
X128236665Y-84723153D01*
X128204386Y-84791356D01*
X128160712Y-84857407D01*
X128105895Y-84920690D01*
X128040185Y-84980585D01*
X127963833Y-85036474D01*
X127877093Y-85087738D01*
X127853325Y-85100004D01*
X127825859Y-85113156D01*
X127789028Y-85129874D01*
X127745872Y-85148829D01*
X127699429Y-85168692D01*
X127652737Y-85188133D01*
X127639843Y-85193397D01*
X127561055Y-85226050D01*
X127492857Y-85256033D01*
X127433135Y-85284724D01*
X127379775Y-85313500D01*
X127330662Y-85343738D01*
X127283683Y-85376814D01*
X127236723Y-85414105D01*
X127187668Y-85456989D01*
X127134403Y-85506843D01*
X127085654Y-85554331D01*
X127038026Y-85601303D01*
X127127346Y-85647725D01*
X127199509Y-85687089D01*
X127266464Y-85727810D01*
X127329489Y-85771070D01*
X127389864Y-85818051D01*
X127448867Y-85869936D01*
X127507777Y-85927908D01*
X127567873Y-85993147D01*
X127630433Y-86066838D01*
X127696735Y-86150163D01*
X127758220Y-86231092D01*
X127882384Y-86404439D01*
X127994272Y-86575698D01*
X128094518Y-86746115D01*
X128183756Y-86916936D01*
X128262620Y-87089407D01*
X128331744Y-87264771D01*
X128391763Y-87444275D01*
X128413617Y-87518413D01*
X128435651Y-87600814D01*
X128456542Y-87688138D01*
X128475921Y-87778218D01*
X128493422Y-87868892D01*
X128508677Y-87957992D01*
X128521318Y-88043354D01*
X128530978Y-88122814D01*
X128537289Y-88194206D01*
X128539883Y-88255365D01*
X128539928Y-88262396D01*
X128540000Y-88308126D01*
X128565000Y-88303946D01*
X128608597Y-88298527D01*
X128657130Y-88295558D01*
X128706357Y-88295058D01*
X128752039Y-88297041D01*
X128789936Y-88301525D01*
X128797742Y-88303048D01*
X128867866Y-88324164D01*
X128934589Y-88355709D01*
X128995904Y-88396204D01*
X129049804Y-88444172D01*
X129094280Y-88498132D01*
X129119411Y-88540000D01*
X129137633Y-88578007D01*
X129150131Y-88611100D01*
X129157885Y-88643627D01*
X129161877Y-88679932D01*
X129163090Y-88724362D01*
X129163089Y-88733334D01*
X129161731Y-88784226D01*
X129157292Y-88827245D01*
X129148738Y-88866730D01*
X129135037Y-88907023D01*
X129115153Y-88952465D01*
X129106732Y-88970000D01*
X129071274Y-89033761D01*
X129030865Y-89088244D01*
X128982382Y-89137378D01*
X128956274Y-89159456D01*
X128890288Y-89206279D01*
X128823629Y-89240541D01*
X128754333Y-89262950D01*
X128680434Y-89274216D01*
X128633333Y-89275921D01*
X128597082Y-89275420D01*
X128569276Y-89273601D01*
X128545039Y-89269725D01*
X128519493Y-89263054D01*
X128493333Y-89254708D01*
X128458326Y-89242027D01*
X128420822Y-89226781D01*
X128387436Y-89211700D01*
X128378909Y-89207462D01*
X128327819Y-89181266D01*
X128296342Y-89232300D01*
X128234647Y-89321633D01*
X128160129Y-89410571D01*
X128073302Y-89498598D01*
X127974675Y-89585197D01*
X127864762Y-89669852D01*
X127859338Y-89673766D01*
X127813691Y-89705828D01*
X127769525Y-89734996D01*
X127725638Y-89761748D01*
X127680829Y-89786562D01*
X127633895Y-89809916D01*
X127583636Y-89832287D01*
X127528850Y-89854154D01*
X127468334Y-89875995D01*
X127400887Y-89898288D01*
X127325309Y-89921509D01*
X127240396Y-89946138D01*
X127144947Y-89972653D01*
X127037761Y-90001531D01*
X127030087Y-90003573D01*
X126958647Y-90022452D01*
X126898163Y-90038124D01*
X126846763Y-90051021D01*
X126802575Y-90061571D01*
X126763728Y-90070205D01*
X126728350Y-90077354D01*
X126694569Y-90083448D01*
X126660513Y-90088917D01*
X126655638Y-90089654D01*
X126606294Y-90096233D01*
X126546070Y-90102886D01*
X126477417Y-90109399D01*
X126402786Y-90115557D01*
X126324626Y-90121147D01*
X126245389Y-90125956D01*
X126230000Y-90126785D01*
X126196368Y-90128282D01*
X126153813Y-90129741D01*
X126103953Y-90131139D01*
X126048406Y-90132456D01*
X125988793Y-90133672D01*
X125926730Y-90134764D01*
X125863838Y-90135713D01*
X125801734Y-90136497D01*
X125742037Y-90137095D01*
X125686367Y-90137487D01*
X125636341Y-90137651D01*
X125593578Y-90137567D01*
X125559697Y-90137213D01*
X125536317Y-90136569D01*
X125526666Y-90135885D01*
X125396235Y-90118515D01*
X125272283Y-90100687D01*
X125155958Y-90082597D01*
X125048409Y-90064436D01*
X124950787Y-90046399D01*
X124864239Y-90028680D01*
X124793333Y-90012320D01*
X124744038Y-89999293D01*
X124685611Y-89982474D01*
X124621339Y-89962912D01*
X124554512Y-89941657D01*
X124488420Y-89919759D01*
X124426351Y-89898270D01*
X124371596Y-89878238D01*
X124362466Y-89874751D01*
X124270044Y-89837063D01*
X124184740Y-89797533D01*
X124104766Y-89754921D01*
X124028333Y-89707987D01*
X123953649Y-89655493D01*
X123878927Y-89596200D01*
X123802377Y-89528867D01*
X123733801Y-89463334D01*
X127733333Y-89463334D01*
X127736666Y-89466667D01*
X127740000Y-89463334D01*
X127736666Y-89460000D01*
X127733333Y-89463334D01*
X123733801Y-89463334D01*
X123726825Y-89456667D01*
X127746666Y-89456667D01*
X127750000Y-89460000D01*
X127753333Y-89456667D01*
X127750000Y-89453334D01*
X127746666Y-89456667D01*
X123726825Y-89456667D01*
X123722209Y-89452256D01*
X123656666Y-89385933D01*
X123570820Y-89293337D01*
X123497084Y-89205413D01*
X123435528Y-89122253D01*
X123386221Y-89043950D01*
X123363011Y-89000282D01*
X123339621Y-88946598D01*
X123316654Y-88882096D01*
X123294822Y-88809289D01*
X123274840Y-88730691D01*
X123257419Y-88648814D01*
X123247529Y-88593334D01*
X123238461Y-88536203D01*
X123231321Y-88486115D01*
X123225892Y-88440110D01*
X123221954Y-88395228D01*
X123219288Y-88348509D01*
X123217677Y-88296993D01*
X123216900Y-88237720D01*
X123216733Y-88176667D01*
X123216874Y-88117132D01*
X123217334Y-88068572D01*
X123218237Y-88028630D01*
X123219709Y-87994948D01*
X123221871Y-87965171D01*
X123224850Y-87936940D01*
X123228768Y-87907899D01*
X123232004Y-87886667D01*
X123246482Y-87798595D01*
X123261961Y-87711653D01*
X123277749Y-87629532D01*
X123293158Y-87555921D01*
X123297462Y-87536667D01*
X123327783Y-87422054D01*
X123367819Y-87300826D01*
X123416750Y-87174540D01*
X123473755Y-87044751D01*
X123538014Y-86913017D01*
X123608704Y-86780893D01*
X123685006Y-86649934D01*
X123766098Y-86521698D01*
X123851160Y-86397741D01*
X123939370Y-86279618D01*
X124000805Y-86203334D01*
X124034705Y-86164291D01*
X124075785Y-86119724D01*
X124121762Y-86071889D01*
X124170357Y-86023045D01*
X124219288Y-85975451D01*
X124266273Y-85931363D01*
X124309033Y-85893040D01*
X124343333Y-85864291D01*
X124385492Y-85831676D01*
X124432453Y-85797087D01*
X124481190Y-85762624D01*
X124528675Y-85730385D01*
X124571882Y-85702469D01*
X124607271Y-85681265D01*
X124644543Y-85660236D01*
X124648875Y-85521785D01*
X124653876Y-85412311D01*
X124662013Y-85314153D01*
X124673851Y-85225544D01*
X124689951Y-85144716D01*
X124710877Y-85069903D01*
X124737192Y-84999338D01*
X124769459Y-84931254D01*
X124808242Y-84863883D01*
X124854104Y-84795459D01*
X124899945Y-84734027D01*
X124969104Y-84651609D01*
X125047864Y-84569330D01*
X125132850Y-84490390D01*
X125220685Y-84417985D01*
X125278770Y-84375197D01*
X125381532Y-84309149D01*
X125488264Y-84251696D01*
X125597487Y-84203298D01*
X125707721Y-84164417D01*
X125817489Y-84135516D01*
X125925311Y-84117057D01*
X126029710Y-84109500D01*
X126120000Y-84112445D01*
X126218486Y-84125262D01*
X126306071Y-84145537D01*
X126382978Y-84173377D01*
X126449429Y-84208888D01*
X126505646Y-84252176D01*
X126551854Y-84303350D01*
X126568443Y-84327399D01*
X126592139Y-84369001D01*
X126607056Y-84407024D01*
X126614683Y-84446399D01*
X126616545Y-84486667D01*
X126615826Y-84517291D01*
X126613028Y-84540260D01*
X126606952Y-84561225D01*
X126596400Y-84585834D01*
X126594781Y-84589290D01*
X126566958Y-84640877D01*
X126532744Y-84689876D01*
X126489928Y-84739215D01*
X126455806Y-84773464D01*
X126423575Y-84803298D01*
X126390198Y-84831701D01*
X126353737Y-84860093D01*
X126312250Y-84889898D01*
X126263797Y-84922539D01*
X126206439Y-84959437D01*
X126176666Y-84978146D01*
X126063268Y-85051067D01*
X125962111Y-85120551D01*
X125872674Y-85187024D01*
X125794436Y-85250910D01*
X125726875Y-85312631D01*
X125669470Y-85372614D01*
X125624676Y-85427296D01*
X125613846Y-85442308D01*
X125607425Y-85452372D01*
X125606666Y-85454236D01*
X125612788Y-85454900D01*
X125629165Y-85454156D01*
X125652809Y-85452172D01*
X125665000Y-85450924D01*
X125685796Y-85449394D01*
X125717856Y-85447959D01*
X125759113Y-85446670D01*
X125807497Y-85445574D01*
X125860939Y-85444723D01*
X125917371Y-85444165D01*
X125954658Y-85443983D01*
X126016269Y-85443787D01*
X126065872Y-85443529D01*
X126104796Y-85443130D01*
X126134365Y-85442510D01*
X126155907Y-85441592D01*
X126170748Y-85440295D01*
X126180215Y-85438541D01*
X126185634Y-85436252D01*
X126188331Y-85433347D01*
X126189567Y-85430000D01*
X126192519Y-85412409D01*
X126193302Y-85400000D01*
X126195104Y-85383764D01*
X126199856Y-85357694D01*
X126206861Y-85324781D01*
X126215421Y-85288017D01*
X126224839Y-85250393D01*
X126234418Y-85214900D01*
X126243459Y-85184529D01*
X126243801Y-85183459D01*
X126272058Y-85109375D01*
X126310548Y-85030026D01*
X126358064Y-84946989D01*
X126413397Y-84861843D01*
X126475337Y-84776166D01*
X126542676Y-84691536D01*
X126614204Y-84609531D01*
X126688713Y-84531728D01*
X126764994Y-84459706D01*
X126841837Y-84395042D01*
X126856666Y-84383515D01*
X126942909Y-84319345D01*
X127022574Y-84264456D01*
X127097617Y-84217879D01*
X127169993Y-84178648D01*
X127241655Y-84145797D01*
X127314560Y-84118359D01*
X127390661Y-84095368D01*
X127471912Y-84075856D01*
X127483896Y-84073329D01*
X127550348Y-84061588D01*
X127609618Y-84055892D01*
X127666266Y-84055967D01*
G37*
M02*
