G04 #@! TF.GenerationSoftware,KiCad,Pcbnew,7.0.10*
G04 #@! TF.CreationDate,2024-03-20T06:36:53+09:00*
G04 #@! TF.ProjectId,m5stack_base,6d357374-6163-46b5-9f62-6173652e6b69,rev?*
G04 #@! TF.SameCoordinates,Original*
G04 #@! TF.FileFunction,Copper,L2,Bot*
G04 #@! TF.FilePolarity,Positive*
%FSLAX46Y46*%
G04 Gerber Fmt 4.6, Leading zero omitted, Abs format (unit mm)*
G04 Created by KiCad (PCBNEW 7.0.10) date 2024-03-20 06:36:53*
%MOMM*%
%LPD*%
G01*
G04 APERTURE LIST*
G04 #@! TA.AperFunction,ComponentPad*
%ADD10R,1.700000X1.700000*%
G04 #@! TD*
G04 #@! TA.AperFunction,ComponentPad*
%ADD11O,1.700000X1.700000*%
G04 #@! TD*
G04 #@! TA.AperFunction,ViaPad*
%ADD12C,0.800000*%
G04 #@! TD*
G04 #@! TA.AperFunction,Conductor*
%ADD13C,0.250000*%
G04 #@! TD*
G04 #@! TA.AperFunction,Conductor*
%ADD14C,1.200000*%
G04 #@! TD*
G04 #@! TA.AperFunction,Conductor*
%ADD15C,0.400000*%
G04 #@! TD*
G04 APERTURE END LIST*
D10*
X115040000Y-92758000D03*
D11*
X112500000Y-92758000D03*
X115040000Y-90218000D03*
X112500000Y-90218000D03*
X115040000Y-87678000D03*
X112500000Y-87678000D03*
X115040000Y-85138000D03*
X112500000Y-85138000D03*
X115040000Y-82598000D03*
X112500000Y-82598000D03*
X115040000Y-80058000D03*
X112500000Y-80058000D03*
X115040000Y-77518000D03*
X112500000Y-77518000D03*
X115040000Y-74978000D03*
X112500000Y-74978000D03*
X115040000Y-72438000D03*
X112500000Y-72438000D03*
X115040000Y-69898000D03*
X112500000Y-69898000D03*
X115040000Y-67358000D03*
X112500000Y-67358000D03*
X115040000Y-64818000D03*
X112500000Y-64818000D03*
X115040000Y-62278000D03*
X112500000Y-62278000D03*
X115040000Y-59738000D03*
X112500000Y-59738000D03*
X115040000Y-57198000D03*
X112500000Y-57198000D03*
D10*
X134960000Y-57218000D03*
D11*
X137500000Y-57218000D03*
X134960000Y-59758000D03*
X137500000Y-59758000D03*
X134960000Y-62298000D03*
X137500000Y-62298000D03*
X134960000Y-64838000D03*
X137500000Y-64838000D03*
X134960000Y-67378000D03*
X137500000Y-67378000D03*
X134960000Y-69918000D03*
X137500000Y-69918000D03*
X134960000Y-72458000D03*
X137500000Y-72458000D03*
X134960000Y-74998000D03*
X137500000Y-74998000D03*
X134960000Y-77538000D03*
X137500000Y-77538000D03*
X134960000Y-80078000D03*
X137500000Y-80078000D03*
X134960000Y-82618000D03*
X137500000Y-82618000D03*
X134960000Y-85158000D03*
X137500000Y-85158000D03*
X134960000Y-87698000D03*
X137500000Y-87698000D03*
X134960000Y-90238000D03*
X137500000Y-90238000D03*
X134960000Y-92778000D03*
X137500000Y-92778000D03*
D12*
X133223000Y-96393000D03*
X115824000Y-54864000D03*
X144018000Y-94742000D03*
X117475000Y-57277000D03*
X139827000Y-57150000D03*
X129794000Y-93345000D03*
X108500000Y-74500000D03*
X138811000Y-98806000D03*
X144500000Y-52500000D03*
X148500000Y-55500000D03*
X102000000Y-73000000D03*
X102000000Y-55500000D03*
X109500000Y-56500000D03*
X102000000Y-94500000D03*
X105500000Y-52500000D03*
X139827000Y-54991000D03*
X106934000Y-98933000D03*
X149000000Y-76500000D03*
X126000000Y-52500000D03*
X109500000Y-60500000D03*
X120015000Y-93345000D03*
X106000000Y-92500000D03*
X109000000Y-92500000D03*
X126500000Y-80000000D03*
X144000000Y-63500000D03*
X118364000Y-58928000D03*
X139827000Y-59690000D03*
X118364000Y-90217998D03*
X119380000Y-60693000D03*
X119253004Y-87678000D03*
X139827000Y-62230000D03*
X121031012Y-85138000D03*
X121031000Y-63118996D03*
X120142000Y-66166998D03*
X120142000Y-86360000D03*
X122936000Y-82598000D03*
X122555000Y-66674996D03*
X121920000Y-69723000D03*
X121920000Y-83820000D03*
X124460000Y-70231000D03*
X124333000Y-80058000D03*
X123444000Y-81406998D03*
X123444000Y-71628000D03*
X126365000Y-72390000D03*
X126365000Y-77470000D03*
X125222000Y-78740000D03*
X125222000Y-73787000D03*
X127508000Y-73025000D03*
X127495000Y-77423933D03*
X128143000Y-78740000D03*
X128188000Y-74676000D03*
X128638000Y-80010000D03*
X128413989Y-70954000D03*
X127254000Y-68326000D03*
X129273000Y-81280000D03*
X129908000Y-67564000D03*
X129957025Y-82532732D03*
X130601000Y-83820000D03*
X128397000Y-65023998D03*
X131051000Y-64770002D03*
X131051000Y-85065010D03*
X131826000Y-86360000D03*
X131572000Y-62357000D03*
X132588000Y-61467998D03*
X132588000Y-87630000D03*
D13*
X115040000Y-92758000D02*
X116140000Y-92758000D01*
X138720000Y-56043000D02*
X136135000Y-56043000D01*
X139827000Y-57150000D02*
X138720000Y-56043000D01*
X116140000Y-92758000D02*
X117475000Y-91423000D01*
X117475000Y-91423000D02*
X117475000Y-57277000D01*
X136135000Y-56043000D02*
X134960000Y-57218000D01*
D14*
X109500000Y-60500000D02*
X109347000Y-60653000D01*
X139827000Y-53086000D02*
X138811000Y-52070000D01*
X126000000Y-52500000D02*
X125570000Y-52070000D01*
X109347000Y-73653000D02*
X108500000Y-74500000D01*
X126430000Y-52070000D02*
X126000000Y-52500000D01*
X109347000Y-86614000D02*
X110411000Y-87678000D01*
X109347000Y-56347000D02*
X109500000Y-56500000D01*
X138811000Y-52070000D02*
X126430000Y-52070000D01*
X109347000Y-60347000D02*
X109500000Y-60500000D01*
X109347000Y-52197000D02*
X109347000Y-56347000D01*
X109474000Y-52070000D02*
X109347000Y-52197000D01*
X125570000Y-52070000D02*
X109474000Y-52070000D01*
X112500000Y-90218000D02*
X112500000Y-92758000D01*
X109347000Y-60653000D02*
X109347000Y-73653000D01*
X109347000Y-56653000D02*
X109347000Y-60347000D01*
X110411000Y-87678000D02*
X112500000Y-87678000D01*
X112500000Y-87678000D02*
X112500000Y-90218000D01*
X109347000Y-75347000D02*
X109347000Y-86614000D01*
X109500000Y-56500000D02*
X109347000Y-56653000D01*
X139827000Y-54991000D02*
X139827000Y-53086000D01*
X108500000Y-74500000D02*
X109347000Y-75347000D01*
D13*
X139827000Y-59690000D02*
X138720000Y-58583000D01*
X136135000Y-58583000D02*
X134960000Y-59758000D01*
X138720000Y-58583000D02*
X136135000Y-58583000D01*
X118364000Y-90217998D02*
X118364000Y-58928000D01*
X139827000Y-62230000D02*
X138720000Y-61123000D01*
X119253000Y-87677996D02*
X119253000Y-60820000D01*
X119253004Y-87678000D02*
X119253000Y-87677996D01*
X136135000Y-61123000D02*
X134960000Y-62298000D01*
X119301004Y-87630000D02*
X119253004Y-87678000D01*
X119253000Y-60820000D02*
X119380000Y-60693000D01*
X138720000Y-61123000D02*
X136135000Y-61123000D01*
X121031012Y-85138000D02*
X121031012Y-63119008D01*
X121031012Y-63119008D02*
X121031000Y-63118996D01*
X120142000Y-86360000D02*
X120142000Y-66166998D01*
X122682000Y-82344000D02*
X122682000Y-66801996D01*
X122936000Y-82598000D02*
X122682000Y-82344000D01*
X122682000Y-66801996D02*
X122555000Y-66674996D01*
X121920000Y-83820000D02*
X121920000Y-69723000D01*
D15*
X124333000Y-80058000D02*
X124333000Y-70358000D01*
X124333000Y-70358000D02*
X124460000Y-70231000D01*
D13*
X123444000Y-81406998D02*
X123444000Y-71628000D01*
X126365000Y-77470000D02*
X126365000Y-72390000D01*
X125222000Y-78740000D02*
X125222016Y-78739984D01*
X125222016Y-73787016D02*
X125222000Y-73787000D01*
X125222016Y-78739984D02*
X125222016Y-73787016D01*
X127495000Y-77423933D02*
X127413000Y-77341933D01*
X127413000Y-73120000D02*
X127508000Y-73025000D01*
X127413000Y-77341933D02*
X127413000Y-73120000D01*
X128270000Y-74758000D02*
X128188000Y-74676000D01*
X128143000Y-78740000D02*
X128270000Y-78613000D01*
X128270000Y-74803000D02*
X128270000Y-74758000D01*
X128270000Y-78613000D02*
X128270000Y-74758000D01*
X128638000Y-80010000D02*
X128963000Y-79685000D01*
X128963000Y-71503011D02*
X128413989Y-70954000D01*
X128963000Y-79685000D02*
X128963000Y-71503011D01*
X129273000Y-81280000D02*
X129413000Y-81140000D01*
X129413000Y-70485000D02*
X127254000Y-68326000D01*
X127254000Y-68580000D02*
X127254000Y-68326000D01*
X129413000Y-81140000D02*
X129413000Y-70485000D01*
X129957025Y-82532732D02*
X130048000Y-82441757D01*
X130048000Y-82441757D02*
X130048000Y-67704000D01*
X130048000Y-67704000D02*
X129908000Y-67564000D01*
X130683000Y-67310000D02*
X128651000Y-65278000D01*
X130683000Y-83738000D02*
X130683000Y-67310000D01*
X128524000Y-65151000D02*
X128397000Y-65024000D01*
X128651000Y-65278000D02*
X128524000Y-65151000D01*
X128397000Y-65024000D02*
X128397000Y-65023998D01*
X130601000Y-83820000D02*
X130683000Y-83738000D01*
X131376000Y-65095002D02*
X131051000Y-64770002D01*
X131376000Y-84740010D02*
X131376000Y-65095002D01*
X131051000Y-85065010D02*
X131376000Y-84740010D01*
X132080000Y-86106000D02*
X132080000Y-62865000D01*
X131826000Y-86360000D02*
X132080000Y-86106000D01*
X131699000Y-62484000D02*
X131572000Y-62357000D01*
X132080000Y-62865000D02*
X131572000Y-62357000D01*
X132657000Y-87561000D02*
X132657000Y-61536998D01*
X132657000Y-61536998D02*
X132588000Y-61467998D01*
X132588000Y-87630000D02*
X132657000Y-87561000D01*
G04 #@! TA.AperFunction,Conductor*
G36*
X112750000Y-92322498D02*
G01*
X112642315Y-92273320D01*
X112535763Y-92258000D01*
X112464237Y-92258000D01*
X112357685Y-92273320D01*
X112250000Y-92322498D01*
X112250000Y-90653501D01*
X112357685Y-90702680D01*
X112464237Y-90718000D01*
X112535763Y-90718000D01*
X112642315Y-90702680D01*
X112750000Y-90653501D01*
X112750000Y-92322498D01*
G37*
G04 #@! TD.AperFunction*
G04 #@! TA.AperFunction,Conductor*
G36*
X112750000Y-89782498D02*
G01*
X112642315Y-89733320D01*
X112535763Y-89718000D01*
X112464237Y-89718000D01*
X112357685Y-89733320D01*
X112250000Y-89782498D01*
X112250000Y-88113501D01*
X112357685Y-88162680D01*
X112464237Y-88178000D01*
X112535763Y-88178000D01*
X112642315Y-88162680D01*
X112750000Y-88113501D01*
X112750000Y-89782498D01*
G37*
G04 #@! TD.AperFunction*
G04 #@! TA.AperFunction,Conductor*
G36*
X137693039Y-61768185D02*
G01*
X137738794Y-61820989D01*
X137747584Y-61861395D01*
X137642315Y-61813320D01*
X137535763Y-61798000D01*
X137464237Y-61798000D01*
X137357685Y-61813320D01*
X137253391Y-61860949D01*
X137269685Y-61805461D01*
X137322489Y-61759706D01*
X137374000Y-61748500D01*
X137626000Y-61748500D01*
X137693039Y-61768185D01*
G37*
G04 #@! TD.AperFunction*
G04 #@! TA.AperFunction,Conductor*
G36*
X137750000Y-60373500D02*
G01*
X137730315Y-60440539D01*
X137677511Y-60486294D01*
X137626000Y-60497500D01*
X137374000Y-60497500D01*
X137306961Y-60477815D01*
X137261206Y-60425011D01*
X137250000Y-60373500D01*
X137250000Y-60193501D01*
X137357685Y-60242680D01*
X137464237Y-60258000D01*
X137535763Y-60258000D01*
X137642315Y-60242680D01*
X137750000Y-60193501D01*
X137750000Y-60373500D01*
G37*
G04 #@! TD.AperFunction*
G04 #@! TA.AperFunction,Conductor*
G36*
X137693039Y-59228185D02*
G01*
X137738794Y-59280989D01*
X137747584Y-59321395D01*
X137642315Y-59273320D01*
X137535763Y-59258000D01*
X137464237Y-59258000D01*
X137357685Y-59273320D01*
X137253391Y-59320949D01*
X137269685Y-59265461D01*
X137322489Y-59219706D01*
X137374000Y-59208500D01*
X137626000Y-59208500D01*
X137693039Y-59228185D01*
G37*
G04 #@! TD.AperFunction*
G04 #@! TA.AperFunction,Conductor*
G36*
X137750000Y-57833500D02*
G01*
X137730315Y-57900539D01*
X137677511Y-57946294D01*
X137626000Y-57957500D01*
X137374000Y-57957500D01*
X137306961Y-57937815D01*
X137261206Y-57885011D01*
X137250000Y-57833500D01*
X137250000Y-57653501D01*
X137357685Y-57702680D01*
X137464237Y-57718000D01*
X137535763Y-57718000D01*
X137642315Y-57702680D01*
X137750000Y-57653501D01*
X137750000Y-57833500D01*
G37*
G04 #@! TD.AperFunction*
G04 #@! TA.AperFunction,Conductor*
G36*
X147844135Y-50565685D02*
G01*
X147864220Y-50581765D01*
X149302817Y-52002294D01*
X149463125Y-52160588D01*
X149496997Y-52221699D01*
X149500000Y-52248822D01*
X149500000Y-97738177D01*
X149480315Y-97805216D01*
X149463125Y-97826411D01*
X147864221Y-99405234D01*
X147802688Y-99438330D01*
X147777096Y-99441000D01*
X102286362Y-99441000D01*
X102219323Y-99421315D01*
X102198681Y-99404681D01*
X100620319Y-97826319D01*
X100586834Y-97764996D01*
X100584000Y-97738638D01*
X100584000Y-97006214D01*
X101450920Y-97006214D01*
X101470067Y-97249511D01*
X101470067Y-97249514D01*
X101470068Y-97249516D01*
X101527041Y-97486823D01*
X101527044Y-97486833D01*
X101620436Y-97712303D01*
X101747951Y-97920387D01*
X101747952Y-97920390D01*
X101747955Y-97920393D01*
X101906455Y-98105973D01*
X102042349Y-98222037D01*
X102092037Y-98264475D01*
X102092039Y-98264475D01*
X102300125Y-98391991D01*
X102336802Y-98407183D01*
X102339785Y-98408507D01*
X102340550Y-98408797D01*
X102344020Y-98410173D01*
X102525602Y-98485386D01*
X102525603Y-98485386D01*
X102525605Y-98485387D01*
X102551477Y-98491598D01*
X102564061Y-98494619D01*
X102569612Y-98496088D01*
X102574273Y-98497438D01*
X102574275Y-98497439D01*
X102574276Y-98497439D01*
X102574279Y-98497440D01*
X102577930Y-98498185D01*
X102582434Y-98499104D01*
X102586525Y-98500012D01*
X102762912Y-98542360D01*
X102806410Y-98545783D01*
X102814103Y-98546867D01*
X102814110Y-98546813D01*
X102819067Y-98547414D01*
X102819068Y-98547414D01*
X102819078Y-98547416D01*
X102833315Y-98547989D01*
X102837936Y-98548264D01*
X103006214Y-98561508D01*
X103053931Y-98557752D01*
X103068656Y-98557473D01*
X103068728Y-98557476D01*
X103086934Y-98555265D01*
X103092070Y-98554751D01*
X103249516Y-98542360D01*
X103300201Y-98530191D01*
X103314187Y-98527672D01*
X103316758Y-98527360D01*
X103337080Y-98521473D01*
X103342589Y-98520014D01*
X103486826Y-98485386D01*
X103538991Y-98463778D01*
X103551927Y-98459242D01*
X103556746Y-98457847D01*
X103577590Y-98447956D01*
X103583159Y-98445483D01*
X103712303Y-98391991D01*
X103764207Y-98360183D01*
X103775816Y-98353896D01*
X103782475Y-98350737D01*
X103802276Y-98337069D01*
X103807899Y-98333409D01*
X103920393Y-98264473D01*
X103970099Y-98222019D01*
X103980157Y-98214286D01*
X103988099Y-98208805D01*
X104005814Y-98191789D01*
X104011083Y-98187016D01*
X104105973Y-98105973D01*
X104151383Y-98052805D01*
X104159777Y-98043906D01*
X104161762Y-98041998D01*
X104168293Y-98035726D01*
X104183003Y-98016149D01*
X104187796Y-98010169D01*
X104264473Y-97920393D01*
X104303455Y-97856779D01*
X104310028Y-97847110D01*
X104318390Y-97835984D01*
X104329560Y-97814700D01*
X104333593Y-97807598D01*
X104391991Y-97712303D01*
X104422379Y-97638939D01*
X104427127Y-97628801D01*
X104434502Y-97614751D01*
X104441864Y-97592697D01*
X104444896Y-97584577D01*
X104485386Y-97486826D01*
X104505073Y-97404825D01*
X104508019Y-97394537D01*
X104513622Y-97377757D01*
X104517186Y-97355824D01*
X104518982Y-97346886D01*
X104542360Y-97249516D01*
X104549374Y-97160388D01*
X104550594Y-97150256D01*
X104553701Y-97131140D01*
X104554323Y-97100193D01*
X104554680Y-97092968D01*
X104561508Y-97006214D01*
X145450920Y-97006214D01*
X145470067Y-97249511D01*
X145470067Y-97249514D01*
X145470068Y-97249516D01*
X145527041Y-97486823D01*
X145527044Y-97486833D01*
X145620436Y-97712303D01*
X145747951Y-97920387D01*
X145747952Y-97920390D01*
X145747955Y-97920393D01*
X145906455Y-98105973D01*
X146042349Y-98222037D01*
X146092037Y-98264475D01*
X146092039Y-98264475D01*
X146300125Y-98391991D01*
X146336802Y-98407183D01*
X146339785Y-98408507D01*
X146340550Y-98408797D01*
X146344020Y-98410173D01*
X146525602Y-98485386D01*
X146525603Y-98485386D01*
X146525605Y-98485387D01*
X146551477Y-98491598D01*
X146564061Y-98494619D01*
X146569612Y-98496088D01*
X146574273Y-98497438D01*
X146574275Y-98497439D01*
X146574276Y-98497439D01*
X146574279Y-98497440D01*
X146577930Y-98498185D01*
X146582434Y-98499104D01*
X146586525Y-98500012D01*
X146762912Y-98542360D01*
X146806410Y-98545783D01*
X146814103Y-98546867D01*
X146814110Y-98546813D01*
X146819067Y-98547414D01*
X146819068Y-98547414D01*
X146819078Y-98547416D01*
X146833315Y-98547989D01*
X146837936Y-98548264D01*
X147006214Y-98561508D01*
X147053931Y-98557752D01*
X147068656Y-98557473D01*
X147068728Y-98557476D01*
X147086934Y-98555265D01*
X147092070Y-98554751D01*
X147249516Y-98542360D01*
X147300201Y-98530191D01*
X147314187Y-98527672D01*
X147316758Y-98527360D01*
X147337080Y-98521473D01*
X147342589Y-98520014D01*
X147486826Y-98485386D01*
X147538991Y-98463778D01*
X147551927Y-98459242D01*
X147556746Y-98457847D01*
X147577590Y-98447956D01*
X147583159Y-98445483D01*
X147712303Y-98391991D01*
X147764207Y-98360183D01*
X147775816Y-98353896D01*
X147782475Y-98350737D01*
X147802276Y-98337069D01*
X147807899Y-98333409D01*
X147920393Y-98264473D01*
X147970099Y-98222019D01*
X147980157Y-98214286D01*
X147988099Y-98208805D01*
X148005814Y-98191789D01*
X148011083Y-98187016D01*
X148105973Y-98105973D01*
X148151383Y-98052805D01*
X148159777Y-98043906D01*
X148161762Y-98041998D01*
X148168293Y-98035726D01*
X148183003Y-98016149D01*
X148187796Y-98010169D01*
X148264473Y-97920393D01*
X148303455Y-97856779D01*
X148310028Y-97847110D01*
X148318390Y-97835984D01*
X148329560Y-97814700D01*
X148333593Y-97807598D01*
X148391991Y-97712303D01*
X148422379Y-97638939D01*
X148427127Y-97628801D01*
X148434502Y-97614751D01*
X148441864Y-97592697D01*
X148444896Y-97584577D01*
X148485386Y-97486826D01*
X148505073Y-97404825D01*
X148508019Y-97394537D01*
X148513622Y-97377757D01*
X148517186Y-97355824D01*
X148518982Y-97346886D01*
X148542360Y-97249516D01*
X148549374Y-97160388D01*
X148550594Y-97150256D01*
X148553701Y-97131140D01*
X148554323Y-97100193D01*
X148554680Y-97092968D01*
X148561508Y-97006214D01*
X148554679Y-96919449D01*
X148554323Y-96912222D01*
X148553701Y-96881288D01*
X148550594Y-96862171D01*
X148549373Y-96852028D01*
X148542360Y-96762916D01*
X148542360Y-96762912D01*
X148518990Y-96665572D01*
X148517179Y-96656561D01*
X148513622Y-96634671D01*
X148508015Y-96617878D01*
X148505069Y-96607587D01*
X148485386Y-96525602D01*
X148444902Y-96427865D01*
X148441868Y-96419742D01*
X148434502Y-96397677D01*
X148427126Y-96383624D01*
X148422375Y-96373481D01*
X148391991Y-96300125D01*
X148333595Y-96204832D01*
X148329559Y-96197726D01*
X148318390Y-96176444D01*
X148310040Y-96165332D01*
X148303452Y-96155642D01*
X148264473Y-96092035D01*
X148187809Y-96002273D01*
X148182986Y-95996255D01*
X148168293Y-95976702D01*
X148159774Y-95968519D01*
X148151384Y-95959624D01*
X148105973Y-95906455D01*
X148011104Y-95825429D01*
X148005799Y-95820624D01*
X147988099Y-95803623D01*
X147980166Y-95798147D01*
X147970081Y-95790392D01*
X147920393Y-95747955D01*
X147920384Y-95747948D01*
X147807923Y-95679032D01*
X147802278Y-95675358D01*
X147782479Y-95661693D01*
X147782473Y-95661689D01*
X147775808Y-95658526D01*
X147764192Y-95652234D01*
X147712298Y-95620434D01*
X147712291Y-95620431D01*
X147583225Y-95566971D01*
X147577520Y-95564438D01*
X147556747Y-95554581D01*
X147556733Y-95554576D01*
X147551915Y-95553180D01*
X147538978Y-95548642D01*
X147486836Y-95527045D01*
X147486820Y-95527040D01*
X147342610Y-95492416D01*
X147337068Y-95490950D01*
X147326113Y-95487777D01*
X147316758Y-95485068D01*
X147316749Y-95485066D01*
X147316740Y-95485065D01*
X147314166Y-95484752D01*
X147300198Y-95482235D01*
X147249516Y-95470068D01*
X147092112Y-95457679D01*
X147086901Y-95457158D01*
X147068733Y-95454952D01*
X147068714Y-95454952D01*
X147068620Y-95454956D01*
X147053923Y-95454674D01*
X147010888Y-95451287D01*
X147006214Y-95450920D01*
X147006213Y-95450920D01*
X146837983Y-95464158D01*
X146833260Y-95464439D01*
X146819084Y-95465011D01*
X146814121Y-95465614D01*
X146814114Y-95465559D01*
X146806420Y-95466642D01*
X146762921Y-95470067D01*
X146762916Y-95470067D01*
X146762912Y-95470068D01*
X146762909Y-95470068D01*
X146762907Y-95470069D01*
X146586554Y-95512407D01*
X146582422Y-95513325D01*
X146574272Y-95514989D01*
X146569605Y-95516341D01*
X146564069Y-95517806D01*
X146525605Y-95527041D01*
X146525599Y-95527042D01*
X146344079Y-95602230D01*
X146340632Y-95603598D01*
X146339826Y-95603903D01*
X146336841Y-95605228D01*
X146300123Y-95620437D01*
X146300118Y-95620440D01*
X146092040Y-95747951D01*
X146092037Y-95747952D01*
X145906455Y-95906455D01*
X145747952Y-96092037D01*
X145747951Y-96092040D01*
X145620436Y-96300124D01*
X145527044Y-96525594D01*
X145527042Y-96525601D01*
X145527042Y-96525602D01*
X145504888Y-96617878D01*
X145470067Y-96762916D01*
X145450920Y-97006214D01*
X104561508Y-97006214D01*
X104554679Y-96919449D01*
X104554323Y-96912222D01*
X104553701Y-96881288D01*
X104550594Y-96862171D01*
X104549373Y-96852028D01*
X104542360Y-96762916D01*
X104542360Y-96762912D01*
X104518990Y-96665572D01*
X104517179Y-96656561D01*
X104513622Y-96634671D01*
X104508015Y-96617878D01*
X104505069Y-96607587D01*
X104485386Y-96525602D01*
X104444902Y-96427865D01*
X104441868Y-96419742D01*
X104434502Y-96397677D01*
X104427126Y-96383624D01*
X104422375Y-96373481D01*
X104391991Y-96300125D01*
X104333595Y-96204832D01*
X104329559Y-96197726D01*
X104318390Y-96176444D01*
X104310040Y-96165332D01*
X104303452Y-96155642D01*
X104264473Y-96092035D01*
X104187809Y-96002273D01*
X104182986Y-95996255D01*
X104168293Y-95976702D01*
X104159774Y-95968519D01*
X104151384Y-95959624D01*
X104105973Y-95906455D01*
X104011104Y-95825429D01*
X104005799Y-95820624D01*
X103988099Y-95803623D01*
X103980166Y-95798147D01*
X103970081Y-95790392D01*
X103920393Y-95747955D01*
X103920384Y-95747948D01*
X103807923Y-95679032D01*
X103802278Y-95675358D01*
X103782479Y-95661693D01*
X103782473Y-95661689D01*
X103775808Y-95658526D01*
X103764192Y-95652234D01*
X103712298Y-95620434D01*
X103712291Y-95620431D01*
X103583225Y-95566971D01*
X103577520Y-95564438D01*
X103556747Y-95554581D01*
X103556733Y-95554576D01*
X103551915Y-95553180D01*
X103538978Y-95548642D01*
X103486836Y-95527045D01*
X103486820Y-95527040D01*
X103342610Y-95492416D01*
X103337068Y-95490950D01*
X103326113Y-95487777D01*
X103316758Y-95485068D01*
X103316749Y-95485066D01*
X103316740Y-95485065D01*
X103314166Y-95484752D01*
X103300198Y-95482235D01*
X103249516Y-95470068D01*
X103092112Y-95457679D01*
X103086901Y-95457158D01*
X103068733Y-95454952D01*
X103068714Y-95454952D01*
X103068620Y-95454956D01*
X103053923Y-95454674D01*
X103010888Y-95451287D01*
X103006214Y-95450920D01*
X103006213Y-95450920D01*
X102837983Y-95464158D01*
X102833260Y-95464439D01*
X102819084Y-95465011D01*
X102814121Y-95465614D01*
X102814114Y-95465559D01*
X102806420Y-95466642D01*
X102762921Y-95470067D01*
X102762916Y-95470067D01*
X102762912Y-95470068D01*
X102762909Y-95470068D01*
X102762907Y-95470069D01*
X102586554Y-95512407D01*
X102582422Y-95513325D01*
X102574272Y-95514989D01*
X102569605Y-95516341D01*
X102564069Y-95517806D01*
X102525605Y-95527041D01*
X102525599Y-95527042D01*
X102344079Y-95602230D01*
X102340632Y-95603598D01*
X102339826Y-95603903D01*
X102336841Y-95605228D01*
X102300123Y-95620437D01*
X102300118Y-95620440D01*
X102092040Y-95747951D01*
X102092037Y-95747952D01*
X101906455Y-95906455D01*
X101747952Y-96092037D01*
X101747951Y-96092040D01*
X101620436Y-96300124D01*
X101527044Y-96525594D01*
X101527042Y-96525601D01*
X101527042Y-96525602D01*
X101504888Y-96617878D01*
X101470067Y-96762916D01*
X101450920Y-97006214D01*
X100584000Y-97006214D01*
X100584000Y-85138000D01*
X111144341Y-85138000D01*
X111164936Y-85373403D01*
X111164938Y-85373413D01*
X111226094Y-85601655D01*
X111226096Y-85601659D01*
X111226097Y-85601663D01*
X111235424Y-85621664D01*
X111325965Y-85815830D01*
X111325967Y-85815834D01*
X111400412Y-85922151D01*
X111461501Y-86009396D01*
X111461506Y-86009402D01*
X111628597Y-86176493D01*
X111628603Y-86176498D01*
X111814594Y-86306730D01*
X111858219Y-86361307D01*
X111865413Y-86430805D01*
X111833890Y-86493160D01*
X111814595Y-86509880D01*
X111628922Y-86639890D01*
X111628920Y-86639891D01*
X111461891Y-86806920D01*
X111461886Y-86806926D01*
X111326400Y-87000420D01*
X111326399Y-87000422D01*
X111226570Y-87214507D01*
X111226567Y-87214513D01*
X111169364Y-87427999D01*
X111169364Y-87428000D01*
X112066314Y-87428000D01*
X112040507Y-87468156D01*
X112000000Y-87606111D01*
X112000000Y-87749889D01*
X112040507Y-87887844D01*
X112066314Y-87928000D01*
X111169364Y-87928000D01*
X111226567Y-88141486D01*
X111226570Y-88141492D01*
X111326399Y-88355578D01*
X111461894Y-88549082D01*
X111628917Y-88716105D01*
X111815031Y-88846425D01*
X111858656Y-88901003D01*
X111865848Y-88970501D01*
X111834326Y-89032856D01*
X111815031Y-89049575D01*
X111628922Y-89179890D01*
X111628920Y-89179891D01*
X111461891Y-89346920D01*
X111461886Y-89346926D01*
X111326400Y-89540420D01*
X111326399Y-89540422D01*
X111226570Y-89754507D01*
X111226567Y-89754513D01*
X111169364Y-89967999D01*
X111169364Y-89968000D01*
X112066314Y-89968000D01*
X112040507Y-90008156D01*
X112000000Y-90146111D01*
X112000000Y-90289889D01*
X112040507Y-90427844D01*
X112066314Y-90468000D01*
X111169364Y-90468000D01*
X111226567Y-90681486D01*
X111226570Y-90681492D01*
X111326399Y-90895578D01*
X111461894Y-91089082D01*
X111628917Y-91256105D01*
X111815031Y-91386425D01*
X111858656Y-91441003D01*
X111865848Y-91510501D01*
X111834326Y-91572856D01*
X111815031Y-91589575D01*
X111628922Y-91719890D01*
X111628920Y-91719891D01*
X111461891Y-91886920D01*
X111461886Y-91886926D01*
X111326400Y-92080420D01*
X111326399Y-92080422D01*
X111226570Y-92294507D01*
X111226567Y-92294513D01*
X111169364Y-92507999D01*
X111169364Y-92508000D01*
X112066314Y-92508000D01*
X112040507Y-92548156D01*
X112000000Y-92686111D01*
X112000000Y-92829889D01*
X112040507Y-92967844D01*
X112066314Y-93008000D01*
X111169364Y-93008000D01*
X111226567Y-93221486D01*
X111226570Y-93221492D01*
X111326399Y-93435578D01*
X111461894Y-93629082D01*
X111628917Y-93796105D01*
X111822421Y-93931600D01*
X112036507Y-94031429D01*
X112036516Y-94031433D01*
X112250000Y-94088634D01*
X112250000Y-93193501D01*
X112357685Y-93242680D01*
X112464237Y-93258000D01*
X112535763Y-93258000D01*
X112642315Y-93242680D01*
X112750000Y-93193501D01*
X112750000Y-94088633D01*
X112963483Y-94031433D01*
X112963492Y-94031429D01*
X113177578Y-93931600D01*
X113371078Y-93796108D01*
X113493133Y-93674053D01*
X113554456Y-93640568D01*
X113624148Y-93645552D01*
X113680082Y-93687423D01*
X113696997Y-93718401D01*
X113746202Y-93850328D01*
X113746206Y-93850335D01*
X113832452Y-93965544D01*
X113832455Y-93965547D01*
X113947664Y-94051793D01*
X113947671Y-94051797D01*
X114082517Y-94102091D01*
X114082516Y-94102091D01*
X114089444Y-94102835D01*
X114142127Y-94108500D01*
X115937872Y-94108499D01*
X115997483Y-94102091D01*
X116132331Y-94051796D01*
X116247546Y-93965546D01*
X116333796Y-93850331D01*
X116384091Y-93715483D01*
X116390500Y-93655873D01*
X116390499Y-93412343D01*
X116410183Y-93345304D01*
X116441611Y-93312027D01*
X116443732Y-93310486D01*
X116479074Y-93284807D01*
X116488814Y-93278408D01*
X116526420Y-93256170D01*
X116540589Y-93241999D01*
X116555379Y-93229368D01*
X116571587Y-93217594D01*
X116599438Y-93183926D01*
X116607279Y-93175309D01*
X117858787Y-91923802D01*
X117871042Y-91913986D01*
X117870859Y-91913764D01*
X117876868Y-91908791D01*
X117876877Y-91908786D01*
X117922949Y-91859722D01*
X117925566Y-91857023D01*
X117945120Y-91837471D01*
X117947576Y-91834303D01*
X117955156Y-91825427D01*
X117985062Y-91793582D01*
X117994713Y-91776024D01*
X118005396Y-91759761D01*
X118017673Y-91743936D01*
X118035021Y-91703844D01*
X118040151Y-91693371D01*
X118061197Y-91655092D01*
X118066180Y-91635680D01*
X118072481Y-91617280D01*
X118080437Y-91598896D01*
X118087270Y-91555748D01*
X118089633Y-91544338D01*
X118100500Y-91502019D01*
X118100500Y-91481983D01*
X118102027Y-91462582D01*
X118105160Y-91442804D01*
X118101050Y-91399324D01*
X118100500Y-91387655D01*
X118100500Y-91235733D01*
X118120185Y-91168694D01*
X118172989Y-91122939D01*
X118242147Y-91112995D01*
X118250239Y-91114435D01*
X118269354Y-91118498D01*
X118269359Y-91118498D01*
X118458644Y-91118498D01*
X118458646Y-91118498D01*
X118643803Y-91079142D01*
X118816730Y-91002149D01*
X118969871Y-90890886D01*
X119096533Y-90750214D01*
X119191179Y-90586282D01*
X119249674Y-90406254D01*
X119269460Y-90217998D01*
X119249674Y-90029742D01*
X119191179Y-89849714D01*
X119096533Y-89685782D01*
X119021350Y-89602282D01*
X118991120Y-89539290D01*
X118989500Y-89519310D01*
X118989500Y-88695735D01*
X119009185Y-88628696D01*
X119061989Y-88582941D01*
X119131147Y-88572997D01*
X119139279Y-88574444D01*
X119158358Y-88578500D01*
X119347648Y-88578500D01*
X119347650Y-88578500D01*
X119532807Y-88539144D01*
X119705734Y-88462151D01*
X119858875Y-88350888D01*
X119985537Y-88210216D01*
X120080183Y-88046284D01*
X120138678Y-87866256D01*
X120158464Y-87678000D01*
X120138678Y-87489744D01*
X120116931Y-87422816D01*
X120114937Y-87352978D01*
X120151017Y-87293145D01*
X120213718Y-87262316D01*
X120234863Y-87260500D01*
X120236644Y-87260500D01*
X120236646Y-87260500D01*
X120421803Y-87221144D01*
X120594730Y-87144151D01*
X120747871Y-87032888D01*
X120874533Y-86892216D01*
X120969179Y-86728284D01*
X121027674Y-86548256D01*
X121047460Y-86360000D01*
X121027786Y-86172817D01*
X121040355Y-86104092D01*
X121088087Y-86053068D01*
X121125327Y-86038570D01*
X121125656Y-86038500D01*
X121125658Y-86038500D01*
X121310815Y-85999144D01*
X121483742Y-85922151D01*
X121636883Y-85810888D01*
X121763545Y-85670216D01*
X121858191Y-85506284D01*
X121916686Y-85326256D01*
X121936472Y-85138000D01*
X121916686Y-84949744D01*
X121894939Y-84882816D01*
X121892945Y-84812978D01*
X121929025Y-84753145D01*
X121991726Y-84722316D01*
X122012871Y-84720500D01*
X122014644Y-84720500D01*
X122014646Y-84720500D01*
X122199803Y-84681144D01*
X122372730Y-84604151D01*
X122525871Y-84492888D01*
X122652533Y-84352216D01*
X122747179Y-84188284D01*
X122805674Y-84008256D01*
X122825460Y-83820000D01*
X122806064Y-83635458D01*
X122818634Y-83566732D01*
X122866366Y-83515708D01*
X122929385Y-83498500D01*
X123030644Y-83498500D01*
X123030646Y-83498500D01*
X123215803Y-83459144D01*
X123388730Y-83382151D01*
X123541871Y-83270888D01*
X123668533Y-83130216D01*
X123763179Y-82966284D01*
X123821674Y-82786256D01*
X123841460Y-82598000D01*
X123821674Y-82409744D01*
X123803610Y-82354151D01*
X123801615Y-82284314D01*
X123837695Y-82224481D01*
X123871105Y-82202557D01*
X123896730Y-82191149D01*
X124049871Y-82079886D01*
X124176533Y-81939214D01*
X124271179Y-81775282D01*
X124329674Y-81595254D01*
X124349460Y-81406998D01*
X124329674Y-81218742D01*
X124312929Y-81167208D01*
X124297857Y-81120818D01*
X124295862Y-81050976D01*
X124331943Y-80991144D01*
X124394644Y-80960316D01*
X124415788Y-80958500D01*
X124427644Y-80958500D01*
X124427646Y-80958500D01*
X124612803Y-80919144D01*
X124785730Y-80842151D01*
X124938871Y-80730888D01*
X125065533Y-80590216D01*
X125160179Y-80426284D01*
X125218674Y-80246256D01*
X125238460Y-80058000D01*
X125218674Y-79869744D01*
X125196927Y-79802816D01*
X125194933Y-79732978D01*
X125231013Y-79673145D01*
X125293714Y-79642316D01*
X125314859Y-79640500D01*
X125316644Y-79640500D01*
X125316646Y-79640500D01*
X125501803Y-79601144D01*
X125674730Y-79524151D01*
X125827871Y-79412888D01*
X125954533Y-79272216D01*
X126049179Y-79108284D01*
X126107674Y-78928256D01*
X126127460Y-78740000D01*
X126107674Y-78551744D01*
X126098715Y-78524171D01*
X126096720Y-78454330D01*
X126132800Y-78394497D01*
X126195501Y-78363669D01*
X126242421Y-78364562D01*
X126270354Y-78370500D01*
X126270358Y-78370500D01*
X126459644Y-78370500D01*
X126459646Y-78370500D01*
X126644803Y-78331144D01*
X126817730Y-78254151D01*
X126888818Y-78202502D01*
X126954622Y-78179023D01*
X127022676Y-78194848D01*
X127034585Y-78202501D01*
X127042270Y-78208084D01*
X127221134Y-78287721D01*
X127220471Y-78289209D01*
X127271405Y-78324025D01*
X127298614Y-78388379D01*
X127293356Y-78440852D01*
X127257327Y-78551739D01*
X127257327Y-78551740D01*
X127257326Y-78551744D01*
X127237540Y-78740000D01*
X127257326Y-78928256D01*
X127257327Y-78928259D01*
X127315818Y-79108277D01*
X127315821Y-79108284D01*
X127410467Y-79272216D01*
X127517830Y-79391454D01*
X127537129Y-79412888D01*
X127690265Y-79524148D01*
X127690267Y-79524149D01*
X127690270Y-79524151D01*
X127726961Y-79540487D01*
X127780196Y-79585735D01*
X127800518Y-79652584D01*
X127794455Y-79692083D01*
X127758475Y-79802819D01*
X127752326Y-79821744D01*
X127732540Y-80010000D01*
X127752326Y-80198256D01*
X127752327Y-80198259D01*
X127810818Y-80378277D01*
X127810821Y-80378284D01*
X127905467Y-80542216D01*
X127912505Y-80550032D01*
X128032129Y-80682888D01*
X128185265Y-80794148D01*
X128185270Y-80794151D01*
X128344266Y-80864942D01*
X128397503Y-80910192D01*
X128417824Y-80977042D01*
X128411761Y-81016538D01*
X128387327Y-81091739D01*
X128387326Y-81091741D01*
X128387326Y-81091744D01*
X128367540Y-81280000D01*
X128387326Y-81468256D01*
X128387327Y-81468259D01*
X128445818Y-81648277D01*
X128445821Y-81648284D01*
X128540467Y-81812216D01*
X128647830Y-81931454D01*
X128667129Y-81952888D01*
X128820265Y-82064148D01*
X128820270Y-82064151D01*
X128993197Y-82141144D01*
X128993382Y-82141183D01*
X128993479Y-82141235D01*
X128999372Y-82143150D01*
X128999022Y-82144227D01*
X129054865Y-82174366D01*
X129088649Y-82235525D01*
X129085544Y-82300792D01*
X129071352Y-82344471D01*
X129071351Y-82344473D01*
X129071351Y-82344476D01*
X129051565Y-82532732D01*
X129071351Y-82720988D01*
X129071352Y-82720991D01*
X129129843Y-82901009D01*
X129129846Y-82901016D01*
X129224492Y-83064948D01*
X129247078Y-83090032D01*
X129351154Y-83205620D01*
X129504290Y-83316880D01*
X129504295Y-83316883D01*
X129676033Y-83393347D01*
X129729270Y-83438597D01*
X129749591Y-83505446D01*
X129743528Y-83544943D01*
X129715327Y-83631738D01*
X129715326Y-83631742D01*
X129715326Y-83631744D01*
X129695540Y-83820000D01*
X129715326Y-84008256D01*
X129715327Y-84008259D01*
X129773818Y-84188277D01*
X129773821Y-84188284D01*
X129868467Y-84352216D01*
X129975830Y-84471454D01*
X129995129Y-84492888D01*
X130148268Y-84604150D01*
X130150256Y-84605298D01*
X130151176Y-84606262D01*
X130153527Y-84607971D01*
X130153214Y-84608400D01*
X130198471Y-84655866D01*
X130211692Y-84724474D01*
X130206185Y-84751002D01*
X130186048Y-84812978D01*
X130165326Y-84876754D01*
X130145540Y-85065010D01*
X130165326Y-85253266D01*
X130165327Y-85253269D01*
X130223818Y-85433287D01*
X130223821Y-85433294D01*
X130318467Y-85597226D01*
X130348006Y-85630032D01*
X130445129Y-85737898D01*
X130598265Y-85849158D01*
X130598270Y-85849161D01*
X130771191Y-85926152D01*
X130771193Y-85926152D01*
X130771197Y-85926154D01*
X130869338Y-85947014D01*
X130930816Y-85980205D01*
X130964593Y-86041367D01*
X130961485Y-86106620D01*
X130940327Y-86171738D01*
X130940326Y-86171742D01*
X130940326Y-86171744D01*
X130920540Y-86360000D01*
X130940326Y-86548256D01*
X130940327Y-86548259D01*
X130998818Y-86728277D01*
X130998821Y-86728284D01*
X131093467Y-86892216D01*
X131197670Y-87007945D01*
X131220129Y-87032888D01*
X131373265Y-87144148D01*
X131373270Y-87144151D01*
X131546191Y-87221142D01*
X131546193Y-87221142D01*
X131546197Y-87221144D01*
X131624583Y-87237805D01*
X131686061Y-87270995D01*
X131719838Y-87332158D01*
X131716730Y-87397411D01*
X131702327Y-87441739D01*
X131702326Y-87441741D01*
X131702326Y-87441744D01*
X131682540Y-87630000D01*
X131702326Y-87818256D01*
X131702327Y-87818259D01*
X131760818Y-87998277D01*
X131760821Y-87998284D01*
X131855467Y-88162216D01*
X131898685Y-88210214D01*
X131982129Y-88302888D01*
X132135265Y-88414148D01*
X132135270Y-88414151D01*
X132308192Y-88491142D01*
X132308197Y-88491144D01*
X132493354Y-88530500D01*
X132493355Y-88530500D01*
X132682644Y-88530500D01*
X132682646Y-88530500D01*
X132867803Y-88491144D01*
X133040730Y-88414151D01*
X133193871Y-88302888D01*
X133320533Y-88162216D01*
X133415179Y-87998284D01*
X133415179Y-87998282D01*
X133418428Y-87992656D01*
X133419837Y-87993469D01*
X133459805Y-87946447D01*
X133526654Y-87926125D01*
X133593878Y-87945170D01*
X133640134Y-87997536D01*
X133647610Y-88018026D01*
X133686094Y-88161655D01*
X133686096Y-88161659D01*
X133686097Y-88161663D01*
X133756475Y-88312588D01*
X133785965Y-88375830D01*
X133785967Y-88375834D01*
X133863334Y-88486324D01*
X133921501Y-88569396D01*
X133921506Y-88569402D01*
X134088597Y-88736493D01*
X134088603Y-88736498D01*
X134274158Y-88866425D01*
X134317783Y-88921002D01*
X134324977Y-88990500D01*
X134293454Y-89052855D01*
X134274158Y-89069575D01*
X134088597Y-89199505D01*
X133921505Y-89366597D01*
X133785965Y-89560169D01*
X133785964Y-89560171D01*
X133686098Y-89774335D01*
X133686094Y-89774344D01*
X133624938Y-90002586D01*
X133624936Y-90002596D01*
X133604341Y-90237999D01*
X133604341Y-90238000D01*
X133624936Y-90473403D01*
X133624938Y-90473413D01*
X133686094Y-90701655D01*
X133686096Y-90701659D01*
X133686097Y-90701663D01*
X133708736Y-90750212D01*
X133785965Y-90915830D01*
X133785967Y-90915834D01*
X133862854Y-91025639D01*
X133921501Y-91109396D01*
X133921506Y-91109402D01*
X134088597Y-91276493D01*
X134088603Y-91276498D01*
X134274158Y-91406425D01*
X134317783Y-91461002D01*
X134324977Y-91530500D01*
X134293454Y-91592855D01*
X134274158Y-91609575D01*
X134088597Y-91739505D01*
X133921505Y-91906597D01*
X133785965Y-92100169D01*
X133785964Y-92100171D01*
X133686098Y-92314335D01*
X133686094Y-92314344D01*
X133624938Y-92542586D01*
X133624936Y-92542596D01*
X133604341Y-92777999D01*
X133604341Y-92778000D01*
X133624936Y-93013403D01*
X133624938Y-93013413D01*
X133686094Y-93241655D01*
X133686096Y-93241659D01*
X133686097Y-93241663D01*
X133723304Y-93321453D01*
X133785965Y-93455830D01*
X133785967Y-93455834D01*
X133894281Y-93610521D01*
X133921505Y-93649401D01*
X134088599Y-93816495D01*
X134185384Y-93884265D01*
X134282165Y-93952032D01*
X134282167Y-93952033D01*
X134282170Y-93952035D01*
X134496337Y-94051903D01*
X134724592Y-94113063D01*
X134912918Y-94129539D01*
X134959999Y-94133659D01*
X134960000Y-94133659D01*
X134960001Y-94133659D01*
X134999234Y-94130226D01*
X135195408Y-94113063D01*
X135423663Y-94051903D01*
X135637830Y-93952035D01*
X135831401Y-93816495D01*
X135998495Y-93649401D01*
X136128425Y-93463842D01*
X136183002Y-93420217D01*
X136252500Y-93413023D01*
X136314855Y-93444546D01*
X136331575Y-93463842D01*
X136461500Y-93649395D01*
X136461505Y-93649401D01*
X136628599Y-93816495D01*
X136725384Y-93884265D01*
X136822165Y-93952032D01*
X136822167Y-93952033D01*
X136822170Y-93952035D01*
X137036337Y-94051903D01*
X137264592Y-94113063D01*
X137452918Y-94129539D01*
X137499999Y-94133659D01*
X137500000Y-94133659D01*
X137500001Y-94133659D01*
X137539234Y-94130226D01*
X137735408Y-94113063D01*
X137963663Y-94051903D01*
X138177830Y-93952035D01*
X138371401Y-93816495D01*
X138538495Y-93649401D01*
X138674035Y-93455830D01*
X138773903Y-93241663D01*
X138835063Y-93013408D01*
X138855659Y-92778000D01*
X138835063Y-92542592D01*
X138773903Y-92314337D01*
X138674035Y-92100171D01*
X138668425Y-92092158D01*
X138538494Y-91906597D01*
X138371402Y-91739506D01*
X138371396Y-91739501D01*
X138185842Y-91609575D01*
X138142217Y-91554998D01*
X138135023Y-91485500D01*
X138137803Y-91480000D01*
X143554353Y-91480000D01*
X143557519Y-91502018D01*
X143561282Y-91528192D01*
X143562544Y-91545839D01*
X143562544Y-91551527D01*
X143564145Y-91556978D01*
X143567903Y-91574255D01*
X143574834Y-91622454D01*
X143574834Y-91622455D01*
X143574835Y-91622457D01*
X143592631Y-91661425D01*
X143595059Y-91666741D01*
X143601239Y-91683309D01*
X143602843Y-91688772D01*
X143602844Y-91688773D01*
X143602845Y-91688776D01*
X143605924Y-91693566D01*
X143614397Y-91709085D01*
X143634623Y-91753373D01*
X143666510Y-91790173D01*
X143677102Y-91804322D01*
X143680182Y-91809114D01*
X143680183Y-91809115D01*
X143684473Y-91812832D01*
X143696984Y-91825342D01*
X143728872Y-91862143D01*
X143769835Y-91888468D01*
X143783994Y-91899067D01*
X143788290Y-91902790D01*
X143793463Y-91905152D01*
X143808984Y-91913628D01*
X143809752Y-91914121D01*
X143849948Y-91939954D01*
X143896665Y-91953671D01*
X143913232Y-91959848D01*
X143918409Y-91962213D01*
X143924032Y-91963021D01*
X143941315Y-91966781D01*
X143988039Y-91980500D01*
X144036727Y-91980500D01*
X144054372Y-91981761D01*
X144060000Y-91982571D01*
X144065627Y-91981761D01*
X144083273Y-91980500D01*
X144131962Y-91980500D01*
X144140688Y-91977937D01*
X144178689Y-91966779D01*
X144195963Y-91963022D01*
X144201591Y-91962213D01*
X144206759Y-91959853D01*
X144223331Y-91953671D01*
X144270053Y-91939953D01*
X144311016Y-91913627D01*
X144326547Y-91905148D01*
X144328042Y-91904464D01*
X144331710Y-91902790D01*
X144336008Y-91899065D01*
X144350162Y-91888469D01*
X144391128Y-91862143D01*
X144423015Y-91825342D01*
X144435518Y-91812839D01*
X144439818Y-91809114D01*
X144442892Y-91804329D01*
X144453490Y-91790171D01*
X144485377Y-91753373D01*
X144505607Y-91709074D01*
X144514075Y-91693566D01*
X144517155Y-91688776D01*
X144518756Y-91683322D01*
X144524934Y-91666755D01*
X144545165Y-91622457D01*
X144552094Y-91574258D01*
X144555854Y-91556978D01*
X144557456Y-91551523D01*
X144557907Y-91538825D01*
X144559088Y-91525619D01*
X144565647Y-91480000D01*
X144559088Y-91434385D01*
X144557907Y-91421172D01*
X144557456Y-91408477D01*
X144555852Y-91403016D01*
X144552094Y-91385735D01*
X144550309Y-91373318D01*
X144545165Y-91337543D01*
X144524933Y-91293241D01*
X144518756Y-91276678D01*
X144517155Y-91271224D01*
X144514079Y-91266437D01*
X144505603Y-91250915D01*
X144485377Y-91206627D01*
X144453496Y-91169834D01*
X144442895Y-91155674D01*
X144439818Y-91150886D01*
X144439816Y-91150884D01*
X144439813Y-91150881D01*
X144435521Y-91147162D01*
X144423015Y-91134657D01*
X144391128Y-91097857D01*
X144350164Y-91071531D01*
X144336003Y-91060930D01*
X144331709Y-91057209D01*
X144331706Y-91057207D01*
X144326536Y-91054846D01*
X144311018Y-91046373D01*
X144270053Y-91020047D01*
X144270048Y-91020045D01*
X144223329Y-91006326D01*
X144206764Y-91000148D01*
X144201596Y-90997788D01*
X144201592Y-90997787D01*
X144195965Y-90996978D01*
X144178681Y-90993218D01*
X144131962Y-90979500D01*
X144131961Y-90979500D01*
X144083273Y-90979500D01*
X144065627Y-90978238D01*
X144060000Y-90977429D01*
X144054372Y-90978238D01*
X144036727Y-90979500D01*
X143988036Y-90979500D01*
X143941310Y-90993219D01*
X143924036Y-90996977D01*
X143918412Y-90997785D01*
X143918409Y-90997787D01*
X143913233Y-91000150D01*
X143896677Y-91006324D01*
X143849944Y-91020047D01*
X143808985Y-91046370D01*
X143793468Y-91054844D01*
X143788294Y-91057207D01*
X143788289Y-91057210D01*
X143783994Y-91060932D01*
X143769839Y-91071528D01*
X143728872Y-91097856D01*
X143728868Y-91097860D01*
X143696986Y-91134654D01*
X143684482Y-91147159D01*
X143680183Y-91150884D01*
X143680181Y-91150886D01*
X143677100Y-91155680D01*
X143666506Y-91169830D01*
X143634624Y-91206625D01*
X143634620Y-91206631D01*
X143614396Y-91250915D01*
X143605920Y-91266438D01*
X143602845Y-91271222D01*
X143602843Y-91271226D01*
X143601241Y-91276683D01*
X143595062Y-91293251D01*
X143574834Y-91337546D01*
X143567903Y-91385745D01*
X143564147Y-91403017D01*
X143563505Y-91405203D01*
X143562545Y-91408476D01*
X143562544Y-91408478D01*
X143562544Y-91414159D01*
X143561282Y-91431805D01*
X143554353Y-91480000D01*
X138137803Y-91480000D01*
X138166546Y-91423145D01*
X138185842Y-91406425D01*
X138215390Y-91385735D01*
X138371401Y-91276495D01*
X138538495Y-91109401D01*
X138674035Y-90915830D01*
X138773903Y-90701663D01*
X138835063Y-90473408D01*
X138855659Y-90238000D01*
X138835063Y-90002592D01*
X138773903Y-89774337D01*
X138674035Y-89560171D01*
X138668425Y-89552158D01*
X138538494Y-89366597D01*
X138371402Y-89199506D01*
X138371396Y-89199501D01*
X138185842Y-89069575D01*
X138142217Y-89014998D01*
X138136524Y-88959999D01*
X143554353Y-88959999D01*
X143561282Y-89008192D01*
X143562544Y-89025839D01*
X143562544Y-89031527D01*
X143564145Y-89036978D01*
X143567903Y-89054255D01*
X143574834Y-89102454D01*
X143595059Y-89146741D01*
X143601239Y-89163309D01*
X143602843Y-89168772D01*
X143602844Y-89168773D01*
X143602845Y-89168776D01*
X143605924Y-89173566D01*
X143614397Y-89189085D01*
X143634623Y-89233373D01*
X143666510Y-89270173D01*
X143677102Y-89284322D01*
X143680182Y-89289114D01*
X143680183Y-89289115D01*
X143684473Y-89292832D01*
X143696984Y-89305342D01*
X143728872Y-89342143D01*
X143769835Y-89368468D01*
X143783994Y-89379067D01*
X143788290Y-89382790D01*
X143793463Y-89385152D01*
X143808984Y-89393628D01*
X143827988Y-89405841D01*
X143849948Y-89419954D01*
X143896665Y-89433671D01*
X143913232Y-89439848D01*
X143918409Y-89442213D01*
X143924032Y-89443021D01*
X143941315Y-89446781D01*
X143988039Y-89460500D01*
X144036727Y-89460500D01*
X144054372Y-89461761D01*
X144060000Y-89462571D01*
X144065627Y-89461761D01*
X144083273Y-89460500D01*
X144131962Y-89460500D01*
X144140688Y-89457937D01*
X144178689Y-89446779D01*
X144195963Y-89443022D01*
X144201591Y-89442213D01*
X144206759Y-89439853D01*
X144223331Y-89433671D01*
X144270053Y-89419953D01*
X144311016Y-89393627D01*
X144326547Y-89385148D01*
X144328042Y-89384464D01*
X144331710Y-89382790D01*
X144336008Y-89379065D01*
X144350162Y-89368469D01*
X144391128Y-89342143D01*
X144423015Y-89305342D01*
X144435518Y-89292839D01*
X144439818Y-89289114D01*
X144442892Y-89284329D01*
X144453490Y-89270171D01*
X144485377Y-89233373D01*
X144505607Y-89189074D01*
X144514075Y-89173566D01*
X144517155Y-89168776D01*
X144518756Y-89163322D01*
X144524934Y-89146755D01*
X144545165Y-89102457D01*
X144552094Y-89054258D01*
X144555854Y-89036978D01*
X144557456Y-89031523D01*
X144557907Y-89018825D01*
X144559088Y-89005619D01*
X144565647Y-88960000D01*
X144559088Y-88914385D01*
X144557907Y-88901172D01*
X144557456Y-88888477D01*
X144555852Y-88883016D01*
X144552094Y-88865735D01*
X144550124Y-88852035D01*
X144545165Y-88817543D01*
X144524933Y-88773241D01*
X144518756Y-88756678D01*
X144517155Y-88751224D01*
X144514079Y-88746437D01*
X144505603Y-88730915D01*
X144485377Y-88686627D01*
X144453496Y-88649834D01*
X144442895Y-88635674D01*
X144439818Y-88630886D01*
X144439816Y-88630884D01*
X144439813Y-88630881D01*
X144435521Y-88627162D01*
X144423015Y-88614657D01*
X144391128Y-88577857D01*
X144350164Y-88551531D01*
X144336003Y-88540930D01*
X144331709Y-88537209D01*
X144331706Y-88537207D01*
X144326536Y-88534846D01*
X144311018Y-88526373D01*
X144270053Y-88500047D01*
X144270048Y-88500045D01*
X144223329Y-88486326D01*
X144206764Y-88480148D01*
X144201596Y-88477788D01*
X144201592Y-88477787D01*
X144195965Y-88476978D01*
X144178681Y-88473218D01*
X144131962Y-88459500D01*
X144131961Y-88459500D01*
X144083273Y-88459500D01*
X144065627Y-88458238D01*
X144060000Y-88457429D01*
X144054372Y-88458238D01*
X144036727Y-88459500D01*
X143988036Y-88459500D01*
X143941310Y-88473219D01*
X143924036Y-88476977D01*
X143918412Y-88477785D01*
X143918409Y-88477787D01*
X143913233Y-88480150D01*
X143896677Y-88486324D01*
X143849944Y-88500047D01*
X143808985Y-88526370D01*
X143793468Y-88534844D01*
X143788294Y-88537207D01*
X143788289Y-88537210D01*
X143783994Y-88540932D01*
X143769839Y-88551528D01*
X143728872Y-88577856D01*
X143728868Y-88577860D01*
X143696986Y-88614654D01*
X143684482Y-88627159D01*
X143680183Y-88630884D01*
X143680181Y-88630886D01*
X143677100Y-88635680D01*
X143666506Y-88649830D01*
X143634624Y-88686625D01*
X143634620Y-88686631D01*
X143614396Y-88730915D01*
X143605920Y-88746438D01*
X143602845Y-88751222D01*
X143602843Y-88751226D01*
X143601241Y-88756683D01*
X143595062Y-88773251D01*
X143574834Y-88817546D01*
X143567903Y-88865745D01*
X143564147Y-88883017D01*
X143563505Y-88885203D01*
X143562545Y-88888476D01*
X143562544Y-88888478D01*
X143562544Y-88894159D01*
X143561282Y-88911805D01*
X143554353Y-88959999D01*
X138136524Y-88959999D01*
X138135023Y-88945500D01*
X138166546Y-88883145D01*
X138185842Y-88866425D01*
X138255650Y-88817545D01*
X138371401Y-88736495D01*
X138538495Y-88569401D01*
X138674035Y-88375830D01*
X138773903Y-88161663D01*
X138835063Y-87933408D01*
X138855659Y-87698000D01*
X138835063Y-87462592D01*
X138773903Y-87234337D01*
X138674035Y-87020171D01*
X138668425Y-87012158D01*
X138538494Y-86826597D01*
X138371402Y-86659506D01*
X138371396Y-86659501D01*
X138185842Y-86529575D01*
X138142217Y-86474998D01*
X138135023Y-86405500D01*
X138166546Y-86343145D01*
X138185842Y-86326425D01*
X138214405Y-86306425D01*
X138371401Y-86196495D01*
X138538495Y-86029401D01*
X138674035Y-85835830D01*
X138773903Y-85621663D01*
X138835063Y-85393408D01*
X138855659Y-85158000D01*
X138835063Y-84922592D01*
X138773903Y-84694337D01*
X138674035Y-84480171D01*
X138668425Y-84472158D01*
X138538494Y-84286597D01*
X138371402Y-84119506D01*
X138371396Y-84119501D01*
X138185842Y-83989575D01*
X138142217Y-83934998D01*
X138135023Y-83865500D01*
X138166546Y-83803145D01*
X138185842Y-83786425D01*
X138214405Y-83766425D01*
X138371401Y-83656495D01*
X138538495Y-83489401D01*
X138674035Y-83295830D01*
X138773903Y-83081663D01*
X138835063Y-82853408D01*
X138855659Y-82618000D01*
X138835063Y-82382592D01*
X138773903Y-82154337D01*
X138674035Y-81940171D01*
X138668425Y-81932158D01*
X138538494Y-81746597D01*
X138371402Y-81579506D01*
X138371396Y-81579501D01*
X138185842Y-81449575D01*
X138142217Y-81394998D01*
X138135023Y-81325500D01*
X138166546Y-81263145D01*
X138185842Y-81246425D01*
X138225383Y-81218738D01*
X138371401Y-81116495D01*
X138538495Y-80949401D01*
X138674035Y-80755830D01*
X138773903Y-80541663D01*
X138835063Y-80313408D01*
X138855659Y-80078000D01*
X138835063Y-79842592D01*
X138773903Y-79614337D01*
X138674035Y-79400171D01*
X138668425Y-79392158D01*
X138538494Y-79206597D01*
X138371402Y-79039506D01*
X138371396Y-79039501D01*
X138185842Y-78909575D01*
X138142217Y-78854998D01*
X138135023Y-78785500D01*
X138166546Y-78723145D01*
X138185842Y-78706425D01*
X138214405Y-78686425D01*
X138371401Y-78576495D01*
X138538495Y-78409401D01*
X138674035Y-78215830D01*
X138773903Y-78001663D01*
X138835063Y-77773408D01*
X138855659Y-77538000D01*
X138835063Y-77302592D01*
X138773903Y-77074337D01*
X138674035Y-76860171D01*
X138668425Y-76852158D01*
X138538494Y-76666597D01*
X138371402Y-76499506D01*
X138371396Y-76499501D01*
X138185842Y-76369575D01*
X138142217Y-76314998D01*
X138135023Y-76245500D01*
X138166546Y-76183145D01*
X138185842Y-76166425D01*
X138214405Y-76146425D01*
X138371401Y-76036495D01*
X138538495Y-75869401D01*
X138674035Y-75675830D01*
X138773903Y-75461663D01*
X138835063Y-75233408D01*
X138855659Y-74998000D01*
X138835063Y-74762592D01*
X138773903Y-74534337D01*
X138674035Y-74320171D01*
X138668425Y-74312158D01*
X138538494Y-74126597D01*
X138371402Y-73959506D01*
X138371396Y-73959501D01*
X138185842Y-73829575D01*
X138142217Y-73774998D01*
X138135023Y-73705500D01*
X138166546Y-73643145D01*
X138185842Y-73626425D01*
X138214405Y-73606425D01*
X138371401Y-73496495D01*
X138538495Y-73329401D01*
X138674035Y-73135830D01*
X138773903Y-72921663D01*
X138835063Y-72693408D01*
X138855659Y-72458000D01*
X138835063Y-72222592D01*
X138773903Y-71994337D01*
X138674035Y-71780171D01*
X138668425Y-71772158D01*
X138538494Y-71586597D01*
X138371402Y-71419506D01*
X138371396Y-71419501D01*
X138185842Y-71289575D01*
X138142217Y-71234998D01*
X138135023Y-71165500D01*
X138166546Y-71103145D01*
X138185842Y-71086425D01*
X138214405Y-71066425D01*
X138371401Y-70956495D01*
X138538495Y-70789401D01*
X138674035Y-70595830D01*
X138773903Y-70381663D01*
X138835063Y-70153408D01*
X138855659Y-69918000D01*
X138835063Y-69682592D01*
X138773903Y-69454337D01*
X138674035Y-69240171D01*
X138668425Y-69232158D01*
X138538494Y-69046597D01*
X138371402Y-68879506D01*
X138371396Y-68879501D01*
X138185842Y-68749575D01*
X138142217Y-68694998D01*
X138135023Y-68625500D01*
X138166546Y-68563145D01*
X138185842Y-68546425D01*
X138214405Y-68526425D01*
X138371401Y-68416495D01*
X138538495Y-68249401D01*
X138674035Y-68055830D01*
X138773903Y-67841663D01*
X138835063Y-67613408D01*
X138855659Y-67378000D01*
X138835063Y-67142592D01*
X138773903Y-66914337D01*
X138674035Y-66700171D01*
X138668425Y-66692158D01*
X138538494Y-66506597D01*
X138371402Y-66339506D01*
X138371396Y-66339501D01*
X138185842Y-66209575D01*
X138142217Y-66154998D01*
X138135023Y-66085500D01*
X138166546Y-66023145D01*
X138185842Y-66006425D01*
X138214405Y-65986425D01*
X138371401Y-65876495D01*
X138538495Y-65709401D01*
X138674035Y-65515830D01*
X138773903Y-65301663D01*
X138835063Y-65073408D01*
X138855659Y-64838000D01*
X138835063Y-64602592D01*
X138773903Y-64374337D01*
X138674035Y-64160171D01*
X138668425Y-64152158D01*
X138538494Y-63966597D01*
X138371402Y-63799506D01*
X138371401Y-63799505D01*
X138185405Y-63669269D01*
X138141781Y-63614692D01*
X138134588Y-63545193D01*
X138166110Y-63482839D01*
X138185405Y-63466119D01*
X138371082Y-63336105D01*
X138538105Y-63169082D01*
X138673600Y-62975578D01*
X138773429Y-62761492D01*
X138773433Y-62761483D01*
X138797582Y-62671358D01*
X138833947Y-62611697D01*
X138896794Y-62581168D01*
X138966169Y-62589463D01*
X139020047Y-62633948D01*
X139024732Y-62641431D01*
X139071798Y-62722952D01*
X139094467Y-62762216D01*
X139221129Y-62902888D01*
X139374265Y-63014148D01*
X139374270Y-63014151D01*
X139547192Y-63091142D01*
X139547197Y-63091144D01*
X139732354Y-63130500D01*
X139732355Y-63130500D01*
X139921644Y-63130500D01*
X139921646Y-63130500D01*
X140106803Y-63091144D01*
X140279730Y-63014151D01*
X140432871Y-62902888D01*
X140559533Y-62762216D01*
X140654179Y-62598284D01*
X140712674Y-62418256D01*
X140732460Y-62230000D01*
X140712674Y-62041744D01*
X140654179Y-61861716D01*
X140559533Y-61697784D01*
X140432871Y-61557112D01*
X140432870Y-61557111D01*
X140279734Y-61445851D01*
X140279729Y-61445848D01*
X140106807Y-61368857D01*
X140106802Y-61368855D01*
X139958549Y-61337344D01*
X139921646Y-61329500D01*
X139921645Y-61329500D01*
X139862453Y-61329500D01*
X139795414Y-61309815D01*
X139774772Y-61293181D01*
X139473591Y-60992000D01*
X143554353Y-60992000D01*
X143560909Y-61037597D01*
X143561282Y-61040192D01*
X143562544Y-61057839D01*
X143562544Y-61063527D01*
X143564145Y-61068978D01*
X143567903Y-61086255D01*
X143574834Y-61134454D01*
X143595059Y-61178741D01*
X143601239Y-61195309D01*
X143602843Y-61200772D01*
X143602844Y-61200773D01*
X143602845Y-61200776D01*
X143605924Y-61205566D01*
X143614397Y-61221085D01*
X143622809Y-61239505D01*
X143634623Y-61265373D01*
X143666510Y-61302173D01*
X143677102Y-61316322D01*
X143680182Y-61321114D01*
X143680183Y-61321115D01*
X143684473Y-61324832D01*
X143696984Y-61337342D01*
X143728872Y-61374143D01*
X143769835Y-61400468D01*
X143783994Y-61411067D01*
X143788290Y-61414790D01*
X143793463Y-61417152D01*
X143808984Y-61425628D01*
X143827988Y-61437841D01*
X143849948Y-61451954D01*
X143896665Y-61465671D01*
X143913232Y-61471848D01*
X143918409Y-61474213D01*
X143924032Y-61475021D01*
X143941315Y-61478781D01*
X143988039Y-61492500D01*
X144036727Y-61492500D01*
X144054372Y-61493761D01*
X144060000Y-61494571D01*
X144065627Y-61493761D01*
X144083273Y-61492500D01*
X144131962Y-61492500D01*
X144140688Y-61489937D01*
X144178689Y-61478779D01*
X144195963Y-61475022D01*
X144201591Y-61474213D01*
X144206759Y-61471853D01*
X144223331Y-61465671D01*
X144270053Y-61451953D01*
X144311016Y-61425627D01*
X144326547Y-61417148D01*
X144328042Y-61416464D01*
X144331710Y-61414790D01*
X144336008Y-61411065D01*
X144350162Y-61400469D01*
X144391128Y-61374143D01*
X144423015Y-61337342D01*
X144435518Y-61324839D01*
X144439818Y-61321114D01*
X144442892Y-61316329D01*
X144453490Y-61302171D01*
X144485377Y-61265373D01*
X144505607Y-61221074D01*
X144514075Y-61205566D01*
X144517155Y-61200776D01*
X144518756Y-61195322D01*
X144524934Y-61178755D01*
X144545165Y-61134457D01*
X144552094Y-61086258D01*
X144555854Y-61068978D01*
X144557456Y-61063523D01*
X144557907Y-61050825D01*
X144559088Y-61037619D01*
X144565647Y-60992000D01*
X144559088Y-60946385D01*
X144557907Y-60933172D01*
X144557456Y-60920477D01*
X144555852Y-60915016D01*
X144552094Y-60897735D01*
X144550961Y-60889858D01*
X144545165Y-60849543D01*
X144524933Y-60805241D01*
X144518756Y-60788678D01*
X144517155Y-60783224D01*
X144514079Y-60778437D01*
X144505603Y-60762915D01*
X144485377Y-60718627D01*
X144453496Y-60681834D01*
X144442895Y-60667674D01*
X144439818Y-60662886D01*
X144439816Y-60662884D01*
X144439813Y-60662881D01*
X144435521Y-60659162D01*
X144423015Y-60646657D01*
X144391128Y-60609857D01*
X144350164Y-60583531D01*
X144336003Y-60572930D01*
X144331709Y-60569209D01*
X144331706Y-60569207D01*
X144326536Y-60566846D01*
X144311018Y-60558373D01*
X144270053Y-60532047D01*
X144270048Y-60532045D01*
X144223329Y-60518326D01*
X144206764Y-60512148D01*
X144201596Y-60509788D01*
X144201592Y-60509787D01*
X144195965Y-60508978D01*
X144178681Y-60505218D01*
X144131962Y-60491500D01*
X144131961Y-60491500D01*
X144083273Y-60491500D01*
X144065627Y-60490238D01*
X144060000Y-60489429D01*
X144054372Y-60490238D01*
X144036727Y-60491500D01*
X143988036Y-60491500D01*
X143941310Y-60505219D01*
X143924036Y-60508977D01*
X143918412Y-60509785D01*
X143918409Y-60509787D01*
X143913233Y-60512150D01*
X143896677Y-60518324D01*
X143849944Y-60532047D01*
X143808985Y-60558370D01*
X143793468Y-60566844D01*
X143788294Y-60569207D01*
X143788289Y-60569210D01*
X143783994Y-60572932D01*
X143769839Y-60583528D01*
X143728872Y-60609856D01*
X143728868Y-60609860D01*
X143696986Y-60646654D01*
X143684482Y-60659159D01*
X143680183Y-60662884D01*
X143680181Y-60662886D01*
X143677100Y-60667680D01*
X143666506Y-60681830D01*
X143634624Y-60718625D01*
X143634620Y-60718631D01*
X143614396Y-60762915D01*
X143605920Y-60778438D01*
X143602845Y-60783222D01*
X143602843Y-60783226D01*
X143601241Y-60788683D01*
X143595062Y-60805251D01*
X143574834Y-60849546D01*
X143567903Y-60897745D01*
X143564147Y-60915017D01*
X143562545Y-60920476D01*
X143562544Y-60920478D01*
X143562544Y-60926159D01*
X143561282Y-60943805D01*
X143554353Y-60991999D01*
X143554353Y-60992000D01*
X139473591Y-60992000D01*
X139220803Y-60739212D01*
X139210980Y-60726950D01*
X139210759Y-60727134D01*
X139205786Y-60721122D01*
X139156776Y-60675099D01*
X139153977Y-60672386D01*
X139134477Y-60652885D01*
X139134471Y-60652880D01*
X139131286Y-60650409D01*
X139122434Y-60642848D01*
X139090582Y-60612938D01*
X139090580Y-60612936D01*
X139090577Y-60612935D01*
X139073029Y-60603288D01*
X139056763Y-60592604D01*
X139045066Y-60583531D01*
X139040936Y-60580327D01*
X139040935Y-60580326D01*
X139040932Y-60580324D01*
X139000849Y-60562978D01*
X138990363Y-60557841D01*
X138952094Y-60536803D01*
X138952092Y-60536802D01*
X138932693Y-60531822D01*
X138914281Y-60525518D01*
X138895898Y-60517562D01*
X138895892Y-60517560D01*
X138852760Y-60510729D01*
X138841321Y-60508360D01*
X138805890Y-60499263D01*
X138745852Y-60463525D01*
X138714666Y-60401002D01*
X138722234Y-60331543D01*
X138724345Y-60326754D01*
X138773430Y-60221492D01*
X138773433Y-60221483D01*
X138797582Y-60131358D01*
X138833947Y-60071697D01*
X138896794Y-60041168D01*
X138966169Y-60049463D01*
X139020047Y-60093948D01*
X139024732Y-60101431D01*
X139071798Y-60182952D01*
X139094467Y-60222216D01*
X139221129Y-60362888D01*
X139374265Y-60474148D01*
X139374270Y-60474151D01*
X139547192Y-60551142D01*
X139547197Y-60551144D01*
X139732354Y-60590500D01*
X139732355Y-60590500D01*
X139921644Y-60590500D01*
X139921646Y-60590500D01*
X140106803Y-60551144D01*
X140279730Y-60474151D01*
X140432871Y-60362888D01*
X140559533Y-60222216D01*
X140654179Y-60058284D01*
X140712674Y-59878256D01*
X140732460Y-59690000D01*
X140712674Y-59501744D01*
X140654179Y-59321716D01*
X140559533Y-59157784D01*
X140432871Y-59017112D01*
X140432870Y-59017111D01*
X140279734Y-58905851D01*
X140279729Y-58905848D01*
X140106807Y-58828857D01*
X140106802Y-58828855D01*
X139961001Y-58797865D01*
X139921646Y-58789500D01*
X139921645Y-58789500D01*
X139862453Y-58789500D01*
X139795414Y-58769815D01*
X139774772Y-58753181D01*
X139491591Y-58470000D01*
X143554353Y-58470000D01*
X143560823Y-58514998D01*
X143561282Y-58518192D01*
X143562544Y-58535839D01*
X143562544Y-58541527D01*
X143564145Y-58546978D01*
X143567903Y-58564255D01*
X143574834Y-58612454D01*
X143595059Y-58656741D01*
X143601239Y-58673309D01*
X143602843Y-58678772D01*
X143602844Y-58678773D01*
X143602845Y-58678776D01*
X143605924Y-58683566D01*
X143614397Y-58699085D01*
X143634623Y-58743373D01*
X143666510Y-58780173D01*
X143677102Y-58794322D01*
X143680182Y-58799114D01*
X143680183Y-58799115D01*
X143684473Y-58802832D01*
X143696984Y-58815342D01*
X143728872Y-58852143D01*
X143769835Y-58878468D01*
X143783994Y-58889067D01*
X143788290Y-58892790D01*
X143793463Y-58895152D01*
X143808984Y-58903628D01*
X143827988Y-58915841D01*
X143849948Y-58929954D01*
X143896665Y-58943671D01*
X143913232Y-58949848D01*
X143918409Y-58952213D01*
X143924032Y-58953021D01*
X143941315Y-58956781D01*
X143988039Y-58970500D01*
X144036727Y-58970500D01*
X144054372Y-58971761D01*
X144060000Y-58972571D01*
X144065627Y-58971761D01*
X144083273Y-58970500D01*
X144131962Y-58970500D01*
X144140688Y-58967937D01*
X144178689Y-58956779D01*
X144195963Y-58953022D01*
X144201591Y-58952213D01*
X144206759Y-58949853D01*
X144223331Y-58943671D01*
X144270053Y-58929953D01*
X144311016Y-58903627D01*
X144326547Y-58895148D01*
X144328042Y-58894464D01*
X144331710Y-58892790D01*
X144336008Y-58889065D01*
X144350162Y-58878469D01*
X144391128Y-58852143D01*
X144423015Y-58815342D01*
X144435518Y-58802839D01*
X144439818Y-58799114D01*
X144442892Y-58794329D01*
X144453490Y-58780171D01*
X144485377Y-58743373D01*
X144505607Y-58699074D01*
X144514075Y-58683566D01*
X144517155Y-58678776D01*
X144518756Y-58673322D01*
X144524934Y-58656755D01*
X144545165Y-58612457D01*
X144552094Y-58564258D01*
X144555854Y-58546978D01*
X144557456Y-58541523D01*
X144557907Y-58528825D01*
X144559088Y-58515619D01*
X144565647Y-58470000D01*
X144559088Y-58424385D01*
X144557907Y-58411172D01*
X144557456Y-58398477D01*
X144555852Y-58393016D01*
X144552094Y-58375735D01*
X144550755Y-58366425D01*
X144545165Y-58327543D01*
X144524933Y-58283241D01*
X144518756Y-58266678D01*
X144517155Y-58261224D01*
X144514079Y-58256437D01*
X144505603Y-58240915D01*
X144485377Y-58196627D01*
X144479227Y-58189530D01*
X144453496Y-58159834D01*
X144442895Y-58145674D01*
X144439818Y-58140886D01*
X144439816Y-58140884D01*
X144439813Y-58140881D01*
X144435521Y-58137162D01*
X144423015Y-58124657D01*
X144391128Y-58087857D01*
X144350164Y-58061531D01*
X144336003Y-58050930D01*
X144331709Y-58047209D01*
X144331706Y-58047207D01*
X144326536Y-58044846D01*
X144311018Y-58036373D01*
X144270053Y-58010047D01*
X144270048Y-58010045D01*
X144223329Y-57996326D01*
X144206764Y-57990148D01*
X144201596Y-57987788D01*
X144201592Y-57987787D01*
X144195965Y-57986978D01*
X144178681Y-57983218D01*
X144131962Y-57969500D01*
X144131961Y-57969500D01*
X144083273Y-57969500D01*
X144065627Y-57968238D01*
X144060000Y-57967429D01*
X144054372Y-57968238D01*
X144036727Y-57969500D01*
X143988036Y-57969500D01*
X143941310Y-57983219D01*
X143924036Y-57986977D01*
X143918412Y-57987785D01*
X143918409Y-57987787D01*
X143913233Y-57990150D01*
X143896677Y-57996324D01*
X143849944Y-58010047D01*
X143808985Y-58036370D01*
X143793468Y-58044844D01*
X143788294Y-58047207D01*
X143788289Y-58047210D01*
X143783994Y-58050932D01*
X143769839Y-58061528D01*
X143728872Y-58087856D01*
X143728868Y-58087860D01*
X143696986Y-58124654D01*
X143684482Y-58137159D01*
X143680183Y-58140884D01*
X143680181Y-58140886D01*
X143677100Y-58145680D01*
X143666506Y-58159830D01*
X143634624Y-58196625D01*
X143634620Y-58196631D01*
X143614396Y-58240915D01*
X143605920Y-58256438D01*
X143602845Y-58261222D01*
X143602843Y-58261226D01*
X143601241Y-58266683D01*
X143595062Y-58283251D01*
X143574834Y-58327546D01*
X143567903Y-58375745D01*
X143564147Y-58393017D01*
X143562545Y-58398476D01*
X143562544Y-58398478D01*
X143562544Y-58404159D01*
X143561282Y-58421805D01*
X143554353Y-58469999D01*
X143554353Y-58470000D01*
X139491591Y-58470000D01*
X139220803Y-58199212D01*
X139210980Y-58186950D01*
X139210759Y-58187134D01*
X139205786Y-58181122D01*
X139156776Y-58135099D01*
X139153977Y-58132386D01*
X139134477Y-58112885D01*
X139134471Y-58112880D01*
X139131286Y-58110409D01*
X139122434Y-58102848D01*
X139090582Y-58072938D01*
X139090580Y-58072936D01*
X139090577Y-58072935D01*
X139073029Y-58063288D01*
X139056763Y-58052604D01*
X139049805Y-58047207D01*
X139040936Y-58040327D01*
X139040935Y-58040326D01*
X139040932Y-58040324D01*
X139000849Y-58022978D01*
X138990363Y-58017841D01*
X138952094Y-57996803D01*
X138952092Y-57996802D01*
X138932693Y-57991822D01*
X138914281Y-57985518D01*
X138895898Y-57977562D01*
X138895892Y-57977560D01*
X138852760Y-57970729D01*
X138841321Y-57968360D01*
X138805890Y-57959263D01*
X138745852Y-57923525D01*
X138714666Y-57861002D01*
X138722234Y-57791543D01*
X138724345Y-57786754D01*
X138773430Y-57681492D01*
X138773433Y-57681483D01*
X138797582Y-57591358D01*
X138833947Y-57531697D01*
X138896794Y-57501168D01*
X138966169Y-57509463D01*
X139020047Y-57553948D01*
X139024732Y-57561431D01*
X139071798Y-57642952D01*
X139094467Y-57682216D01*
X139221129Y-57822888D01*
X139374265Y-57934148D01*
X139374270Y-57934151D01*
X139547192Y-58011142D01*
X139547197Y-58011144D01*
X139732354Y-58050500D01*
X139732355Y-58050500D01*
X139921644Y-58050500D01*
X139921646Y-58050500D01*
X140106803Y-58011144D01*
X140279730Y-57934151D01*
X140432871Y-57822888D01*
X140559533Y-57682216D01*
X140654179Y-57518284D01*
X140712674Y-57338256D01*
X140732460Y-57150000D01*
X140712674Y-56961744D01*
X140654179Y-56781716D01*
X140559533Y-56617784D01*
X140432871Y-56477112D01*
X140432870Y-56477111D01*
X140279734Y-56365851D01*
X140279729Y-56365848D01*
X140106807Y-56288857D01*
X140106802Y-56288855D01*
X139961001Y-56257865D01*
X139921646Y-56249500D01*
X139921645Y-56249500D01*
X139862453Y-56249500D01*
X139795414Y-56229815D01*
X139774772Y-56213181D01*
X139220803Y-55659212D01*
X139210980Y-55646950D01*
X139210759Y-55647134D01*
X139205786Y-55641122D01*
X139156776Y-55595099D01*
X139153977Y-55592386D01*
X139134477Y-55572885D01*
X139134471Y-55572880D01*
X139131286Y-55570409D01*
X139122434Y-55562848D01*
X139090582Y-55532938D01*
X139090580Y-55532936D01*
X139090577Y-55532935D01*
X139073029Y-55523288D01*
X139056763Y-55512604D01*
X139040932Y-55500324D01*
X139000849Y-55482978D01*
X138990363Y-55477841D01*
X138952094Y-55456803D01*
X138952092Y-55456802D01*
X138932693Y-55451822D01*
X138914281Y-55445518D01*
X138895898Y-55437562D01*
X138895892Y-55437560D01*
X138852760Y-55430729D01*
X138841322Y-55428361D01*
X138799020Y-55417500D01*
X138799019Y-55417500D01*
X138778984Y-55417500D01*
X138759586Y-55415973D01*
X138752162Y-55414797D01*
X138739805Y-55412840D01*
X138739804Y-55412840D01*
X138696325Y-55416950D01*
X138684656Y-55417500D01*
X136217743Y-55417500D01*
X136202122Y-55415775D01*
X136202096Y-55416061D01*
X136194334Y-55415327D01*
X136194333Y-55415327D01*
X136142688Y-55416950D01*
X136127127Y-55417439D01*
X136123232Y-55417500D01*
X136095647Y-55417500D01*
X136091661Y-55418003D01*
X136080033Y-55418918D01*
X136036373Y-55420290D01*
X136017129Y-55425881D01*
X135998079Y-55429825D01*
X135978211Y-55432334D01*
X135978210Y-55432334D01*
X135937599Y-55448413D01*
X135926554Y-55452194D01*
X135884614Y-55464379D01*
X135884610Y-55464381D01*
X135867366Y-55474579D01*
X135849905Y-55483133D01*
X135831274Y-55490510D01*
X135831262Y-55490517D01*
X135795933Y-55516185D01*
X135786173Y-55522596D01*
X135748580Y-55544829D01*
X135734414Y-55558995D01*
X135719624Y-55571627D01*
X135703414Y-55583404D01*
X135703411Y-55583407D01*
X135675573Y-55617058D01*
X135667711Y-55625697D01*
X135462227Y-55831181D01*
X135400904Y-55864666D01*
X135374546Y-55867500D01*
X134062129Y-55867500D01*
X134062123Y-55867501D01*
X134002516Y-55873908D01*
X133867671Y-55924202D01*
X133867664Y-55924206D01*
X133752455Y-56010452D01*
X133752452Y-56010455D01*
X133666206Y-56125664D01*
X133666202Y-56125671D01*
X133615908Y-56260517D01*
X133609501Y-56320116D01*
X133609500Y-56320135D01*
X133609500Y-58115870D01*
X133609501Y-58115876D01*
X133615908Y-58175483D01*
X133666202Y-58310328D01*
X133666206Y-58310335D01*
X133752452Y-58425544D01*
X133752455Y-58425547D01*
X133867664Y-58511793D01*
X133867671Y-58511797D01*
X133999081Y-58560810D01*
X134055015Y-58602681D01*
X134079432Y-58668145D01*
X134064580Y-58736418D01*
X134043430Y-58764673D01*
X133921503Y-58886600D01*
X133785965Y-59080169D01*
X133785964Y-59080171D01*
X133686098Y-59294335D01*
X133686094Y-59294344D01*
X133624938Y-59522586D01*
X133624936Y-59522596D01*
X133604341Y-59757999D01*
X133604341Y-59758000D01*
X133624936Y-59993403D01*
X133624938Y-59993413D01*
X133686094Y-60221655D01*
X133686096Y-60221659D01*
X133686097Y-60221663D01*
X133756678Y-60373023D01*
X133785965Y-60435830D01*
X133785967Y-60435834D01*
X133881965Y-60572932D01*
X133909977Y-60612938D01*
X133921501Y-60629395D01*
X133921506Y-60629402D01*
X134088597Y-60796493D01*
X134088603Y-60796498D01*
X134274158Y-60926425D01*
X134317783Y-60981002D01*
X134324977Y-61050500D01*
X134293454Y-61112855D01*
X134274158Y-61129575D01*
X134088597Y-61259505D01*
X133921505Y-61426597D01*
X133785965Y-61620169D01*
X133785964Y-61620171D01*
X133686098Y-61834335D01*
X133686094Y-61834344D01*
X133624938Y-62062586D01*
X133624936Y-62062596D01*
X133604341Y-62297999D01*
X133604341Y-62298000D01*
X133624936Y-62533403D01*
X133624938Y-62533413D01*
X133686094Y-62761655D01*
X133686096Y-62761659D01*
X133686097Y-62761663D01*
X133769155Y-62939781D01*
X133785965Y-62975830D01*
X133785967Y-62975834D01*
X133813756Y-63015520D01*
X133921501Y-63169396D01*
X133921506Y-63169402D01*
X134088597Y-63336493D01*
X134088603Y-63336498D01*
X134274158Y-63466425D01*
X134317783Y-63521002D01*
X134324977Y-63590500D01*
X134293454Y-63652855D01*
X134274158Y-63669575D01*
X134088597Y-63799505D01*
X133921505Y-63966597D01*
X133785965Y-64160169D01*
X133785964Y-64160171D01*
X133686098Y-64374335D01*
X133686094Y-64374344D01*
X133624938Y-64602586D01*
X133624936Y-64602596D01*
X133604341Y-64837999D01*
X133604341Y-64838000D01*
X133624936Y-65073403D01*
X133624938Y-65073413D01*
X133686094Y-65301655D01*
X133686096Y-65301659D01*
X133686097Y-65301663D01*
X133766004Y-65473023D01*
X133785965Y-65515830D01*
X133785967Y-65515834D01*
X133894281Y-65670521D01*
X133921501Y-65709396D01*
X133921506Y-65709402D01*
X134088597Y-65876493D01*
X134088603Y-65876498D01*
X134274158Y-66006425D01*
X134317783Y-66061002D01*
X134324977Y-66130500D01*
X134293454Y-66192855D01*
X134274158Y-66209575D01*
X134088597Y-66339505D01*
X133921505Y-66506597D01*
X133785965Y-66700169D01*
X133785964Y-66700171D01*
X133686098Y-66914335D01*
X133686094Y-66914344D01*
X133624938Y-67142586D01*
X133624936Y-67142596D01*
X133604341Y-67377999D01*
X133604341Y-67378000D01*
X133624936Y-67613403D01*
X133624938Y-67613413D01*
X133686094Y-67841655D01*
X133686096Y-67841659D01*
X133686097Y-67841663D01*
X133690000Y-67850032D01*
X133785965Y-68055830D01*
X133785967Y-68055834D01*
X133894281Y-68210521D01*
X133921501Y-68249396D01*
X133921506Y-68249402D01*
X134088597Y-68416493D01*
X134088603Y-68416498D01*
X134274158Y-68546425D01*
X134317783Y-68601002D01*
X134324977Y-68670500D01*
X134293454Y-68732855D01*
X134274158Y-68749575D01*
X134088597Y-68879505D01*
X133921505Y-69046597D01*
X133785965Y-69240169D01*
X133785964Y-69240171D01*
X133686098Y-69454335D01*
X133686094Y-69454344D01*
X133624938Y-69682586D01*
X133624936Y-69682596D01*
X133604341Y-69917999D01*
X133604341Y-69918000D01*
X133624936Y-70153403D01*
X133624938Y-70153413D01*
X133686094Y-70381655D01*
X133686096Y-70381659D01*
X133686097Y-70381663D01*
X133690000Y-70390032D01*
X133785965Y-70595830D01*
X133785967Y-70595834D01*
X133894281Y-70750521D01*
X133921501Y-70789396D01*
X133921506Y-70789402D01*
X134088597Y-70956493D01*
X134088603Y-70956498D01*
X134274158Y-71086425D01*
X134317783Y-71141002D01*
X134324977Y-71210500D01*
X134293454Y-71272855D01*
X134274158Y-71289575D01*
X134088597Y-71419505D01*
X133921505Y-71586597D01*
X133785965Y-71780169D01*
X133785964Y-71780171D01*
X133686098Y-71994335D01*
X133686094Y-71994344D01*
X133624938Y-72222586D01*
X133624936Y-72222596D01*
X133604341Y-72457999D01*
X133604341Y-72458000D01*
X133624936Y-72693403D01*
X133624938Y-72693413D01*
X133686094Y-72921655D01*
X133686096Y-72921659D01*
X133686097Y-72921663D01*
X133690000Y-72930032D01*
X133785965Y-73135830D01*
X133785967Y-73135834D01*
X133894281Y-73290521D01*
X133921501Y-73329396D01*
X133921506Y-73329402D01*
X134088597Y-73496493D01*
X134088603Y-73496498D01*
X134274158Y-73626425D01*
X134317783Y-73681002D01*
X134324977Y-73750500D01*
X134293454Y-73812855D01*
X134274158Y-73829575D01*
X134088597Y-73959505D01*
X133921505Y-74126597D01*
X133785965Y-74320169D01*
X133785964Y-74320171D01*
X133686098Y-74534335D01*
X133686094Y-74534344D01*
X133624938Y-74762586D01*
X133624936Y-74762596D01*
X133604341Y-74997999D01*
X133604341Y-74998000D01*
X133624936Y-75233403D01*
X133624938Y-75233413D01*
X133686094Y-75461655D01*
X133686096Y-75461659D01*
X133686097Y-75461663D01*
X133690000Y-75470032D01*
X133785965Y-75675830D01*
X133785967Y-75675834D01*
X133894281Y-75830521D01*
X133921501Y-75869396D01*
X133921506Y-75869402D01*
X134088597Y-76036493D01*
X134088603Y-76036498D01*
X134274158Y-76166425D01*
X134317783Y-76221002D01*
X134324977Y-76290500D01*
X134293454Y-76352855D01*
X134274158Y-76369575D01*
X134088597Y-76499505D01*
X133921505Y-76666597D01*
X133785965Y-76860169D01*
X133785964Y-76860171D01*
X133686098Y-77074335D01*
X133686094Y-77074344D01*
X133624938Y-77302586D01*
X133624936Y-77302596D01*
X133604341Y-77537999D01*
X133604341Y-77538000D01*
X133624936Y-77773403D01*
X133624938Y-77773413D01*
X133686094Y-78001655D01*
X133686096Y-78001659D01*
X133686097Y-78001663D01*
X133780375Y-78203842D01*
X133785965Y-78215830D01*
X133785967Y-78215834D01*
X133841765Y-78295521D01*
X133921501Y-78409396D01*
X133921506Y-78409402D01*
X134088597Y-78576493D01*
X134088603Y-78576498D01*
X134274158Y-78706425D01*
X134317783Y-78761002D01*
X134324977Y-78830500D01*
X134293454Y-78892855D01*
X134274158Y-78909575D01*
X134088597Y-79039505D01*
X133921505Y-79206597D01*
X133785965Y-79400169D01*
X133785964Y-79400171D01*
X133686098Y-79614335D01*
X133686094Y-79614344D01*
X133624938Y-79842586D01*
X133624936Y-79842596D01*
X133604341Y-80077999D01*
X133604341Y-80078000D01*
X133624936Y-80313403D01*
X133624938Y-80313413D01*
X133686094Y-80541655D01*
X133686096Y-80541659D01*
X133686097Y-80541663D01*
X133756678Y-80693023D01*
X133785965Y-80755830D01*
X133785967Y-80755834D01*
X133862366Y-80864942D01*
X133921501Y-80949396D01*
X133921506Y-80949402D01*
X134088597Y-81116493D01*
X134088603Y-81116498D01*
X134274158Y-81246425D01*
X134317783Y-81301002D01*
X134324977Y-81370500D01*
X134293454Y-81432855D01*
X134274158Y-81449575D01*
X134088597Y-81579505D01*
X133921505Y-81746597D01*
X133785965Y-81940169D01*
X133785964Y-81940171D01*
X133686098Y-82154335D01*
X133686094Y-82154344D01*
X133624938Y-82382586D01*
X133624936Y-82382596D01*
X133604341Y-82617999D01*
X133604341Y-82618000D01*
X133624936Y-82853403D01*
X133624938Y-82853413D01*
X133686094Y-83081655D01*
X133686096Y-83081659D01*
X133686097Y-83081663D01*
X133690000Y-83090032D01*
X133785965Y-83295830D01*
X133785967Y-83295834D01*
X133871850Y-83418486D01*
X133921501Y-83489396D01*
X133921506Y-83489402D01*
X134088597Y-83656493D01*
X134088603Y-83656498D01*
X134274158Y-83786425D01*
X134317783Y-83841002D01*
X134324977Y-83910500D01*
X134293454Y-83972855D01*
X134274158Y-83989575D01*
X134088597Y-84119505D01*
X133921505Y-84286597D01*
X133785965Y-84480169D01*
X133785964Y-84480171D01*
X133686098Y-84694335D01*
X133686094Y-84694344D01*
X133624938Y-84922586D01*
X133624936Y-84922596D01*
X133604341Y-85157999D01*
X133604341Y-85158000D01*
X133624936Y-85393403D01*
X133624938Y-85393413D01*
X133686094Y-85621655D01*
X133686096Y-85621659D01*
X133686097Y-85621663D01*
X133756678Y-85773023D01*
X133785965Y-85835830D01*
X133785967Y-85835834D01*
X133876768Y-85965510D01*
X133921501Y-86029396D01*
X133921506Y-86029402D01*
X134088597Y-86196493D01*
X134088603Y-86196498D01*
X134274158Y-86326425D01*
X134317783Y-86381002D01*
X134324977Y-86450500D01*
X134293454Y-86512855D01*
X134274158Y-86529575D01*
X134088597Y-86659505D01*
X133921505Y-86826597D01*
X133785965Y-87020169D01*
X133785964Y-87020171D01*
X133686098Y-87234335D01*
X133686095Y-87234342D01*
X133667980Y-87301949D01*
X133631615Y-87361609D01*
X133568767Y-87392138D01*
X133499392Y-87383843D01*
X133445514Y-87339358D01*
X133430274Y-87308173D01*
X133415181Y-87261721D01*
X133415178Y-87261715D01*
X133410174Y-87253048D01*
X133320533Y-87097784D01*
X133314350Y-87090917D01*
X133284120Y-87027925D01*
X133282500Y-87007945D01*
X133282500Y-62090053D01*
X133302185Y-62023014D01*
X133314353Y-62007077D01*
X133320533Y-62000214D01*
X133415179Y-61836282D01*
X133473674Y-61656254D01*
X133493460Y-61467998D01*
X133473674Y-61279742D01*
X133415179Y-61099714D01*
X133362228Y-61008000D01*
X133320534Y-60935783D01*
X133320529Y-60935776D01*
X133254850Y-60862832D01*
X133224620Y-60799840D01*
X133223000Y-60779860D01*
X133223000Y-56007000D01*
X115708939Y-56007000D01*
X115656534Y-55995382D01*
X115503663Y-55924097D01*
X115503659Y-55924096D01*
X115503655Y-55924094D01*
X115275413Y-55862938D01*
X115275403Y-55862936D01*
X115040001Y-55842341D01*
X115039999Y-55842341D01*
X114804596Y-55862936D01*
X114804586Y-55862938D01*
X114576344Y-55924094D01*
X114576335Y-55924098D01*
X114362171Y-56023964D01*
X114362169Y-56023965D01*
X114168597Y-56159505D01*
X114001505Y-56326597D01*
X113871575Y-56512158D01*
X113816998Y-56555783D01*
X113747500Y-56562977D01*
X113685145Y-56531454D01*
X113668425Y-56512158D01*
X113538494Y-56326597D01*
X113371402Y-56159506D01*
X113371395Y-56159501D01*
X113177834Y-56023967D01*
X113177830Y-56023965D01*
X113148858Y-56010455D01*
X112963663Y-55924097D01*
X112963659Y-55924096D01*
X112963655Y-55924094D01*
X112735413Y-55862938D01*
X112735403Y-55862936D01*
X112500001Y-55842341D01*
X112499999Y-55842341D01*
X112264596Y-55862936D01*
X112264586Y-55862938D01*
X112036344Y-55924094D01*
X112036335Y-55924098D01*
X111822171Y-56023964D01*
X111822169Y-56023965D01*
X111628597Y-56159505D01*
X111461505Y-56326597D01*
X111325965Y-56520169D01*
X111325964Y-56520171D01*
X111226098Y-56734335D01*
X111226094Y-56734344D01*
X111164938Y-56962586D01*
X111164936Y-56962596D01*
X111144341Y-57197999D01*
X111144341Y-57198000D01*
X111164936Y-57433403D01*
X111164938Y-57433413D01*
X111226094Y-57661655D01*
X111226096Y-57661659D01*
X111226097Y-57661663D01*
X111284428Y-57786754D01*
X111325965Y-57875830D01*
X111325967Y-57875834D01*
X111420713Y-58011144D01*
X111461501Y-58069396D01*
X111461506Y-58069402D01*
X111628597Y-58236493D01*
X111628603Y-58236498D01*
X111814158Y-58366425D01*
X111857783Y-58421002D01*
X111864977Y-58490500D01*
X111833454Y-58552855D01*
X111814158Y-58569575D01*
X111628597Y-58699505D01*
X111461505Y-58866597D01*
X111325965Y-59060169D01*
X111325964Y-59060171D01*
X111226098Y-59274335D01*
X111226094Y-59274344D01*
X111164938Y-59502586D01*
X111164936Y-59502596D01*
X111144341Y-59737999D01*
X111144341Y-59738000D01*
X111164936Y-59973403D01*
X111164938Y-59973413D01*
X111226094Y-60201655D01*
X111226096Y-60201659D01*
X111226097Y-60201663D01*
X111284428Y-60326754D01*
X111325965Y-60415830D01*
X111325967Y-60415834D01*
X111420713Y-60551144D01*
X111461501Y-60609396D01*
X111461506Y-60609402D01*
X111628597Y-60776493D01*
X111628603Y-60776498D01*
X111814158Y-60906425D01*
X111857783Y-60961002D01*
X111864977Y-61030500D01*
X111833454Y-61092855D01*
X111814158Y-61109575D01*
X111628597Y-61239505D01*
X111461505Y-61406597D01*
X111325965Y-61600169D01*
X111325964Y-61600171D01*
X111226098Y-61814335D01*
X111226094Y-61814344D01*
X111164938Y-62042586D01*
X111164936Y-62042596D01*
X111144341Y-62277999D01*
X111144341Y-62278000D01*
X111164936Y-62513403D01*
X111164938Y-62513413D01*
X111226094Y-62741655D01*
X111226096Y-62741659D01*
X111226097Y-62741663D01*
X111301278Y-62902888D01*
X111325965Y-62955830D01*
X111325967Y-62955834D01*
X111420713Y-63091144D01*
X111461501Y-63149396D01*
X111461506Y-63149402D01*
X111628597Y-63316493D01*
X111628603Y-63316498D01*
X111814158Y-63446425D01*
X111857783Y-63501002D01*
X111864977Y-63570500D01*
X111833454Y-63632855D01*
X111814158Y-63649575D01*
X111628597Y-63779505D01*
X111461505Y-63946597D01*
X111325965Y-64140169D01*
X111325964Y-64140171D01*
X111226098Y-64354335D01*
X111226094Y-64354344D01*
X111164938Y-64582586D01*
X111164936Y-64582596D01*
X111144341Y-64817999D01*
X111144341Y-64818000D01*
X111164936Y-65053403D01*
X111164938Y-65053413D01*
X111226094Y-65281655D01*
X111226096Y-65281659D01*
X111226097Y-65281663D01*
X111235424Y-65301664D01*
X111325965Y-65495830D01*
X111325967Y-65495834D01*
X111345579Y-65523842D01*
X111461501Y-65689396D01*
X111461506Y-65689402D01*
X111628597Y-65856493D01*
X111628603Y-65856498D01*
X111814158Y-65986425D01*
X111857783Y-66041002D01*
X111864977Y-66110500D01*
X111833454Y-66172855D01*
X111814158Y-66189575D01*
X111628597Y-66319505D01*
X111461505Y-66486597D01*
X111325965Y-66680169D01*
X111325964Y-66680171D01*
X111226098Y-66894335D01*
X111226094Y-66894344D01*
X111164938Y-67122586D01*
X111164936Y-67122596D01*
X111144341Y-67357999D01*
X111144341Y-67358000D01*
X111164936Y-67593403D01*
X111164938Y-67593413D01*
X111226094Y-67821655D01*
X111226096Y-67821659D01*
X111226097Y-67821663D01*
X111235424Y-67841664D01*
X111325965Y-68035830D01*
X111325967Y-68035834D01*
X111345579Y-68063842D01*
X111461501Y-68229396D01*
X111461506Y-68229402D01*
X111628597Y-68396493D01*
X111628603Y-68396498D01*
X111814158Y-68526425D01*
X111857783Y-68581002D01*
X111864977Y-68650500D01*
X111833454Y-68712855D01*
X111814158Y-68729575D01*
X111628597Y-68859505D01*
X111461505Y-69026597D01*
X111325965Y-69220169D01*
X111325964Y-69220171D01*
X111226098Y-69434335D01*
X111226094Y-69434344D01*
X111164938Y-69662586D01*
X111164936Y-69662596D01*
X111144341Y-69897999D01*
X111144341Y-69898000D01*
X111164936Y-70133403D01*
X111164938Y-70133413D01*
X111226094Y-70361655D01*
X111226096Y-70361659D01*
X111226097Y-70361663D01*
X111235424Y-70381664D01*
X111325965Y-70575830D01*
X111325967Y-70575834D01*
X111345579Y-70603842D01*
X111461501Y-70769396D01*
X111461506Y-70769402D01*
X111628597Y-70936493D01*
X111628603Y-70936498D01*
X111814158Y-71066425D01*
X111857783Y-71121002D01*
X111864977Y-71190500D01*
X111833454Y-71252855D01*
X111814158Y-71269575D01*
X111628597Y-71399505D01*
X111461505Y-71566597D01*
X111325965Y-71760169D01*
X111325964Y-71760171D01*
X111226098Y-71974335D01*
X111226094Y-71974344D01*
X111164938Y-72202586D01*
X111164936Y-72202596D01*
X111144341Y-72437999D01*
X111144341Y-72438000D01*
X111164936Y-72673403D01*
X111164938Y-72673413D01*
X111226094Y-72901655D01*
X111226096Y-72901659D01*
X111226097Y-72901663D01*
X111235424Y-72921664D01*
X111325965Y-73115830D01*
X111325967Y-73115834D01*
X111345579Y-73143842D01*
X111461501Y-73309396D01*
X111461506Y-73309402D01*
X111628597Y-73476493D01*
X111628603Y-73476498D01*
X111814158Y-73606425D01*
X111857783Y-73661002D01*
X111864977Y-73730500D01*
X111833454Y-73792855D01*
X111814158Y-73809575D01*
X111628597Y-73939505D01*
X111461505Y-74106597D01*
X111325965Y-74300169D01*
X111325964Y-74300171D01*
X111226098Y-74514335D01*
X111226094Y-74514344D01*
X111164938Y-74742586D01*
X111164936Y-74742596D01*
X111144341Y-74977999D01*
X111144341Y-74978000D01*
X111164936Y-75213403D01*
X111164938Y-75213413D01*
X111226094Y-75441655D01*
X111226096Y-75441659D01*
X111226097Y-75441663D01*
X111235424Y-75461664D01*
X111325965Y-75655830D01*
X111325967Y-75655834D01*
X111345579Y-75683842D01*
X111461501Y-75849396D01*
X111461506Y-75849402D01*
X111628597Y-76016493D01*
X111628603Y-76016498D01*
X111814158Y-76146425D01*
X111857783Y-76201002D01*
X111864977Y-76270500D01*
X111833454Y-76332855D01*
X111814158Y-76349575D01*
X111628597Y-76479505D01*
X111461505Y-76646597D01*
X111325965Y-76840169D01*
X111325964Y-76840171D01*
X111226098Y-77054335D01*
X111226094Y-77054344D01*
X111164938Y-77282586D01*
X111164936Y-77282596D01*
X111144341Y-77517999D01*
X111144341Y-77518000D01*
X111164936Y-77753403D01*
X111164938Y-77753413D01*
X111226094Y-77981655D01*
X111226096Y-77981659D01*
X111226097Y-77981663D01*
X111235424Y-78001664D01*
X111325965Y-78195830D01*
X111325967Y-78195834D01*
X111420713Y-78331144D01*
X111461501Y-78389396D01*
X111461506Y-78389402D01*
X111628597Y-78556493D01*
X111628603Y-78556498D01*
X111814158Y-78686425D01*
X111857783Y-78741002D01*
X111864977Y-78810500D01*
X111833454Y-78872855D01*
X111814158Y-78889575D01*
X111628597Y-79019505D01*
X111461505Y-79186597D01*
X111325965Y-79380169D01*
X111325964Y-79380171D01*
X111226098Y-79594335D01*
X111226094Y-79594344D01*
X111164938Y-79822586D01*
X111164936Y-79822596D01*
X111144341Y-80057999D01*
X111144341Y-80058000D01*
X111164936Y-80293403D01*
X111164938Y-80293413D01*
X111226094Y-80521655D01*
X111226096Y-80521659D01*
X111226097Y-80521663D01*
X111239326Y-80550032D01*
X111325965Y-80735830D01*
X111325967Y-80735834D01*
X111400412Y-80842151D01*
X111461501Y-80929396D01*
X111461506Y-80929402D01*
X111628597Y-81096493D01*
X111628603Y-81096498D01*
X111814158Y-81226425D01*
X111857783Y-81281002D01*
X111864977Y-81350500D01*
X111833454Y-81412855D01*
X111814158Y-81429575D01*
X111628597Y-81559505D01*
X111461505Y-81726597D01*
X111325965Y-81920169D01*
X111325964Y-81920171D01*
X111226098Y-82134335D01*
X111226094Y-82134344D01*
X111164938Y-82362586D01*
X111164936Y-82362596D01*
X111144341Y-82597999D01*
X111144341Y-82598000D01*
X111164936Y-82833403D01*
X111164938Y-82833413D01*
X111226094Y-83061655D01*
X111226096Y-83061659D01*
X111226097Y-83061663D01*
X111306004Y-83233023D01*
X111325965Y-83275830D01*
X111325967Y-83275834D01*
X111400412Y-83382151D01*
X111461501Y-83469396D01*
X111461506Y-83469402D01*
X111628597Y-83636493D01*
X111628603Y-83636498D01*
X111814158Y-83766425D01*
X111857783Y-83821002D01*
X111864977Y-83890500D01*
X111833454Y-83952855D01*
X111814158Y-83969575D01*
X111628597Y-84099505D01*
X111461505Y-84266597D01*
X111325965Y-84460169D01*
X111325964Y-84460171D01*
X111226098Y-84674335D01*
X111226094Y-84674344D01*
X111164938Y-84902586D01*
X111164936Y-84902596D01*
X111144341Y-85137999D01*
X111144341Y-85138000D01*
X100584000Y-85138000D01*
X100584000Y-53006214D01*
X101450920Y-53006214D01*
X101470067Y-53249511D01*
X101470067Y-53249514D01*
X101470068Y-53249516D01*
X101527041Y-53486823D01*
X101527044Y-53486833D01*
X101620436Y-53712303D01*
X101747951Y-53920387D01*
X101747952Y-53920390D01*
X101747955Y-53920393D01*
X101906455Y-54105973D01*
X102042349Y-54222037D01*
X102092037Y-54264475D01*
X102092039Y-54264475D01*
X102300125Y-54391991D01*
X102336802Y-54407183D01*
X102339785Y-54408507D01*
X102340550Y-54408797D01*
X102344020Y-54410173D01*
X102525602Y-54485386D01*
X102525603Y-54485386D01*
X102525605Y-54485387D01*
X102551477Y-54491598D01*
X102564061Y-54494619D01*
X102569612Y-54496088D01*
X102574273Y-54497438D01*
X102574275Y-54497439D01*
X102574276Y-54497439D01*
X102574279Y-54497440D01*
X102577930Y-54498185D01*
X102582434Y-54499104D01*
X102586525Y-54500012D01*
X102762912Y-54542360D01*
X102806410Y-54545783D01*
X102814103Y-54546867D01*
X102814110Y-54546813D01*
X102819067Y-54547414D01*
X102819068Y-54547414D01*
X102819078Y-54547416D01*
X102833315Y-54547989D01*
X102837936Y-54548264D01*
X103006214Y-54561508D01*
X103053931Y-54557752D01*
X103068656Y-54557473D01*
X103068728Y-54557476D01*
X103086934Y-54555265D01*
X103092070Y-54554751D01*
X103249516Y-54542360D01*
X103300201Y-54530191D01*
X103314187Y-54527672D01*
X103316758Y-54527360D01*
X103337080Y-54521473D01*
X103342589Y-54520014D01*
X103486826Y-54485386D01*
X103538991Y-54463778D01*
X103551927Y-54459242D01*
X103556746Y-54457847D01*
X103577590Y-54447956D01*
X103583159Y-54445483D01*
X103712303Y-54391991D01*
X103764207Y-54360183D01*
X103775816Y-54353896D01*
X103782475Y-54350737D01*
X103802276Y-54337069D01*
X103807899Y-54333409D01*
X103920393Y-54264473D01*
X103970099Y-54222019D01*
X103980157Y-54214286D01*
X103988099Y-54208805D01*
X104005814Y-54191789D01*
X104011083Y-54187016D01*
X104105973Y-54105973D01*
X104151383Y-54052805D01*
X104159777Y-54043906D01*
X104161762Y-54041998D01*
X104168293Y-54035726D01*
X104183003Y-54016149D01*
X104187796Y-54010169D01*
X104264473Y-53920393D01*
X104303455Y-53856779D01*
X104310028Y-53847110D01*
X104318390Y-53835984D01*
X104329560Y-53814700D01*
X104333593Y-53807598D01*
X104391991Y-53712303D01*
X104422379Y-53638939D01*
X104427127Y-53628801D01*
X104434502Y-53614751D01*
X104441864Y-53592697D01*
X104444896Y-53584577D01*
X104485386Y-53486826D01*
X104505073Y-53404825D01*
X104508019Y-53394537D01*
X104513622Y-53377757D01*
X104517186Y-53355824D01*
X104518982Y-53346886D01*
X104542360Y-53249516D01*
X104549374Y-53160388D01*
X104550594Y-53150256D01*
X104553701Y-53131140D01*
X104554323Y-53100193D01*
X104554680Y-53092968D01*
X104561508Y-53006214D01*
X145450920Y-53006214D01*
X145470067Y-53249511D01*
X145470067Y-53249514D01*
X145470068Y-53249516D01*
X145527041Y-53486823D01*
X145527044Y-53486833D01*
X145620436Y-53712303D01*
X145747951Y-53920387D01*
X145747952Y-53920390D01*
X145747955Y-53920393D01*
X145906455Y-54105973D01*
X146042349Y-54222037D01*
X146092037Y-54264475D01*
X146092039Y-54264475D01*
X146300125Y-54391991D01*
X146336802Y-54407183D01*
X146339785Y-54408507D01*
X146340550Y-54408797D01*
X146344020Y-54410173D01*
X146525602Y-54485386D01*
X146525603Y-54485386D01*
X146525605Y-54485387D01*
X146551477Y-54491598D01*
X146564061Y-54494619D01*
X146569612Y-54496088D01*
X146574273Y-54497438D01*
X146574275Y-54497439D01*
X146574276Y-54497439D01*
X146574279Y-54497440D01*
X146577930Y-54498185D01*
X146582434Y-54499104D01*
X146586525Y-54500012D01*
X146762912Y-54542360D01*
X146806410Y-54545783D01*
X146814103Y-54546867D01*
X146814110Y-54546813D01*
X146819067Y-54547414D01*
X146819068Y-54547414D01*
X146819078Y-54547416D01*
X146833315Y-54547989D01*
X146837936Y-54548264D01*
X147006214Y-54561508D01*
X147053931Y-54557752D01*
X147068656Y-54557473D01*
X147068728Y-54557476D01*
X147086934Y-54555265D01*
X147092070Y-54554751D01*
X147249516Y-54542360D01*
X147300201Y-54530191D01*
X147314187Y-54527672D01*
X147316758Y-54527360D01*
X147337080Y-54521473D01*
X147342589Y-54520014D01*
X147486826Y-54485386D01*
X147538991Y-54463778D01*
X147551927Y-54459242D01*
X147556746Y-54457847D01*
X147577590Y-54447956D01*
X147583159Y-54445483D01*
X147712303Y-54391991D01*
X147764207Y-54360183D01*
X147775816Y-54353896D01*
X147782475Y-54350737D01*
X147802276Y-54337069D01*
X147807899Y-54333409D01*
X147920393Y-54264473D01*
X147970099Y-54222019D01*
X147980157Y-54214286D01*
X147988099Y-54208805D01*
X148005814Y-54191789D01*
X148011083Y-54187016D01*
X148105973Y-54105973D01*
X148151383Y-54052805D01*
X148159777Y-54043906D01*
X148161762Y-54041998D01*
X148168293Y-54035726D01*
X148183003Y-54016149D01*
X148187796Y-54010169D01*
X148264473Y-53920393D01*
X148303455Y-53856779D01*
X148310028Y-53847110D01*
X148318390Y-53835984D01*
X148329560Y-53814700D01*
X148333593Y-53807598D01*
X148391991Y-53712303D01*
X148422379Y-53638939D01*
X148427127Y-53628801D01*
X148434502Y-53614751D01*
X148441864Y-53592697D01*
X148444896Y-53584577D01*
X148485386Y-53486826D01*
X148505073Y-53404825D01*
X148508019Y-53394537D01*
X148513622Y-53377757D01*
X148517186Y-53355824D01*
X148518982Y-53346886D01*
X148542360Y-53249516D01*
X148549374Y-53160388D01*
X148550594Y-53150256D01*
X148553701Y-53131140D01*
X148554323Y-53100193D01*
X148554680Y-53092968D01*
X148561508Y-53006214D01*
X148554679Y-52919449D01*
X148554323Y-52912222D01*
X148553701Y-52881288D01*
X148550594Y-52862171D01*
X148549373Y-52852028D01*
X148542360Y-52762916D01*
X148542360Y-52762912D01*
X148518990Y-52665572D01*
X148517179Y-52656561D01*
X148513622Y-52634671D01*
X148508015Y-52617878D01*
X148505069Y-52607587D01*
X148485386Y-52525602D01*
X148444902Y-52427865D01*
X148441868Y-52419742D01*
X148434502Y-52397677D01*
X148427126Y-52383624D01*
X148422375Y-52373481D01*
X148391991Y-52300125D01*
X148333595Y-52204832D01*
X148329559Y-52197726D01*
X148318390Y-52176444D01*
X148310040Y-52165332D01*
X148303452Y-52155642D01*
X148264473Y-52092035D01*
X148187809Y-52002273D01*
X148182986Y-51996255D01*
X148168293Y-51976702D01*
X148159774Y-51968519D01*
X148151384Y-51959624D01*
X148105973Y-51906455D01*
X148011104Y-51825429D01*
X148005799Y-51820624D01*
X147988099Y-51803623D01*
X147980166Y-51798147D01*
X147970081Y-51790392D01*
X147920393Y-51747955D01*
X147920384Y-51747948D01*
X147807923Y-51679032D01*
X147802278Y-51675358D01*
X147782479Y-51661693D01*
X147782473Y-51661689D01*
X147775808Y-51658526D01*
X147764192Y-51652234D01*
X147712298Y-51620434D01*
X147712291Y-51620431D01*
X147583225Y-51566971D01*
X147577520Y-51564438D01*
X147556747Y-51554581D01*
X147556733Y-51554576D01*
X147551915Y-51553180D01*
X147538978Y-51548642D01*
X147486836Y-51527045D01*
X147486820Y-51527040D01*
X147342610Y-51492416D01*
X147337068Y-51490950D01*
X147326113Y-51487777D01*
X147316758Y-51485068D01*
X147316749Y-51485066D01*
X147316740Y-51485065D01*
X147314166Y-51484752D01*
X147300198Y-51482235D01*
X147249516Y-51470068D01*
X147092112Y-51457679D01*
X147086901Y-51457158D01*
X147068733Y-51454952D01*
X147068714Y-51454952D01*
X147068620Y-51454956D01*
X147053923Y-51454674D01*
X147010888Y-51451287D01*
X147006214Y-51450920D01*
X147006213Y-51450920D01*
X146837983Y-51464158D01*
X146833260Y-51464439D01*
X146819084Y-51465011D01*
X146814121Y-51465614D01*
X146814114Y-51465559D01*
X146806420Y-51466642D01*
X146762921Y-51470067D01*
X146762916Y-51470067D01*
X146762912Y-51470068D01*
X146762909Y-51470068D01*
X146762907Y-51470069D01*
X146586554Y-51512407D01*
X146582422Y-51513325D01*
X146574272Y-51514989D01*
X146569605Y-51516341D01*
X146564069Y-51517806D01*
X146525605Y-51527041D01*
X146525599Y-51527042D01*
X146344079Y-51602230D01*
X146340632Y-51603598D01*
X146339826Y-51603903D01*
X146336841Y-51605228D01*
X146300123Y-51620437D01*
X146300118Y-51620440D01*
X146092040Y-51747951D01*
X146092037Y-51747952D01*
X145906455Y-51906455D01*
X145747952Y-52092037D01*
X145747951Y-52092040D01*
X145620436Y-52300124D01*
X145527044Y-52525594D01*
X145527042Y-52525601D01*
X145527042Y-52525602D01*
X145504888Y-52617878D01*
X145470067Y-52762916D01*
X145450920Y-53006214D01*
X104561508Y-53006214D01*
X104554679Y-52919449D01*
X104554323Y-52912222D01*
X104553701Y-52881288D01*
X104550594Y-52862171D01*
X104549373Y-52852028D01*
X104542360Y-52762916D01*
X104542360Y-52762912D01*
X104518990Y-52665572D01*
X104517179Y-52656561D01*
X104513622Y-52634671D01*
X104508015Y-52617878D01*
X104505069Y-52607587D01*
X104485386Y-52525602D01*
X104444902Y-52427865D01*
X104441868Y-52419742D01*
X104434502Y-52397677D01*
X104427126Y-52383624D01*
X104422375Y-52373481D01*
X104391991Y-52300125D01*
X104333595Y-52204832D01*
X104329559Y-52197726D01*
X104318390Y-52176444D01*
X104310040Y-52165332D01*
X104303452Y-52155642D01*
X104264473Y-52092035D01*
X104187809Y-52002273D01*
X104182986Y-51996255D01*
X104168293Y-51976702D01*
X104159774Y-51968519D01*
X104151384Y-51959624D01*
X104105973Y-51906455D01*
X104011104Y-51825429D01*
X104005799Y-51820624D01*
X103988099Y-51803623D01*
X103980166Y-51798147D01*
X103970081Y-51790392D01*
X103920393Y-51747955D01*
X103920384Y-51747948D01*
X103807923Y-51679032D01*
X103802278Y-51675358D01*
X103782479Y-51661693D01*
X103782473Y-51661689D01*
X103775808Y-51658526D01*
X103764192Y-51652234D01*
X103712298Y-51620434D01*
X103712291Y-51620431D01*
X103583225Y-51566971D01*
X103577520Y-51564438D01*
X103556747Y-51554581D01*
X103556733Y-51554576D01*
X103551915Y-51553180D01*
X103538978Y-51548642D01*
X103486836Y-51527045D01*
X103486820Y-51527040D01*
X103342610Y-51492416D01*
X103337068Y-51490950D01*
X103326113Y-51487777D01*
X103316758Y-51485068D01*
X103316749Y-51485066D01*
X103316740Y-51485065D01*
X103314166Y-51484752D01*
X103300198Y-51482235D01*
X103249516Y-51470068D01*
X103092112Y-51457679D01*
X103086901Y-51457158D01*
X103068733Y-51454952D01*
X103068714Y-51454952D01*
X103068620Y-51454956D01*
X103053923Y-51454674D01*
X103010888Y-51451287D01*
X103006214Y-51450920D01*
X103006213Y-51450920D01*
X102837983Y-51464158D01*
X102833260Y-51464439D01*
X102819084Y-51465011D01*
X102814121Y-51465614D01*
X102814114Y-51465559D01*
X102806420Y-51466642D01*
X102762921Y-51470067D01*
X102762916Y-51470067D01*
X102762912Y-51470068D01*
X102762909Y-51470068D01*
X102762907Y-51470069D01*
X102586554Y-51512407D01*
X102582422Y-51513325D01*
X102574272Y-51514989D01*
X102569605Y-51516341D01*
X102564069Y-51517806D01*
X102525605Y-51527041D01*
X102525599Y-51527042D01*
X102344079Y-51602230D01*
X102340632Y-51603598D01*
X102339826Y-51603903D01*
X102336841Y-51605228D01*
X102300123Y-51620437D01*
X102300118Y-51620440D01*
X102092040Y-51747951D01*
X102092037Y-51747952D01*
X101906455Y-51906455D01*
X101747952Y-52092037D01*
X101747951Y-52092040D01*
X101620436Y-52300124D01*
X101527044Y-52525594D01*
X101527042Y-52525601D01*
X101527042Y-52525602D01*
X101504888Y-52617878D01*
X101470067Y-52762916D01*
X101450920Y-53006214D01*
X100584000Y-53006214D01*
X100584000Y-52248362D01*
X100603685Y-52181323D01*
X100620319Y-52160681D01*
X102198681Y-50582319D01*
X102260004Y-50548834D01*
X102286362Y-50546000D01*
X147777096Y-50546000D01*
X147844135Y-50565685D01*
G37*
G04 #@! TD.AperFunction*
M02*
